<svg width="59" height="77" viewBox="0 0 59 77" fill="none" xmlns="http://www.w3.org/2000/svg">
<path d="M58.2505 42.5116C57.9804 42.2377 57.6057 42.0801 57.2237 42.0801C56.8417 42.0801 56.467 42.2377 56.1969 42.5116C55.9267 42.7855 55.7713 43.1654 55.7713 43.5527C55.7713 43.94 55.9267 44.3199 56.1969 44.5938C56.467 44.8677 56.8417 45.0253 57.2237 45.0253C57.6057 45.0253 57.9804 44.8677 58.2505 44.5938C58.5207 44.3199 58.6761 43.94 58.6761 43.5527C58.6761 43.1654 58.5207 42.7855 58.2505 42.5116Z" fill="#FF5C28"/>
<path d="M57.2237 38.8198C58.0258 38.8198 58.6761 38.1604 58.6761 37.3469V14.0612C58.6761 10.0006 55.4184 6.69699 51.4142 6.69699H42.295C41.6992 3.3519 38.809 0.805664 35.3411 0.805664H23.3348C19.8671 0.805664 16.9767 3.3519 16.3811 6.69699H7.26189C3.25768 6.69699 0 10.0006 0 14.0612V68.8505C0 72.9111 3.25768 76.2147 7.26189 76.2147H51.4142C55.4184 76.2147 58.6761 72.9111 58.6761 68.8505V49.6944C58.6761 48.881 58.0258 48.2216 57.2237 48.2216C56.4215 48.2216 55.7713 48.881 55.7713 49.6944V68.8505C55.7713 71.2869 53.8167 73.269 51.4142 73.269H7.26189C4.85937 73.269 2.90476 71.2869 2.90476 68.8505V14.0612C2.90476 11.6248 4.85937 9.64266 7.26189 9.64266H16.2666V12.5883H8.71427C7.11259 12.5883 5.80951 13.9097 5.80951 15.534V67.3777C5.80951 69.0019 7.11259 70.3233 8.71427 70.3233H49.9618C51.5635 70.3233 52.8666 69.0019 52.8666 67.3777V15.534C52.8666 13.9097 51.5635 12.5883 49.9618 12.5883H42.4094V9.64266H51.4142C53.8167 9.64266 55.7713 11.6248 55.7713 14.0612V37.3469C55.7713 38.1604 56.4215 38.8198 57.2237 38.8198ZM19.1714 7.9735C19.1714 5.64539 21.0391 3.75133 23.3349 3.75133H35.3413C37.6369 3.75133 39.5047 5.64539 39.5047 7.9735V12.5883H19.1714V7.9735ZM49.9618 15.534L49.9637 67.3777H8.71427V15.534H49.9618Z" fill="#FF5C28"/>
<path d="M18.4257 19.9673C15.2224 19.9673 12.6162 22.6101 12.6162 25.8586C12.6162 29.107 15.2224 31.7499 18.4257 31.7499C21.6291 31.7499 24.2352 29.107 24.2352 25.8586C24.2352 22.6101 21.6291 19.9673 18.4257 19.9673ZM18.4257 28.8042C16.824 28.8042 15.521 27.4828 15.521 25.8586C15.521 24.2343 16.824 22.9129 18.4257 22.9129C20.0274 22.9129 21.3305 24.2343 21.3305 25.8586C21.3305 27.4828 20.0274 28.8042 18.4257 28.8042Z" fill="#FF5C28"/>
<path d="M44.4428 24.3858H34.9054C34.1034 24.3858 33.453 25.0448 33.453 25.8579C33.453 26.6709 34.1033 27.3299 34.9054 27.3299H44.4428C45.2449 27.3299 45.8951 26.6709 45.8951 25.8579C45.8951 25.0448 45.2449 24.3858 44.4428 24.3858Z" fill="#FF5C28"/>
<path d="M30.3837 24.8171C30.1136 24.5433 29.7389 24.3858 29.3569 24.3858C28.9735 24.3858 28.6002 24.5433 28.3301 24.8171C28.0585 25.0909 27.9045 25.4707 27.9045 25.8579C27.9045 26.245 28.0585 26.6248 28.3301 26.8986C28.6002 27.1724 28.9735 27.3299 29.3569 27.3299C29.7389 27.3299 30.1136 27.1724 30.3837 26.8986C30.6539 26.6248 30.8093 26.245 30.8093 25.8579C30.8093 25.4707 30.6539 25.0909 30.3837 24.8171Z" fill="#FF5C28"/>
<path d="M18.4257 35.8737C15.2224 35.8737 12.6162 38.5165 12.6162 41.7651C12.6162 45.0136 15.2224 47.6565 18.4257 47.6565C21.6291 47.6565 24.2352 45.0136 24.2352 41.7651C24.2352 38.5165 21.6291 35.8737 18.4257 35.8737ZM18.4257 44.7108C16.824 44.7108 15.521 43.3893 15.521 41.7651C15.521 40.1408 16.824 38.8194 18.4257 38.8194C20.0274 38.8194 21.3305 40.1408 21.3305 41.7651C21.3305 43.3893 20.0274 44.7108 18.4257 44.7108Z" fill="#FF5C28"/>
<path d="M44.4428 40.2922H29.3565C28.5543 40.2922 27.9041 40.9515 27.9041 41.7648C27.9041 42.5781 28.5543 43.2373 29.3565 43.2373H44.4428C45.2449 43.2373 45.8951 42.5781 45.8951 41.7648C45.8951 40.9515 45.2449 40.2922 44.4428 40.2922Z" fill="#FF5C28"/>
<path d="M18.4257 51.7803C15.2224 51.7803 12.6162 54.4231 12.6162 57.6716C12.6162 60.92 15.2224 63.5629 18.4257 63.5629C21.6291 63.5629 24.2352 60.92 24.2352 57.6716C24.2352 54.4231 21.6291 51.7803 18.4257 51.7803ZM18.4257 60.6172C16.824 60.6172 15.521 59.2958 15.521 57.6716C15.521 56.0473 16.824 54.7259 18.4257 54.7259C20.0274 54.7259 21.3305 56.0473 21.3305 57.6716C21.3305 59.2958 20.0274 60.6172 18.4257 60.6172Z" fill="#FF5C28"/>
<path d="M44.4428 56.199H29.3565C28.5543 56.199 27.9041 56.858 27.9041 57.6711C27.9041 58.4841 28.5543 59.1431 29.3565 59.1431H44.4428C45.2449 59.1431 45.8951 58.4841 45.8951 57.6711C45.8951 56.858 45.2449 56.199 44.4428 56.199Z" fill="#FF5C28"/>
<path d="M32.4606 6.69697H26.2154C25.4133 6.69697 24.763 7.35624 24.763 8.16955C24.763 8.98285 25.4133 9.64212 26.2154 9.64212H32.4606C33.2628 9.64212 33.913 8.98285 33.913 8.16955C33.913 7.35624 33.2628 6.69697 32.4606 6.69697Z" fill="#FF5C28"/>
</svg>
