<svg width="47" height="57" viewBox="0 0 47 57" fill="none" xmlns="http://www.w3.org/2000/svg">
<mask id="path-1-inside-1" fill="white">
<path d="M42.5019 9.91054C38.1613 3.61271 31.2821 0 23.6296 0C15.977 0 9.09781 3.61271 4.7572 9.91054C0.437918 16.1765 -0.55942 24.1094 2.08401 31.1181C2.79107 33.0321 3.915 34.8916 5.41662 36.6341L22.1161 56.2984C22.4938 56.7435 23.0471 57 23.6296 57C24.212 57 24.7654 56.7436 25.1431 56.2984L41.8379 36.6394C43.3461 34.8869 44.4686 33.0294 45.1698 31.1308C47.8186 24.1094 46.8212 16.1765 42.5019 9.91054ZM41.447 29.735C40.9063 31.1998 40.0235 32.6481 38.8248 34.0411C38.8214 34.0445 38.8181 34.0478 38.8154 34.0518L23.6296 51.9331L8.4344 34.0406C7.23628 32.6488 6.35355 31.2006 5.80751 29.7217C3.62139 23.9254 4.45104 17.3664 8.02751 12.1773C11.6152 6.97159 17.3023 3.98599 23.6296 3.98599C29.9568 3.98599 35.6432 6.97148 39.231 12.1773C42.8081 17.3664 43.6384 23.9254 41.447 29.735Z"/>
<path d="M24.1289 11.0001C17.7881 11.0001 12.6289 16.1587 12.6289 22.5001C12.6289 28.8416 17.7875 34.0001 24.1289 34.0001C30.4704 34.0001 35.6289 28.8416 35.6289 22.5001C35.6289 16.1594 30.4697 11.0001 24.1289 11.0001ZM24.1289 29.8929C20.0525 29.8929 16.736 26.5764 16.736 22.5C16.736 18.4237 20.0525 15.1071 24.1289 15.1071C28.2053 15.1071 31.5218 18.4237 31.5218 22.5C31.5218 26.5764 28.2053 29.8929 24.1289 29.8929Z"/>
</mask>
<path d="M42.5019 9.91054C38.1613 3.61271 31.2821 0 23.6296 0C15.977 0 9.09781 3.61271 4.7572 9.91054C0.437918 16.1765 -0.55942 24.1094 2.08401 31.1181C2.79107 33.0321 3.915 34.8916 5.41662 36.6341L22.1161 56.2984C22.4938 56.7435 23.0471 57 23.6296 57C24.212 57 24.7654 56.7436 25.1431 56.2984L41.8379 36.6394C43.3461 34.8869 44.4686 33.0294 45.1698 31.1308C47.8186 24.1094 46.8212 16.1765 42.5019 9.91054ZM41.447 29.735C40.9063 31.1998 40.0235 32.6481 38.8248 34.0411C38.8214 34.0445 38.8181 34.0478 38.8154 34.0518L23.6296 51.9331L8.4344 34.0406C7.23628 32.6488 6.35355 31.2006 5.80751 29.7217C3.62139 23.9254 4.45104 17.3664 8.02751 12.1773C11.6152 6.97159 17.3023 3.98599 23.6296 3.98599C29.9568 3.98599 35.6432 6.97148 39.231 12.1773C42.8081 17.3664 43.6384 23.9254 41.447 29.735Z" fill="#FF5C28"/>
<path d="M24.1289 11.0001C17.7881 11.0001 12.6289 16.1587 12.6289 22.5001C12.6289 28.8416 17.7875 34.0001 24.1289 34.0001C30.4704 34.0001 35.6289 28.8416 35.6289 22.5001C35.6289 16.1594 30.4697 11.0001 24.1289 11.0001ZM24.1289 29.8929C20.0525 29.8929 16.736 26.5764 16.736 22.5C16.736 18.4237 20.0525 15.1071 24.1289 15.1071C28.2053 15.1071 31.5218 18.4237 31.5218 22.5C31.5218 26.5764 28.2053 29.8929 24.1289 29.8929Z" fill="#FF5C28"/>
<path d="M42.5019 9.91054L41.6786 10.478L41.6786 10.4781L42.5019 9.91054ZM4.7572 9.91054L5.58054 10.4781L5.58058 10.478L4.7572 9.91054ZM2.08401 31.1181L3.02207 30.7716L3.01967 30.7652L2.08401 31.1181ZM5.41662 36.6341L6.17887 35.9868L6.17415 35.9813L5.41662 36.6341ZM22.1161 56.2984L22.8786 55.6514L22.8783 55.6511L22.1161 56.2984ZM25.1431 56.2984L24.3808 55.6511L24.3805 55.6515L25.1431 56.2984ZM41.8379 36.6394L41.0799 35.9871L41.0756 35.9921L41.8379 36.6394ZM45.1698 31.1308L44.2341 30.7778L44.2317 30.7844L45.1698 31.1308ZM41.447 29.735L40.5113 29.382L40.5088 29.3887L41.447 29.735ZM38.8248 34.0411L39.5327 34.7474L39.5587 34.7213L39.5827 34.6934L38.8248 34.0411ZM38.8154 34.0518L39.5776 34.6991L39.6156 34.6544L39.6481 34.6056L38.8154 34.0518ZM23.6296 51.9331L22.8674 52.5804L23.6296 53.478L24.3918 52.5804L23.6296 51.9331ZM8.4344 34.0406L9.19664 33.3932L9.19228 33.3882L8.4344 34.0406ZM5.80751 29.7217L6.74564 29.3753L6.74318 29.3688L5.80751 29.7217ZM8.02751 12.1773L8.85089 12.7448L8.85091 12.7448L8.02751 12.1773ZM39.231 12.1773L38.4076 12.7448L38.4076 12.7449L39.231 12.1773ZM43.3253 9.34305C38.798 2.77428 31.6109 -1 23.6296 -1V1C30.9534 1 37.5247 4.45113 41.6786 10.478L43.3253 9.34305ZM23.6296 -1C15.6483 -1 8.46117 2.77428 3.93382 9.34305L5.58058 10.478C9.73446 4.45114 16.3057 1 23.6296 1V-1ZM3.93386 9.34299C-0.568128 15.874 -1.6128 24.1502 1.14835 31.471L3.01967 30.7652C0.49396 24.0687 1.44396 16.479 5.58054 10.4781L3.93386 9.34299ZM1.14597 31.4646C1.89941 33.5041 3.08948 35.4655 4.65909 37.2869L6.17415 35.9813C4.74053 34.3177 3.68272 32.56 3.02205 30.7716L1.14597 31.4646ZM4.65439 37.2814L21.3538 56.9457L22.8783 55.6511L6.17885 35.9868L4.65439 37.2814ZM21.3536 56.9454C21.9208 57.6139 22.7527 58 23.6296 58V56C23.3415 56 23.0667 55.8731 22.8786 55.6514L21.3536 56.9454ZM23.6296 58C24.5063 58 25.3383 57.6141 25.9056 56.9453L24.3805 55.6515C24.1925 55.8732 23.9178 56 23.6296 56V58ZM25.9053 56.9457L42.6001 37.2867L41.0756 35.9921L24.3808 55.6511L25.9053 56.9457ZM42.5958 37.2917C44.1712 35.4612 45.3601 33.5021 46.1079 31.4772L44.2317 30.7844C43.5772 32.5567 42.5211 34.3126 41.0799 35.9871L42.5958 37.2917ZM46.1054 31.4838C48.8719 24.1506 47.8275 15.8743 43.3253 9.34299L41.6786 10.4781C45.815 16.4788 46.7653 24.0683 44.2342 30.7778L46.1054 31.4838ZM40.5088 29.3887C40.0162 30.7234 39.2015 32.0702 38.0668 33.3889L39.5827 34.6934C40.8456 33.226 41.7964 31.6763 42.3851 30.0812L40.5088 29.3887ZM38.1168 33.3349C38.1166 33.3351 38.1151 33.3366 38.1134 33.3383C38.1116 33.3401 38.1089 33.3428 38.1057 33.3461C38.0994 33.3527 38.0894 33.363 38.0777 33.376C38.0545 33.4017 38.0193 33.443 37.9827 33.4981L39.6481 34.6056C39.6142 34.6566 39.5821 34.6942 39.562 34.7165C39.5441 34.7363 39.5279 34.7522 39.5327 34.7474L38.1168 33.3349ZM38.0532 33.4045L22.8674 51.2858L24.3918 52.5804L39.5776 34.6991L38.0532 33.4045ZM24.3918 51.2858L9.19662 33.3933L7.67218 34.6879L22.8674 52.5804L24.3918 51.2858ZM9.19228 33.3882C8.0587 32.0713 7.24379 30.7246 6.74561 29.3753L4.86941 30.0681C5.4633 31.6766 6.41386 33.2262 7.67652 34.693L9.19228 33.3882ZM6.74318 29.3688C4.67506 23.8854 5.45659 17.6696 8.85089 12.7448L7.20413 11.6098C3.44549 17.0632 2.56771 23.9654 4.87185 30.0746L6.74318 29.3688ZM8.85091 12.7448C12.2518 7.81016 17.6308 4.98599 23.6296 4.98599V2.98599C16.9737 2.98599 10.9786 6.13302 7.20412 11.6098L8.85091 12.7448ZM23.6296 4.98599C29.6282 4.98599 35.0066 7.81002 38.4076 12.7448L40.0544 11.6098C36.2798 6.13294 30.2853 2.98599 23.6296 2.98599V4.98599ZM38.4076 12.7449C41.8024 17.6694 42.5849 23.8851 40.5113 29.382L42.3826 30.0879C44.692 23.9657 43.8139 17.0635 40.0543 11.6097L38.4076 12.7449ZM24.1289 10.0001C17.2359 10.0001 11.6289 15.6064 11.6289 22.5001H13.6289C13.6289 16.711 18.3404 12.0001 24.1289 12.0001V10.0001ZM11.6289 22.5001C11.6289 29.3939 17.2352 35.0001 24.1289 35.0001V33.0001C18.3397 33.0001 13.6289 28.2893 13.6289 22.5001H11.6289ZM24.1289 35.0001C31.0226 35.0001 36.6289 29.3939 36.6289 22.5001H34.6289C34.6289 28.2893 29.9181 33.0001 24.1289 33.0001V35.0001ZM36.6289 22.5001C36.6289 15.6071 31.022 10.0001 24.1289 10.0001V12.0001C29.9174 12.0001 34.6289 16.7117 34.6289 22.5001H36.6289ZM24.1289 28.8929C20.6048 28.8929 17.736 26.0241 17.736 22.5H15.736C15.736 27.1287 19.5003 30.8929 24.1289 30.8929V28.8929ZM17.736 22.5C17.736 18.9759 20.6048 16.1071 24.1289 16.1071V14.1071C19.5003 14.1071 15.736 17.8714 15.736 22.5H17.736ZM24.1289 16.1071C27.653 16.1071 30.5218 18.9759 30.5218 22.5H32.5218C32.5218 17.8714 28.7576 14.1071 24.1289 14.1071V16.1071ZM30.5218 22.5C30.5218 26.0241 27.653 28.8929 24.1289 28.8929V30.8929C28.7576 30.8929 32.5218 27.1287 32.5218 22.5H30.5218Z" fill="white" mask="url(#path-1-inside-1)"/>
</svg>
