<svg width="75" height="77" viewBox="0 0 75 77" fill="none" xmlns="http://www.w3.org/2000/svg">
<path d="M70.9039 4.21423C70.3444 2.24815 68.5551 0.805664 66.4387 0.805664C63.876 0.805664 61.7911 2.91991 61.7911 5.51871C61.7911 8.11752 63.876 10.2318 66.4387 10.2318C68.368 10.2318 70.0264 9.03302 70.7282 7.33161C71.2231 7.67847 71.5486 8.25729 71.5486 8.91225V12.7909C71.5486 21.231 66.3155 28.6337 58.4772 31.3581C50.6389 28.6337 45.4058 21.2308 45.4058 12.7909V8.91225C45.4058 8.26362 45.7255 7.6901 46.2125 7.34207C46.917 9.03803 48.5726 10.2318 50.4981 10.2318C53.0609 10.2318 55.1457 8.11752 55.1457 5.51871C55.1457 2.91991 53.0609 0.805664 50.4981 0.805664C48.3798 0.805664 46.5892 2.25095 46.0315 4.21983C43.9992 4.78539 42.5012 6.67429 42.5012 8.91225V12.7909C42.5012 17.6196 43.9879 22.2313 46.8008 26.1275C49.4171 29.7517 52.9628 32.4522 57.0982 33.9858V49.8037C57.0982 50.88 56.2349 51.7555 55.1735 51.7555C54.1121 51.7555 53.2488 50.8799 53.2488 49.8037V41.9347C53.2488 39.2342 51.0823 37.0372 48.4193 37.0372C45.7564 37.0372 43.5899 39.2342 43.5899 41.9347V55.7339C40.2792 56.4182 37.7804 59.3934 37.7804 62.9498C37.7804 67.0104 41.0381 70.314 45.0423 70.314C49.0465 70.314 52.3042 67.0104 52.3042 62.9498C52.3042 59.3936 49.8054 56.4182 46.4947 55.7339V41.9347C46.4947 40.8583 47.3579 39.9829 48.4193 39.9829C49.4807 39.9829 50.344 40.8583 50.344 41.9347V49.8037C50.344 52.5041 52.5106 54.7011 55.1735 54.7011C57.8364 54.7011 60.0029 52.5041 60.0029 49.8037V33.929C64.0752 32.3862 67.5688 29.7086 70.154 26.1275C72.9669 22.2313 74.4535 17.6196 74.4535 12.7909V8.91225C74.4535 6.66708 72.9461 4.77317 70.9039 4.21423ZM66.4387 7.2861C65.4777 7.2861 64.6959 6.49328 64.6959 5.51871C64.6959 4.54414 65.4777 3.75132 66.4387 3.75132C67.3997 3.75132 68.1816 4.54414 68.1816 5.51871C68.1816 6.49328 67.3999 7.2861 66.4387 7.2861ZM50.4981 3.75132C51.4592 3.75132 52.241 4.54414 52.241 5.51871C52.241 6.49328 51.4592 7.2861 50.4981 7.2861C49.5371 7.2861 48.7553 6.49328 48.7553 5.51871C48.7553 4.54414 49.537 3.75132 50.4981 3.75132ZM49.3994 62.9498C49.3994 65.3862 47.4448 67.3683 45.0423 67.3683C42.6398 67.3683 40.6852 65.3862 40.6852 62.9498C40.6852 60.5135 42.6398 58.5314 45.0423 58.5314C47.4448 58.5314 49.3994 60.5135 49.3994 62.9498Z" fill="#FF5C28"/>
<path d="M59.5041 60.6054C59.2341 60.3316 58.8594 60.1739 58.4774 60.1739C58.0954 60.1739 57.7207 60.3314 57.4506 60.6054C57.1804 60.8793 57.025 61.2592 57.025 61.648C57.025 62.0354 57.1803 62.4138 57.4506 62.6879C57.7207 62.9633 58.0954 63.1194 58.4774 63.1194C58.8594 63.1194 59.2341 62.9633 59.5041 62.6879C59.7742 62.414 59.9298 62.0354 59.9298 61.648C59.9298 61.2592 59.7744 60.8808 59.5041 60.6054Z" fill="#FF5C28"/>
<path d="M65.1583 34.4052C64.3563 34.4052 63.706 35.0647 63.706 35.878V71.7962C63.706 72.6083 63.0544 73.269 62.2536 73.269H59.9298V66.5107C59.9298 65.6974 59.2794 65.0379 58.4774 65.0379C57.6754 65.0379 57.025 65.6974 57.025 66.5107V73.269H4.44893C3.64809 73.269 2.99655 72.6083 2.99655 71.7962V30.5571C2.99655 29.745 3.64809 29.0843 4.44893 29.0843H34.61C35.412 29.0843 36.0624 28.4248 36.0624 27.6115C36.0624 26.7982 35.412 26.1386 34.61 26.1386H4.44893C2.04641 26.1386 0.0917969 28.1208 0.0917969 30.5571V71.7962C0.0917969 74.2326 2.04641 76.2147 4.44893 76.2147H62.2536C64.6561 76.2147 66.6107 74.2326 66.6107 71.7962V35.878C66.6107 35.0645 65.9603 34.4052 65.1583 34.4052Z" fill="#FF5C28"/>
<path d="M42.1235 26.57C41.8535 26.2962 41.4801 26.1386 41.0968 26.1386C40.7148 26.1386 40.3401 26.296 40.07 26.57C39.7998 26.8439 39.6444 27.2236 39.6444 27.6107C39.6444 27.9979 39.7997 28.3777 40.07 28.6513C40.3401 28.9253 40.7148 29.0828 41.0968 29.0828C41.4802 29.0828 41.8535 28.9253 42.1235 28.6513C42.3951 28.3777 42.5492 27.9979 42.5492 27.6107C42.5492 27.2236 42.3951 26.8438 42.1235 26.57Z" fill="#FF5C28"/>
<path d="M28.9321 38.9077C26.7261 38.9077 24.5793 39.6903 22.8597 41.0909C21.1402 39.6903 18.9936 38.9077 16.7875 38.9077C11.3775 38.9077 6.97607 43.4688 6.97607 49.0749C6.97607 49.8216 7.11826 50.6246 7.39828 51.4811H6.04655C5.24454 51.4811 4.59417 52.1406 4.59417 52.9539C4.59417 53.7672 5.24454 54.4267 6.04655 54.4267H8.78268C10.0587 56.5678 12.0065 58.9635 14.6202 61.599C18.2533 65.2623 21.8274 68.0431 21.9778 68.1598C22.2381 68.3616 22.5491 68.4626 22.8599 68.4626C23.1707 68.4626 23.4816 68.3616 23.7419 68.1598C23.8924 68.0431 27.4665 65.2623 31.0995 61.599C36.1716 56.4845 38.7434 52.2708 38.7434 49.0749C38.7434 43.4688 34.3421 38.9077 28.9321 38.9077ZM29.0721 59.4895C26.619 61.9653 24.1375 64.0663 22.86 65.1116C21.587 64.0706 19.1187 61.9808 16.6687 59.5103C14.6856 57.5107 13.2711 55.8299 12.2642 54.4267H14.8487C15.4399 54.4267 15.9721 54.0633 16.1946 53.5077L17.4345 50.4087L21.0226 58.9649C21.2336 59.4684 21.7027 59.8117 22.2404 59.8565C22.2802 59.8598 22.3199 59.8614 22.3594 59.8614C22.8535 59.8614 23.3174 59.6058 23.585 59.1781L26.5604 54.4267H29.083C29.885 54.4267 30.5354 53.7672 30.5354 52.9539C30.5354 52.1406 29.885 51.4811 29.083 51.4811H25.7623C25.2653 51.4811 24.8027 51.7388 24.5363 52.1643L22.6143 55.2336L18.7395 45.9939C18.5114 45.4499 17.9851 45.0973 17.4031 45.0973C17.3991 45.0973 17.3948 45.0973 17.3909 45.0973C16.804 45.1023 16.2778 45.465 16.0571 46.0164L13.8705 51.4812H10.5103C10.0133 50.3747 9.88112 49.591 9.88112 49.0749C9.88112 45.0929 12.9793 41.8534 16.7878 41.8534C18.6976 41.8534 20.4751 42.651 21.7925 44.0991C22.0674 44.4014 22.4545 44.5733 22.86 44.5733C23.2655 44.5733 23.6526 44.4014 23.9275 44.0992C25.2451 42.651 27.0225 41.8534 28.9324 41.8534C32.7407 41.8534 35.8389 45.0929 35.8389 49.0749C35.8389 50.4139 34.9598 53.5473 29.0721 59.4895Z" fill="#FF5C28"/>
<path d="M46.0696 61.9072C45.7981 61.6335 45.4249 61.4773 45.0429 61.4773C44.6593 61.4773 44.2846 61.6335 44.0146 61.9072C43.7445 62.1824 43.5905 62.5609 43.5905 62.9494C43.5905 63.3365 43.7445 63.7163 44.0146 63.9901C44.2862 64.2639 44.6593 64.4214 45.0429 64.4214C45.4249 64.4214 45.7981 64.2641 46.0696 63.9901C46.3397 63.7163 46.4953 63.3365 46.4953 62.9494C46.4953 62.5608 46.3399 62.1824 46.0696 61.9072Z" fill="#FF5C28"/>
</svg>
