<svg width="17" height="11" viewBox="0 0 17 11" fill="none" xmlns="http://www.w3.org/2000/svg">
<path d="M14.6289 5.42568V3.82568H13.6289V5.42568H11.6289V6.22568H13.6289V7.82568H14.6289V6.22568H16.6289V5.42568H14.6289Z" fill="white"/>
<path d="M5.62891 4.82617V6.82617H8.45791C8.04491 7.99017 6.93291 8.82617 5.62891 8.82617C3.97491 8.82617 2.62891 7.48017 2.62891 5.82617C2.62891 4.17217 3.97491 2.82617 5.62891 2.82617C6.34591 2.82617 7.03591 3.08317 7.57191 3.55017L8.88591 2.04217C7.98591 1.25817 6.82991 0.826172 5.62891 0.826172C2.87191 0.826172 0.628906 3.06917 0.628906 5.82617C0.628906 8.58317 2.87191 10.8262 5.62891 10.8262C8.38591 10.8262 10.6289 8.58317 10.6289 5.82617V4.82617H5.62891Z" fill="white"/>
</svg>
