<svg width="17" height="17" viewBox="0 0 17 17" fill="none" xmlns="http://www.w3.org/2000/svg">
<path d="M12.2134 0.826172H5.04423C2.60962 0.826172 0.628906 2.80698 0.628906 5.24159V12.4108C0.628906 14.8455 2.60962 16.8262 5.04423 16.8262H12.2134C14.6482 16.8262 16.6289 14.8454 16.6289 12.4108V5.24159C16.629 2.80698 14.6482 0.826172 12.2134 0.826172ZM15.2094 12.4108C15.2094 14.0627 13.8654 15.4066 12.2135 15.4066H5.04423C3.39239 15.4067 2.0485 14.0627 2.0485 12.4108V5.24159C2.0485 3.58975 3.39239 2.24577 5.04423 2.24577H12.2134C13.8653 2.24577 15.2093 3.58975 15.2093 5.24159V12.4108H15.2094Z" fill="white"/>
<path d="M8.62891 4.82617C6.42327 4.82617 4.62891 6.62058 4.62891 8.82626C4.62891 11.0319 6.42327 12.8262 8.62891 12.8262C10.8345 12.8262 12.6289 11.0319 12.6289 8.82626C12.6289 6.62058 10.8345 4.82617 8.62891 4.82617ZM8.62891 11.4487C7.18282 11.4487 6.00622 10.2723 6.00622 8.82617C6.00622 7.37996 7.18273 6.20343 8.62891 6.20343C10.0751 6.20343 11.2516 7.37996 11.2516 8.82617C11.2516 10.2723 10.075 11.4487 8.62891 11.4487Z" fill="white"/>
<path d="M13.1289 3.82617C12.9975 3.82617 12.8685 3.87935 12.7757 3.97254C12.6825 4.06526 12.6289 4.19435 12.6289 4.32617C12.6289 4.45758 12.6825 4.58663 12.7757 4.67981C12.8685 4.77254 12.9975 4.82617 13.1289 4.82617C13.2607 4.82617 13.3894 4.77254 13.4825 4.67981C13.5757 4.58663 13.6289 4.45754 13.6289 4.32617C13.6289 4.19435 13.5757 4.06526 13.4825 3.97254C13.3898 3.87935 13.2607 3.82617 13.1289 3.82617Z" fill="white"/>
</svg>
