<svg width="75" height="75" viewBox="0 0 75 75" fill="none" xmlns="http://www.w3.org/2000/svg">
<path d="M70.6379 37.5733L67.265 37.1546C66.2396 34.6678 64.7664 32.3674 62.9355 30.3771L65.4153 19.963C65.5173 19.5349 65.4162 19.0842 65.1409 18.7394C64.8656 18.3945 64.4464 18.1933 64.0028 18.193L63.6805 18.1929C59.5639 18.1929 55.854 20.7604 54.3947 24.5262C53.3626 24.1196 52.3017 23.7847 51.2196 23.5309C50.4392 23.348 49.657 23.8266 49.4725 24.6004C49.2879 25.374 49.7708 26.1494 50.5513 26.3323C54.2473 27.1989 57.5444 29.0516 60.1431 31.6227C60.2381 31.7606 60.3564 31.8827 60.4955 31.9814C62.39 33.9524 63.8874 36.3172 64.8588 38.9673C65.0448 39.4751 65.5023 39.837 66.043 39.9041L70.2773 40.4296C70.9393 40.5117 71.4383 41.0724 71.4383 41.7336V48.9903C71.4383 49.6515 70.9392 50.2121 70.2773 50.2943L66.3536 50.7812C65.7892 50.8512 65.318 51.2414 65.1482 51.7796C63.9841 55.4664 61.7724 58.7266 58.7518 61.2075C58.4189 61.481 58.2262 61.8873 58.2262 62.3158V70.2715C58.2262 70.9856 57.6402 71.5665 56.92 71.5665H48.4974C47.7771 71.5665 47.1911 70.9856 47.1911 70.2715V67.2394C47.1911 66.4445 46.5409 65.8001 45.7391 65.8001H33.5403C32.7385 65.8001 32.0883 66.4445 32.0883 67.2394V70.2715C32.0883 70.9856 31.5023 71.5665 30.782 71.5665H22.3592C21.6391 71.5665 21.053 70.9856 21.053 70.2715V64.654C21.053 64.1262 20.7616 63.6408 20.2938 63.3891C13.7769 59.8817 9.72835 53.1412 9.72835 45.798C9.72835 34.7687 18.7802 25.7957 29.9066 25.7957H31.726C32.5278 25.7957 33.178 25.1513 33.178 24.3564C33.178 23.5614 32.5278 22.917 31.726 22.917H29.9066C19.1281 22.917 10.0524 30.2788 7.52524 40.1962H6.46137C4.49973 40.1962 2.90399 38.6143 2.90399 36.6699C2.90399 34.7255 4.49973 33.1435 6.46137 33.1435C7.26316 33.1435 7.91336 32.4991 7.91336 31.7042C7.91336 30.9092 7.26316 30.2648 6.46137 30.2648C2.89861 30.2648 0 33.138 0 36.6699C0 40.2017 2.89861 43.0749 6.46137 43.0749H6.98859C6.88114 43.9682 6.82437 44.8765 6.82437 45.798C6.82437 53.9085 11.1417 61.3762 18.1489 65.4919V70.2717C18.1489 72.573 20.0376 74.4453 22.3591 74.4453H30.7817C33.1033 74.4453 34.992 72.573 34.992 70.2717V68.6789H44.2868V70.2717C44.2868 72.573 46.1756 74.4453 48.4971 74.4453H56.9197C59.2412 74.4453 61.1299 72.573 61.1299 70.2717V62.9794C64.078 60.4092 66.3028 57.1671 67.6195 53.5253L70.6377 53.1507C72.7495 52.8887 74.342 51.1001 74.342 48.9903V41.7336C74.342 39.624 72.7496 37.8353 70.6379 37.5733ZM60.497 28.0867C59.4138 27.2084 58.2537 26.4303 57.0334 25.7622C57.8356 23.4772 59.7923 21.7771 62.1258 21.2463L60.497 28.0867Z" fill="#FF5C28"/>
<path d="M57.7987 37.3005C57.5288 37.0327 57.1542 36.8787 56.7723 36.8787C56.3904 36.8787 56.0158 37.0327 55.7457 37.3005C55.4757 37.5684 55.3203 37.9399 55.3203 38.3185C55.3203 38.6972 55.4755 39.0687 55.7457 39.3365C56.016 39.6044 56.3904 39.7584 56.7723 39.7584C57.1542 39.7584 57.5288 39.6044 57.7987 39.3365C58.0688 39.0687 58.2243 38.6972 58.2243 38.3185C58.2243 37.9399 58.0688 37.5684 57.7987 37.3005Z" fill="#FF5C28"/>
<path d="M42.5789 9.14783C41.7772 9.14783 41.127 9.79223 41.127 10.5872V16.2965C41.127 17.0914 41.7772 17.7358 42.5789 17.7358C43.3807 17.7358 44.0309 17.0914 44.0309 16.2965V10.5872C44.0309 9.79238 43.3809 9.14783 42.5789 9.14783Z" fill="#FF5C28"/>
<path d="M43.6054 4.34735C43.3354 4.07965 42.9608 3.92566 42.5789 3.92566C42.1969 3.92566 41.8225 4.07965 41.5524 4.34735C41.2823 4.61504 41.127 4.98636 41.127 5.36487C41.127 5.74482 41.2822 6.1147 41.5524 6.38239C41.8225 6.65008 42.1969 6.80408 42.5789 6.80408C42.9608 6.80408 43.3354 6.65008 43.6054 6.38239C43.8754 6.1147 44.0309 5.74338 44.0309 5.36487C44.0309 4.98636 43.8754 4.61648 43.6054 4.34735Z" fill="#FF5C28"/>
<path d="M30.7821 0.751953C29.9803 0.751953 29.3301 1.39636 29.3301 2.19133V4.63826C29.3301 5.43323 29.9803 6.07764 30.7821 6.07764C31.5839 6.07764 32.2341 5.43323 32.2341 4.63826V2.19133C32.2341 1.39636 31.584 0.751953 30.7821 0.751953Z" fill="#FF5C28"/>
<path d="M16.5446 45.7989C16.5446 45.0037 15.8944 44.359 15.0926 44.359C14.2908 44.359 13.6406 45.0037 13.6406 45.7989L13.6408 45.8754C13.6457 46.6675 14.2949 47.3064 15.0926 47.3064C15.0955 47.3064 15.0986 47.3064 15.1018 47.3064C15.9036 47.3014 16.5497 46.6527 16.5448 45.8574L16.5446 45.7989Z" fill="#FF5C28"/>
<path d="M22.971 57.123C20.447 55.6004 18.4767 53.261 17.4235 50.5359C17.1364 49.7934 16.2967 49.4222 15.5481 49.7069C14.7993 49.9913 14.4248 50.8235 14.7117 51.5659C15.9938 54.8831 18.3909 57.73 21.4615 59.5821C21.6973 59.7243 21.9576 59.7921 22.2148 59.7921C22.7048 59.7921 23.1832 59.5461 23.4566 59.1008C23.8735 58.4217 23.6559 57.5363 22.971 57.123Z" fill="#FF5C28"/>
<path d="M30.782 7.66809C27.4193 7.66809 24.6836 10.3799 24.6836 13.7133C24.6836 17.0466 27.4193 19.7584 30.782 19.7584C34.1447 19.7584 36.8804 17.0466 36.8804 13.7133C36.8804 10.3799 34.1447 7.66809 30.782 7.66809ZM30.782 16.8798C29.0206 16.8798 27.5876 15.4593 27.5876 13.7133C27.5876 11.9672 29.0206 10.5467 30.782 10.5467C32.5434 10.5467 33.9764 11.9672 33.9764 13.7133C33.9764 15.4593 32.5434 16.8798 30.782 16.8798Z" fill="#FF5C28"/>
<path d="M49.0779 31.2655H47.7711C48.3452 30.3439 48.6775 29.2593 48.6775 28.0989C48.6775 24.7656 45.9417 22.0537 42.5791 22.0537C39.2164 22.0537 36.4807 24.7656 36.4807 28.0989C36.4806 29.2593 36.8128 30.3439 37.3869 31.2655H30.202C29.4002 31.2655 28.75 31.9099 28.75 32.7048C28.75 33.4998 29.4002 34.1442 30.202 34.1442H49.0779C49.8797 34.1442 50.5299 33.4998 50.5299 32.7048C50.5299 31.9099 49.8799 31.2655 49.0779 31.2655ZM42.5791 31.2655C40.8177 31.2655 39.3847 29.845 39.3847 28.0989C39.3847 26.3529 40.8177 24.9324 42.5791 24.9324C44.3405 24.9324 45.7735 26.3529 45.7735 28.0989C45.7735 29.845 44.3403 31.2655 42.5791 31.2655Z" fill="#FF5C28"/>
</svg>
