<svg width="80" height="80" viewBox="0 0 80 80" fill="none" xmlns="http://www.w3.org/2000/svg">
<circle cx="39.6162" cy="40.1211" r="39.1162" stroke="#FF5C28"/>
<path d="M45.7738 49.6104H35.0863V48.5322L40.9339 41.8994C41.9027 40.7822 42.5745 39.8604 42.9495 39.1338C43.3245 38.4072 43.512 37.7002 43.512 37.0127C43.512 35.9346 43.1956 35.083 42.5628 34.458C41.93 33.8252 41.0589 33.5088 39.9495 33.5088C38.8011 33.5088 37.8714 33.876 37.1605 34.6104C36.4574 35.3447 36.1058 36.2979 36.1058 37.4697H34.7113C34.7113 36.5088 34.9261 35.6338 35.3558 34.8447C35.7933 34.0557 36.4105 33.4385 37.2074 32.9932C38.012 32.54 38.9261 32.3135 39.9495 32.3135C41.512 32.3135 42.7308 32.7236 43.6058 33.5439C44.4886 34.3643 44.93 35.4814 44.93 36.8955C44.93 37.6924 44.68 38.5635 44.18 39.5088C43.6878 40.4541 42.8167 41.6338 41.5667 43.0479L36.8089 48.4268H45.7738V49.6104Z" fill="#FF5C28"/>
</svg>
