<svg width="27" height="27" viewBox="0 0 27 27" fill="none" xmlns="http://www.w3.org/2000/svg">
<path d="M0.696777 13.4489C0.696777 13.9268 1.08407 14.3141 1.5619 14.3141H18.0394L14.8254 17.5231C14.4884 17.86 14.4884 18.4083 14.8254 18.7453C14.9914 18.9113 15.2127 18.9968 15.434 18.9968C15.6553 18.9968 15.8766 18.9113 16.0426 18.7453L20.7253 14.0626C21.0623 13.7256 21.0623 13.1773 20.7253 12.8403L16.0426 8.15761C15.7056 7.82061 15.1574 7.82061 14.8204 8.15761C14.4834 8.4946 14.4834 9.04285 14.8204 9.37985L18.0294 12.5888H1.5619C1.08407 12.5888 0.696777 12.9711 0.696777 13.4489Z" fill="#FF5C28"/>
<path d="M20.6348 25.7518C23.4867 25.7518 25.8004 23.4331 25.8004 20.5812V6.31172C25.8004 3.45984 23.4817 1.14111 20.6348 1.14111H6.36534C3.51345 1.14111 1.19975 3.45984 1.19975 6.31172V9.24408C1.19975 9.72191 1.58705 10.1042 2.05985 10.1042C2.53768 10.1042 2.92497 9.71688 2.92497 9.24408V6.31172C2.92497 4.4155 4.46911 2.86633 6.36534 2.86633H20.6348C22.531 2.86633 24.0752 4.41047 24.0752 6.31172V20.5812C24.0752 22.4774 22.531 24.0266 20.6348 24.0266H6.36534C4.46911 24.0266 2.92497 22.4825 2.92497 20.5812V17.684C2.92497 17.2062 2.53768 16.8189 2.05985 16.8189C1.58202 16.8189 1.19975 17.2062 1.19975 17.684V20.5812C1.19975 23.4331 3.51848 25.7518 6.36534 25.7518H20.6348Z" fill="#FF5C28"/>
<path d="M18.0394 14.3141L18.3044 14.5794L18.9458 13.9391H18.0394V14.3141ZM14.8254 17.5231L14.5605 17.2577L14.5603 17.2579L14.8254 17.5231ZM14.8254 18.7453L15.0906 18.4801L14.8254 18.7453ZM16.0426 18.7453L15.7775 18.4801L16.0426 18.7453ZM20.7253 14.0626L20.9905 14.3277L20.7253 14.0626ZM20.7253 12.8403L20.9905 12.5752L20.7253 12.8403ZM16.0426 8.15761L15.7775 8.42277L16.0426 8.15761ZM14.8204 9.37985L14.5552 9.64501L14.8204 9.37985ZM18.0294 12.5888V12.9638H18.9347L18.2946 12.3237L18.0294 12.5888ZM1.5619 12.5888V12.9638V12.5888ZM25.8004 6.31172H25.4254H25.8004ZM0.321777 13.4489C0.321777 14.1339 0.876964 14.6891 1.5619 14.6891V13.9391C1.29118 13.9391 1.07178 13.7197 1.07178 13.4489H0.321777ZM1.5619 14.6891H18.0394V13.9391H1.5619V14.6891ZM17.7745 14.0487L14.5605 17.2577L15.0904 17.7884L18.3044 14.5794L17.7745 14.0487ZM14.5603 17.2579C14.0768 17.7413 14.0768 18.527 14.5603 19.0105L15.0906 18.4801C14.9 18.2896 14.9 17.9788 15.0906 17.7882L14.5603 17.2579ZM14.5603 19.0105C14.7992 19.2494 15.1171 19.3718 15.434 19.3718V18.6218C15.3084 18.6218 15.1836 18.5731 15.0906 18.4801L14.5603 19.0105ZM15.434 19.3718C15.751 19.3718 16.0688 19.2494 16.3078 19.0105L15.7775 18.4801C15.6845 18.5731 15.5597 18.6218 15.434 18.6218V19.3718ZM16.3078 19.0105L20.9905 14.3277L20.4602 13.7974L15.7775 18.4801L16.3078 19.0105ZM20.9905 14.3277C21.474 13.8443 21.474 13.0586 20.9905 12.5752L20.4602 13.1055C20.6507 13.296 20.6507 13.6069 20.4602 13.7974L20.9905 14.3277ZM20.9905 12.5752L16.3078 7.89244L15.7775 8.42277L20.4602 13.1055L20.9905 12.5752ZM16.3078 7.89244C15.8243 7.409 15.0387 7.409 14.5552 7.89244L15.0856 8.42277C15.2761 8.23223 15.5869 8.23223 15.7775 8.42277L16.3078 7.89244ZM14.5552 7.89244C14.0718 8.37589 14.0718 9.16157 14.5552 9.64501L15.0856 9.11468C14.895 8.92413 14.895 8.61332 15.0856 8.42277L14.5552 7.89244ZM14.5552 9.64501L17.7642 12.854L18.2946 12.3237L15.0856 9.11468L14.5552 9.64501ZM18.0294 12.2138H1.5619V12.9638H18.0294V12.2138ZM1.5619 12.2138C0.87982 12.2138 0.321777 12.7612 0.321777 13.4489H1.07178C1.07178 13.1811 1.28832 12.9638 1.5619 12.9638V12.2138ZM20.6348 26.1268C23.6943 26.1268 26.1754 23.6397 26.1754 20.5812H25.4254C25.4254 23.2265 23.2791 25.3768 20.6348 25.3768V26.1268ZM26.1754 20.5812V6.31172H25.4254V20.5812H26.1754ZM26.1754 6.31172C26.1754 3.25297 23.689 0.766113 20.6348 0.766113V1.51611C23.2743 1.51611 25.4254 3.66671 25.4254 6.31172H26.1754ZM20.6348 0.766113H6.36534V1.51611H20.6348V0.766113ZM6.36534 0.766113C3.30587 0.766113 0.824755 3.25321 0.824755 6.31172H1.57475C1.57475 3.66647 3.72103 1.51611 6.36534 1.51611V0.766113ZM0.824755 6.31172V9.24408H1.57475V6.31172H0.824755ZM0.824755 9.24408C0.824755 9.93045 1.38137 10.4792 2.05985 10.4792V9.72918C1.79272 9.72918 1.57475 9.51338 1.57475 9.24408H0.824755ZM2.05985 10.4792C2.74336 10.4792 3.29997 9.92541 3.29997 9.24408H2.54997C2.54997 9.50835 2.33199 9.72918 2.05985 9.72918V10.4792ZM3.29997 9.24408V6.31172H2.54997V9.24408H3.29997ZM3.29997 6.31172C3.29997 4.62189 4.67693 3.24133 6.36534 3.24133V2.49133C4.26129 2.49133 2.54997 4.2091 2.54997 6.31172H3.29997ZM6.36534 3.24133H20.6348V2.49133H6.36534V3.24133ZM20.6348 3.24133C22.3236 3.24133 23.7002 4.61722 23.7002 6.31172H24.4502C24.4502 4.20372 22.7385 2.49133 20.6348 2.49133V3.24133ZM23.7002 6.31172V20.5812H24.4502V6.31172H23.7002ZM23.7002 20.5812C23.7002 22.271 22.3232 23.6516 20.6348 23.6516V24.4016C22.7389 24.4016 24.4502 22.6838 24.4502 20.5812H23.7002ZM20.6348 23.6516H6.36534V24.4016H20.6348V23.6516ZM6.36534 23.6516C4.67657 23.6516 3.29997 22.2757 3.29997 20.5812H2.54997C2.54997 22.6892 4.26165 24.4016 6.36534 24.4016V23.6516ZM3.29997 20.5812V17.684H2.54997V20.5812H3.29997ZM3.29997 17.684C3.29997 16.9991 2.74478 16.4439 2.05985 16.4439V17.1939C2.33057 17.1939 2.54997 17.4133 2.54997 17.684H3.29997ZM2.05985 16.4439C1.37207 16.4439 0.824755 17.002 0.824755 17.684H1.57475C1.57475 17.4105 1.79197 17.1939 2.05985 17.1939V16.4439ZM0.824755 17.684V20.5812H1.57475V17.684H0.824755ZM0.824755 20.5812C0.824755 23.64 3.31114 26.1268 6.36534 26.1268V25.3768C3.72583 25.3768 1.57475 23.2262 1.57475 20.5812H0.824755ZM6.36534 26.1268H20.6348V25.3768H6.36534V26.1268Z" fill="white"/>
</svg>
