<svg width="17" height="17" viewBox="0 0 17 17" fill="none" xmlns="http://www.w3.org/2000/svg">
<path d="M13.7477 0.35437H0.673828V16.608H16.5958V3.20241L13.7477 0.35437ZM12.2836 1.01779V5.66169H4.32261V1.01779H12.2836ZM3.65919 15.9446V9.64218H13.2787V15.9446H3.65919ZM15.9324 15.9446H13.9421V8.97876H2.99578V15.9446H1.33724V1.01779H3.65919V6.3251H12.947V1.01779H13.4731L15.9324 3.47706V15.9446Z" fill="white"/>
<path d="M4.98603 11.3007H7.30798C7.49141 11.3007 7.63969 11.1524 7.63969 10.969C7.63969 10.7856 7.49141 10.6373 7.30798 10.6373H4.98603C4.80259 10.6373 4.65432 10.7856 4.65432 10.969C4.65432 11.1524 4.80259 11.3007 4.98603 11.3007Z" fill="white"/>
<path d="M8.3031 11.9641H4.98602C4.80259 11.9641 4.65432 12.1124 4.65432 12.2958C4.65432 12.4793 4.80259 12.6275 4.98602 12.6275H8.3031C8.48653 12.6275 8.63481 12.4793 8.63481 12.2958C8.63481 12.1124 8.48653 11.9641 8.3031 11.9641Z" fill="white"/>
<path d="M9.06271 12.0603C9.00267 12.123 8.96651 12.2096 8.96651 12.2958C8.96651 12.3821 9.00267 12.4683 9.06271 12.5313C9.1254 12.591 9.20833 12.6275 9.29822 12.6275C9.38447 12.6275 9.47071 12.591 9.53373 12.5313C9.59344 12.4683 9.62993 12.3821 9.62993 12.2958C9.62993 12.2096 9.59344 12.123 9.53373 12.0603C9.411 11.9376 9.18544 11.9376 9.06271 12.0603Z" fill="white"/>
<path d="M11.6202 1.6812H9.62993V4.99827H11.6202V1.6812ZM10.9568 4.33486H10.2933V2.34461H10.9568V4.33486Z" fill="white"/>
</svg>
