<svg width="23" height="23" viewBox="0 0 23 23" fill="none" xmlns="http://www.w3.org/2000/svg">
<path d="M22.5087 21.6781L16.0989 15.1446C17.7338 13.5376 18.7467 11.3221 18.7467 8.87875C18.7467 3.98276 14.6831 0 9.68779 0C4.69246 0 0.628906 3.98276 0.628906 8.87875C0.628906 13.7748 4.69246 17.7575 9.68779 17.7575C11.8805 17.7575 13.8928 16.9893 15.4613 15.7145L21.8866 22.2641C21.9712 22.3508 22.0842 22.3939 22.1977 22.3939C22.3055 22.3939 22.4129 22.3546 22.4966 22.2759C22.6683 22.114 22.6735 21.8464 22.5087 21.6781ZM9.68779 16.9119C5.16827 16.9119 1.49166 13.3084 1.49166 8.87875C1.49166 4.4491 5.16827 0.845596 9.68779 0.845596C14.2073 0.845596 17.8839 4.4491 17.8839 8.87875C17.8839 13.3084 14.2069 16.9119 9.68779 16.9119Z" fill="#FF5C28"/>
</svg>
