<svg width="53" height="76" viewBox="0 0 53 76" fill="none" xmlns="http://www.w3.org/2000/svg">
<path d="M50.4058 37.377C50.3709 37.2299 50.3142 37.0916 50.2388 36.9654C49.6267 35.4951 48.8806 34.0779 48.0042 32.7371L47.196 31.5005C47.1543 31.4367 47.1073 31.3787 47.058 31.3236C47.3002 30.7929 47.4363 30.2038 47.4363 29.5832C47.4363 26.1316 44.6362 23.3237 41.1944 23.3237H37.7383C38.5719 22.1632 39.0648 20.7411 39.0648 19.2049C39.0648 17.102 38.1701 15.0899 36.6099 13.6845L22.4219 0.904515C21.8184 0.361044 20.8899 0.410678 20.3478 1.01601C19.8059 1.62104 19.8555 2.55231 20.459 3.09593L34.6468 15.8758C35.5877 16.7232 36.1273 17.9367 36.1273 19.2049C36.1273 21.4759 34.2848 23.3235 32.0202 23.3235H31.8681C31.7857 23.3235 31.7036 23.3304 31.6225 23.3443L16.9832 25.8348C16.971 25.8369 16.9457 25.8412 16.9165 25.8166C16.8874 25.792 16.8874 25.7662 16.8874 25.7538V9.92084C16.8874 9.1074 16.2299 8.44802 15.4187 8.44802C14.6076 8.44802 13.9501 9.1074 13.9501 9.92084V25.7537C13.9501 26.6471 14.3404 27.4903 15.021 28.0667C15.7016 28.6434 16.596 28.888 17.4743 28.7388L31.9919 26.2692H41.1944C43.0166 26.2692 44.4989 27.7557 44.4989 29.583C44.4989 30.2733 43.9389 30.8349 43.2505 30.8349H32.1619C31.9704 30.8349 31.7807 30.8725 31.6035 30.9455L15.8363 37.446C13.5294 38.3971 10.8962 38.3665 8.61181 37.362C5.25248 35.8849 3.08191 32.5537 3.08191 28.8753V6.53335C3.08191 5.71991 2.42438 5.06052 1.61322 5.06052C0.802063 5.06052 0.144531 5.71991 0.144531 6.53335V28.8753C0.144531 33.3293 2.56052 37.3955 6.38646 39.5365V45.1777C6.38646 46.3502 6.19935 47.5089 5.83041 48.6215C3.14756 56.7117 2.92388 65.3321 5.18316 73.5512L5.53242 74.8219C5.71204 75.4751 6.30304 75.9037 6.9475 75.9037C7.07674 75.9037 7.20804 75.8865 7.33876 75.8504C8.12068 75.6342 8.5798 74.8233 8.36434 74.0391L8.01509 72.7684C5.9109 65.114 6.1193 57.0856 8.61784 49.5511C9.08635 48.1382 9.32398 46.6669 9.32398 45.1778V40.7071C10.3062 40.9557 11.3151 41.0824 12.3244 41.0824C13.9009 41.0824 15.4778 40.7787 16.9534 40.1704L32.452 33.7806H43.2504C43.8514 33.7806 44.4227 33.6518 44.9398 33.4222L45.5474 34.3519C46.3154 35.5269 46.9644 36.7487 47.498 38.0021C47.3526 39.9807 45.7019 41.5463 43.6925 41.5463C40.4718 41.5463 37.7722 43.819 37.1003 46.8486C37.008 46.8483 36.9158 46.8505 36.8233 46.8579C35.9604 46.9267 34.676 47.3628 33.4578 49.0499C33.2668 49.3144 32.8935 49.4352 32.442 49.4632C33.5143 48.2606 34.1677 46.675 34.1677 44.9385C34.1677 41.1909 31.1273 38.1419 27.3902 38.1419C23.6531 38.1419 20.6128 41.1909 20.6128 44.9385C20.6128 46.1365 20.9246 47.2623 21.4694 48.2407C21.4524 48.2957 21.4374 48.3518 21.4267 48.4098C21.4104 48.4977 21.0328 50.5914 21.5483 53.0876C22.2523 56.4969 24.2576 59.0521 27.3474 60.4768C29.5835 61.5078 31.5455 61.9347 33.23 61.9346C36.6047 61.9344 38.8628 60.2195 39.9633 58.211C40.061 58.3384 40.1472 58.479 40.1808 58.5736C40.4597 59.5773 41.4933 60.1497 42.7582 59.9984C44.3479 59.808 46.0898 58.5163 46.1578 56.1303C46.2132 54.185 45.0227 51.9941 43.1952 50.6784C42.3176 50.0467 41.3881 49.69 40.468 49.6144C40.3549 49.0668 40.1409 48.5919 39.8775 48.2297C39.9256 46.1605 41.6178 44.4918 43.6925 44.4918C45.7391 44.4918 47.5748 43.5729 48.8145 42.1265C50.4119 49.4361 48.397 57.2475 42.9992 62.961C41.1249 64.9449 40.0927 67.5425 40.0927 70.2753V74.4305C40.0927 75.2439 40.7502 75.9033 41.5614 75.9033C42.3726 75.9033 43.0301 75.2439 43.0301 74.4305V70.2755C43.0301 68.2995 43.7765 66.4214 45.1315 64.9869C49.1442 60.7394 51.64 55.1905 52.1592 49.3627C52.5228 45.2804 51.9064 41.1609 50.4058 37.377ZM27.3903 41.0877C29.5077 41.0877 31.2305 42.8151 31.2305 44.9387C31.2305 47.062 29.5079 48.7895 27.3903 48.7895C25.2729 48.7895 23.5503 47.062 23.5503 44.9387C23.5503 42.8151 25.2729 41.0877 27.3903 41.0877ZM40.0548 52.5492C40.6319 52.5355 41.1741 52.8496 41.4822 53.0714C42.4846 53.7931 43.2488 55.0998 43.2218 56.0464C43.2116 56.403 43.1081 56.6639 42.905 56.8444C42.8293 56.9117 42.7484 56.9609 42.6717 56.9962C42.2041 56.1588 41.3208 55.1547 40.0945 55.0244C39.5837 54.9703 38.3019 55.0254 37.4342 56.7075C36.3912 58.7297 33.5161 60.0787 28.5745 57.8004C25.0937 56.1954 24.3225 53.0249 24.2196 50.9429C25.1663 51.4477 26.2453 51.735 27.3903 51.735C27.7744 51.735 28.1507 51.7011 28.5175 51.6393C29.2321 51.9346 33.7596 53.6544 35.837 50.7775C36.2622 50.1887 36.718 49.8212 37.0562 49.7943C37.2521 49.7794 37.4138 49.8859 37.5213 49.9874C37.5796 50.0879 37.7121 50.4794 37.5138 51.0272C37.06 52.281 35.2525 53.4248 32.555 54.1656C31.7726 54.3805 31.3122 55.1905 31.5263 55.9751C31.705 56.6295 32.2966 57.0592 32.942 57.0592C33.0705 57.0592 33.2009 57.0422 33.3307 57.0067C37.4933 55.8636 39.3004 54.0874 40.0548 52.5492Z" fill="#FF5C28"/>
</svg>
