<svg width="15" height="16" viewBox="0 0 15 16" fill="none" xmlns="http://www.w3.org/2000/svg">
<path d="M14.3706 1.34164C14.1426 1.01398 13.7891 0.826172 13.4003 0.826172C13.1492 0.826172 12.8891 0.90303 12.627 1.05443L1.46575 7.49143C0.67246 7.94968 0.617297 8.63967 0.630431 8.91474C0.64304 9.19155 0.764397 9.87055 1.59656 10.234L3.02291 10.8547C3.29347 10.9726 3.59607 11.0332 3.92179 11.0332C3.97328 11.0332 4.02266 11.0257 4.07362 11.0228C4.05418 11.0506 4.03054 11.072 4.01268 11.1009C3.74685 11.5383 3.73372 12.1312 3.97433 12.7698C3.97801 12.7808 3.98168 12.79 3.98536 12.7992C4.40722 13.8273 4.87637 14.9877 4.93311 15.1489C5.07285 15.5499 5.42904 15.8262 5.81991 15.8262C6.42197 15.8262 6.60059 15.5072 7.58563 13.7435C7.66234 13.6141 7.83308 13.3136 7.86197 12.931C7.97703 12.9824 8.08525 13.0298 8.17771 13.0708L9.75799 13.7793C10.0748 13.9215 10.3522 14.0469 10.4982 14.1133C10.5434 14.144 10.5912 14.17 10.6411 14.1925C10.7525 14.2411 10.8712 14.2659 10.9905 14.2659C11.7092 14.2659 11.8815 13.5811 11.9739 13.2142C12.0196 13.0327 12.0827 12.7813 12.1505 12.5039L14.5608 2.76207C14.7426 2.02643 14.5193 1.55661 14.3706 1.34164ZM6.78972 13.1887C6.78972 13.1887 5.89556 14.79 5.81938 14.79C5.81728 14.79 5.81623 14.7889 5.81518 14.7866C5.72745 14.5271 4.8438 12.3733 4.8438 12.3733C4.68093 11.9417 4.71036 11.5718 4.99037 11.5718C5.05184 11.5718 5.12539 11.5897 5.21155 11.629L5.89766 12.0214C6.01219 12.1075 6.13723 12.1821 6.27487 12.2416L6.30954 12.256L6.37416 12.2919C6.90425 12.6005 7.07289 12.712 6.78972 13.1887ZM13.6519 2.48931L11.2426 12.2312C11.1066 12.7802 10.9931 13.2292 10.991 13.2292C10.9889 13.228 10.9863 13.2176 10.9863 13.2159C10.9863 13.2124 10.5933 13.0356 10.1131 12.8195L8.5318 12.111C8.05163 11.8972 7.26412 11.551 6.78131 11.3465L6.70146 11.3112L6.40621 11.1425C6.11358 10.8957 6.08784 10.4889 6.38204 10.1439L11.2742 4.38186C11.4707 4.15129 11.5447 4.03224 11.5022 4.03224C11.4686 4.03224 11.3598 4.1091 11.178 4.26571L4.98827 9.63651C4.71824 9.86824 4.30793 9.99769 3.92232 9.99769C3.72479 9.99769 3.53303 9.96301 3.36964 9.89194L1.94435 9.27187C1.4626 9.0621 1.44421 8.67492 1.90285 8.4091L13.0651 1.97095C13.1938 1.89698 13.3068 1.86231 13.4003 1.86231C13.6404 1.86231 13.7497 2.09346 13.6519 2.48931Z" fill="white"/>
</svg>
