<svg width="17" height="15" viewBox="0 0 17 15" fill="none" xmlns="http://www.w3.org/2000/svg">
<path d="M16.6102 2.49277C16.5873 2.46372 16.5494 2.45386 16.5171 2.46971C16.0388 2.69767 15.5356 2.86156 15.0172 2.95838C15.5675 2.51372 15.9775 1.89795 16.1878 1.19187C16.1979 1.15808 16.1874 1.12111 16.1617 1.0991C16.1358 1.0771 16.0999 1.07428 16.0716 1.09242C15.4518 1.48726 14.7806 1.76557 14.0756 1.91995C13.4509 1.22356 12.5786 0.825195 11.6759 0.825195C9.83986 0.825195 8.34633 2.42957 8.34633 4.40168C8.34633 4.64021 8.3678 4.87645 8.41041 5.10582C5.86745 4.93718 3.48967 3.62572 1.87291 1.49553C1.85636 1.47371 1.83128 1.46156 1.80507 1.46438C1.77901 1.46649 1.75574 1.48233 1.74263 1.50645C1.44766 2.05004 1.29182 2.67197 1.29182 3.30464C1.29182 4.40115 1.75558 5.42638 2.54527 6.10288C2.13871 6.05042 1.74165 5.91294 1.38359 5.69941C1.3595 5.6848 1.32951 5.68497 1.30542 5.69993C1.28133 5.71472 1.26609 5.74218 1.26544 5.77211L1.26511 5.81788C1.26511 7.39268 2.23113 8.77543 3.60552 9.23452C3.24353 9.29719 2.86794 9.29297 2.49873 9.21727C2.47153 9.21182 2.44302 9.22185 2.42434 9.24438C2.40582 9.26692 2.39959 9.29842 2.40811 9.32694C2.82025 10.7088 3.96539 11.6779 5.29832 11.7986C4.18645 12.6737 2.8722 13.1347 1.48355 13.1347C1.22774 13.1347 0.970139 13.1184 0.717776 13.0865C0.681724 13.0821 0.646 13.1052 0.633546 13.1423C0.621092 13.1798 0.634365 13.2217 0.665501 13.243C2.1682 14.2783 3.90574 14.8252 5.69046 14.8252C11.5284 14.8252 15.0169 9.73112 15.0169 4.80638C15.0169 4.66925 15.0144 4.53283 15.0094 4.39675C15.6391 3.90192 16.1797 3.29619 16.6156 2.59504C16.6351 2.56371 16.633 2.52199 16.6102 2.49277Z" fill="white"/>
</svg>
