<svg width="16" height="19" viewBox="0 0 16 19" fill="none" xmlns="http://www.w3.org/2000/svg">
<path d="M15.0194 3.07678C15.2612 3.10899 15.4343 3.31227 15.4399 3.54794C15.5418 8.02438 14.5447 11.6886 12.4339 14.5338C11.2882 16.0778 9.85292 17.3274 8.13063 18.3033C8.0217 18.3651 7.88666 18.3874 7.76939 18.3628L7.7597 18.3727L7.74285 18.3564C7.7017 18.3449 7.66328 18.3274 7.62965 18.3033C5.89422 17.3435 4.45707 16.0847 3.30868 14.5338C2.99647 14.1122 2.70844 13.6726 2.44464 13.2152L2.25214 13.0284L2.22279 12.8156C0.857636 10.2599 0.215884 7.17034 0.302678 3.54794C0.32959 3.31227 0.499259 3.10936 0.741073 3.07678C1.85913 2.926 2.97011 2.66167 4.06007 2.2739C5.1531 1.88501 6.34442 1.34537 7.62965 0.633501C7.7938 0.542462 7.94836 0.543017 8.11268 0.633501C9.40688 1.34573 10.6068 1.88651 11.6912 2.2739C12.7809 2.66314 13.8924 2.9258 15.0194 3.07678Z" fill="#FF5C28"/>
</svg>
