<svg width="16" height="16" viewBox="0 0 16 16" fill="none" xmlns="http://www.w3.org/2000/svg">
<path d="M14.693 1.93261H12.5758V0.964189C12.5758 0.696422 12.3574 0.47998 12.0873 0.47998C11.8172 0.47998 11.5988 0.696422 11.5988 0.964189V1.93261H8.66779V0.964189C8.66779 0.696422 8.44894 0.47998 8.17929 0.47998C7.90964 0.47998 7.69079 0.696422 7.69079 0.964189V1.93261H4.75979V0.964189C4.75979 0.696422 4.54094 0.47998 4.27129 0.47998C4.00163 0.47998 3.78279 0.696422 3.78279 0.964189V1.93261H1.66611C0.946551 1.93261 0.363281 2.51027 0.363281 3.22351V14.6833C0.363281 15.3965 0.946551 15.9747 1.66611 15.9747H14.693C15.4125 15.9747 15.9953 15.3965 15.9953 14.6833V3.22351C15.9953 2.51027 15.4125 1.93261 14.693 1.93261ZM15.0183 14.6833C15.0183 14.8615 14.8722 15.0062 14.693 15.0062H1.66611C1.48634 15.0062 1.34028 14.8615 1.34028 14.6833V3.22351C1.34028 3.0458 1.48634 2.90103 1.66611 2.90103H3.78279V3.86944C3.78279 4.13721 4.00163 4.35365 4.27129 4.35365C4.54094 4.35365 4.75979 4.13721 4.75979 3.86944V2.90103H7.69079V3.86944C7.69079 4.13721 7.90964 4.35365 8.17929 4.35365C8.44894 4.35365 8.66779 4.13721 8.66779 3.86944V2.90103H11.5988V3.86944C11.5988 4.13721 11.8172 4.35365 12.0873 4.35365C12.3574 4.35365 12.5758 4.13721 12.5758 3.86944V2.90103H14.693C14.8722 2.90103 15.0183 3.0458 15.0183 3.22351V14.6833Z" fill="#FF5C28"/>
<path d="M5.73718 6.29053H3.7832V7.74312H5.73718V6.29053Z" fill="#FF5C28"/>
<path d="M5.73718 8.71143H3.7832V10.164H5.73718V8.71143Z" fill="#FF5C28"/>
<path d="M5.73718 11.1323H3.7832V12.5849H5.73718V11.1323Z" fill="#FF5C28"/>
<path d="M9.1571 11.1323H7.20312V12.5849H9.1571V11.1323Z" fill="#FF5C28"/>
<path d="M9.1571 8.71143H7.20312V10.164H9.1571V8.71143Z" fill="#FF5C28"/>
<path d="M9.1571 6.29053H7.20312V7.74312H9.1571V6.29053Z" fill="#FF5C28"/>
<path d="M12.576 11.1323H10.6221V12.5849H12.576V11.1323Z" fill="#FF5C28"/>
<path d="M12.576 8.71143H10.6221V10.164H12.576V8.71143Z" fill="#FF5C28"/>
<path d="M12.576 6.29053H10.6221V7.74312H12.576V6.29053Z" fill="#FF5C28"/>
</svg>
