<svg width="21" height="17" viewBox="0 0 21 17" fill="none" xmlns="http://www.w3.org/2000/svg">
<path d="M20.4386 0.449219H0.444921C0.24784 0.449219 0.0878906 0.606117 0.0878906 0.800222V16.2444C0.0878906 16.4385 0.24784 16.5954 0.444921 16.5954H20.4386C20.6357 16.5954 20.7957 16.4385 20.7957 16.2444V0.800222C20.7957 0.606117 20.6357 0.449219 20.4386 0.449219ZM20.0816 15.8934H0.801952V1.15123H20.0816V15.8934Z" fill="#FF5C28"/>
<path d="M5.79983 8.22002C6.89627 8.22002 7.78813 7.34322 7.78813 6.26564C7.78813 5.18735 6.89627 4.31055 5.79983 4.31055C4.70339 4.31055 3.81152 5.18735 3.81152 6.26529C3.81152 7.34322 4.70339 8.22002 5.79983 8.22002ZM5.79983 5.01255C6.50246 5.01255 7.07407 5.57486 7.07407 6.26529C7.07407 6.95571 6.50246 7.51802 5.79983 7.51802C5.09719 7.51802 4.52558 6.95606 4.52558 6.26564C4.52558 5.57521 5.09719 5.01255 5.79983 5.01255Z" fill="#FF5C28"/>
<path d="M2.58769 14.4896C2.67123 14.4896 2.75549 14.4608 2.82333 14.4022L8.64757 9.36107L12.3257 12.9768C12.4653 13.114 12.6909 13.114 12.8305 12.9768C12.9701 12.8395 12.9701 12.6177 12.8305 12.4804L11.1143 10.7932L14.3922 7.26417L18.4127 10.8876C18.558 11.0185 18.784 11.0087 18.9172 10.8658C19.0504 10.723 19.0407 10.5008 18.8951 10.3698L14.6107 6.50881C14.5407 6.44598 14.4475 6.41474 14.3536 6.41685C14.259 6.42106 14.1698 6.46213 14.1058 6.53092L10.6091 10.2961L8.9157 8.63133C8.78217 8.5004 8.56866 8.49374 8.42728 8.61589L2.35169 13.875C2.20352 14.0031 2.18924 14.2249 2.31956 14.3706C2.39025 14.4496 2.48879 14.4896 2.58769 14.4896Z" fill="#FF5C28"/>
</svg>
