<svg width="26" height="20" viewBox="0 0 26 20" fill="none" xmlns="http://www.w3.org/2000/svg">
<path d="M15.3352 11.4141C15.3352 10.9805 15.1945 10.627 14.9133 10.3535C14.632 10.0762 14.136 9.81445 13.425 9.56836C12.5422 9.29102 11.9231 8.96289 11.5676 8.58398C11.2121 8.20117 11.0344 7.70703 11.0344 7.10156C11.0344 6.46484 11.2297 5.94922 11.6203 5.55469C12.011 5.15625 12.5422 4.92969 13.2141 4.875V3.69141H13.8117V4.875C14.4992 4.9375 15.0305 5.19531 15.4055 5.64844C15.7844 6.10156 15.9738 6.7168 15.9738 7.49414H15.2766C15.2766 6.88086 15.1164 6.39453 14.7961 6.03516C14.4797 5.67188 14.0461 5.49023 13.4953 5.49023C12.9406 5.49023 12.507 5.63672 12.1945 5.92969C11.886 6.21875 11.7317 6.60547 11.7317 7.08984C11.7317 7.55859 11.8742 7.92578 12.1594 8.19141C12.4445 8.45312 12.9289 8.70117 13.6125 8.93555C14.3 9.16602 14.7981 9.38867 15.1067 9.60352C15.4192 9.81445 15.6516 10.0664 15.8039 10.3594C15.9602 10.6484 16.0383 10.9961 16.0383 11.4023C16.0383 12.043 15.8371 12.5605 15.4348 12.9551C15.0363 13.3457 14.4875 13.5684 13.7883 13.623V14.7363H13.1965V13.6289C12.4113 13.5781 11.8039 13.332 11.3742 12.8906C10.9445 12.4453 10.7297 11.8379 10.7297 11.0684H11.4328C11.4328 11.6777 11.6106 12.1562 11.966 12.5039C12.3215 12.8477 12.8176 13.0195 13.4543 13.0195C14.009 13.0195 14.4602 12.8711 14.8078 12.5742C15.1594 12.2773 15.3352 11.8906 15.3352 11.4141Z" fill="#FF5C28"/>
<path d="M13.3828 0.455078C8.42035 0.455078 4.38281 4.49227 4.38281 9.45508C4.38281 14.4179 8.42035 18.4551 13.3828 18.4551C18.3453 18.4551 22.3828 14.4179 22.3828 9.45508C22.3828 4.49227 18.3453 0.455078 13.3828 0.455078ZM13.3828 17.7628C8.80216 17.7628 5.07512 14.0357 5.07512 9.45508C5.07512 4.87442 8.80216 1.14739 13.3828 1.14739C17.9635 1.14739 21.6905 4.87442 21.6905 9.45508C21.6905 14.0357 17.9635 17.7628 13.3828 17.7628Z" fill="#FF5C28"/>
</svg>
