<svg width="20" height="16" viewBox="0 0 20 16" fill="none" xmlns="http://www.w3.org/2000/svg">
<path d="M12.638 7.88306L8.97904 5.59391C8.87658 5.53015 8.74686 5.52589 8.64008 5.58312C8.53397 5.64068 8.46777 5.75056 8.46777 5.86992V10.4482C8.46777 10.5676 8.53397 10.6775 8.64041 10.735C8.69031 10.7618 8.74519 10.7752 8.80041 10.7752C8.86261 10.7752 8.92482 10.7579 8.97904 10.7242L12.638 8.43508C12.7338 8.3749 12.792 8.27091 12.792 8.15907C12.792 8.04723 12.7338 7.94324 12.638 7.88306ZM9.13305 9.85271V6.46543L11.8397 8.15907L9.13305 9.85271Z" fill="#FF5C28"/>
<path d="M19.4447 0.638428H16.1183H4.14338H0.817012C0.633396 0.638428 0.484375 0.784606 0.484375 0.965449V4.56268V8.15992V11.7572V15.3544C0.484375 15.5352 0.633396 15.6814 0.817012 15.6814H4.14338H16.1183H19.4447C19.6283 15.6814 19.7773 15.5352 19.7773 15.3544V11.7572V8.15992V4.56268V0.965449C19.7773 0.784606 19.6283 0.638428 19.4447 0.638428ZM3.81074 7.8329H1.14965V4.8897H3.81074V7.8329ZM1.14965 8.48694H3.81074V11.4301H1.14965V8.48694ZM4.47601 11.7572V8.15992V4.56268V1.29247H15.7857V4.56268V8.15992V11.7572V15.0274H4.47601V11.7572ZM19.112 7.8329H16.4509V4.8897H19.112V7.8329ZM16.4509 8.48694H19.112V11.4301H16.4509V8.48694ZM19.112 1.29247V4.23566H16.4509V1.29247H19.112ZM1.14965 1.29247H3.81074V4.23566H1.14965V1.29247ZM1.14965 15.0274V12.0842H3.81074V15.0274H1.14965ZM19.112 15.0274H16.4509V12.0842H19.112V15.0274Z" fill="#FF5C28"/>
</svg>
