<svg width="50" height="51" viewBox="0 0 50 51" fill="none" xmlns="http://www.w3.org/2000/svg">
<path d="M49.3004 27.0474C48.8841 26.2861 48.8841 25.3771 49.3004 24.6156C50.5716 22.2895 49.9905 19.3921 47.9181 17.7261C47.2811 17.2138 46.3459 17.3107 45.8295 17.9427C45.313 18.5747 45.4108 19.502 46.0481 20.0143C47.0098 20.7875 47.2793 22.1321 46.6891 23.2115C45.7922 24.8521 45.7922 26.8109 46.6891 28.4515C47.2793 29.5309 47.0096 30.8755 46.0479 31.6488C44.5863 32.8239 43.8305 34.6336 44.0262 36.49C44.1548 37.7111 43.3869 38.851 42.2001 39.2005C40.3964 39.7314 38.9997 41.1165 38.4642 42.9057C38.1121 44.0827 36.9625 44.845 35.7315 44.7167C33.8597 44.5232 32.0354 45.2723 30.8505 46.722C30.0709 47.6758 28.7153 47.9435 27.6267 47.358C25.9725 46.4684 23.9976 46.4684 22.3435 47.358C21.2552 47.9435 19.8992 47.6758 19.1199 46.722C17.935 45.2725 16.1108 44.5228 14.2389 44.7167C13.0078 44.8447 11.8584 44.0827 11.5059 42.9056C10.9705 41.1165 9.57369 39.7314 7.77014 39.2005C6.58331 38.851 5.8154 37.7111 5.94415 36.4899C6.13958 34.6336 5.38385 32.8239 3.92215 31.6488C2.96045 30.8755 2.69092 29.5309 3.28106 28.4515C4.17802 26.8109 4.17802 24.8521 3.28106 23.2115C2.69092 22.1321 2.9606 20.7875 3.9223 20.0143C5.38385 18.8391 6.13973 17.0294 5.94401 15.173C5.8154 13.9519 6.58331 12.812 7.77014 12.4625C9.57384 11.9316 10.9705 10.5465 11.506 8.7573C11.8583 7.58034 13.0081 6.81859 14.2387 6.94628C16.1111 7.14011 17.935 6.39087 19.1197 4.941C19.8993 3.98718 21.255 3.71971 22.3435 4.30502C23.9977 5.19462 25.9726 5.19462 27.6267 4.30502C28.7149 3.71971 30.0707 3.98733 30.8505 4.941C31.3668 5.57285 32.3019 5.66976 32.9392 5.15766C33.5762 4.6454 33.674 3.71795 33.1575 3.08609C31.4775 1.03059 28.5555 0.454261 26.211 1.71576C25.4431 2.1286 24.5268 2.12845 23.7592 1.71561C21.4141 0.454557 18.4926 1.03073 16.8126 3.08609C16.2628 3.75889 15.4158 4.10751 14.5476 4.01664C11.8943 3.74195 9.41762 5.38285 8.65862 7.91925C8.41018 8.74964 7.76197 9.39239 6.92486 9.6388C4.36736 10.3917 2.71275 12.848 2.99 15.4794C3.08073 16.3408 2.72997 17.1808 2.05191 17.7261C-0.0204354 19.3921 -0.601524 22.2895 0.669951 24.6156C1.0862 25.3769 1.0862 26.286 0.669951 27.0474C-0.601673 29.3733 -0.0204354 32.2709 2.05176 33.937C2.72997 34.4824 3.08088 35.3222 2.99 36.1835C2.71275 38.815 4.36736 41.2713 6.92486 42.0242C7.76197 42.2706 8.41018 42.9134 8.65862 43.7436C9.41762 46.2802 11.8954 47.9215 14.5476 47.6464C15.415 47.5561 16.2627 47.9041 16.8127 48.5769C18.4927 50.6323 21.4142 51.2085 23.7592 49.9473C24.5271 49.5344 25.4434 49.5346 26.211 49.9474C27.0447 50.3958 27.9511 50.612 28.849 50.6118C30.4764 50.6118 32.075 49.9015 33.1578 48.5769C33.7075 47.9043 34.5552 47.5564 35.4227 47.6464C38.0759 47.9208 40.5527 46.2802 41.3117 43.7438C41.5602 42.9134 42.2084 42.2706 43.0455 42.0242C45.603 41.2713 47.2576 38.815 46.9803 36.1836C46.8896 35.3222 47.2404 34.4822 47.9184 33.937C49.9908 32.2709 50.5719 29.3735 49.3004 27.0474Z" fill="#FF5C28"/>
<path d="M14.3649 47.7376C15.2284 47.6519 16.0652 48.0071 16.6034 48.6878C18.2479 50.7668 21.142 51.364 23.4854 50.1074C24.2059 49.7211 24.482 48.8224 24.1021 48.1001C23.7221 47.3777 22.8303 47.1055 22.1098 47.4919C21.0222 48.075 19.6792 47.7977 18.9162 46.8327C17.7565 45.366 15.9534 44.6007 14.0928 44.7853C12.8686 44.9068 11.7363 44.1332 11.4002 42.9458C10.8896 41.1412 9.51907 39.7383 7.73379 39.1932C6.55948 38.8344 5.8103 37.6822 5.95231 36.4531C6.16832 34.5853 5.43908 32.7585 4.00133 31.5665C3.05552 30.7825 2.80294 29.4265 3.40205 28.3434C4.31154 26.6961 4.33482 24.7241 3.46332 23.0669C2.88996 21.9765 3.17326 20.6242 4.13756 19.8508C5.60277 18.6758 6.37444 16.8578 6.20183 14.9877C6.08818 13.7571 6.86434 12.6135 8.04684 12.2688C9.84416 11.7445 11.247 10.3582 11.7999 8.55937C12.1631 7.37614 13.3137 6.61586 14.5349 6.75127C16.391 6.95753 18.2117 6.21294 19.4052 4.76022C20.1906 3.8043 21.5399 3.54281 22.6138 4.13852C24.2461 5.0437 26.2072 5.05515 27.8601 4.16883C28.9476 3.58571 30.2906 3.86297 31.0537 4.82798C32.2134 6.29466 34.0164 7.06 35.8771 6.87539C37.1013 6.75393 38.2336 7.52754 38.5696 8.71492C39.0803 10.5195 40.4508 11.9224 42.2361 12.4675C43.4104 12.8263 44.1596 13.9785 44.0176 15.2076C43.8015 17.0754 44.5308 18.9022 45.9685 20.0942C46.9143 20.8783 47.1662 22.2344 46.5678 23.3173C45.6578 24.9651 45.6348 26.9367 46.5065 28.5938C47.0799 29.6841 46.7964 31.0366 45.8323 31.8099C44.3671 32.9849 43.5954 34.8029 43.768 36.673C43.8816 37.9034 43.1055 39.0469 41.923 39.392C41.1396 39.6205 40.685 40.4434 40.9074 41.23C41.13 42.0166 41.9456 42.4689 42.729 42.2404C45.2775 41.4971 46.9497 39.0326 46.7046 36.3816C46.6246 35.5134 46.9828 34.67 47.6627 34.1247C49.7399 32.4588 50.351 29.5444 49.1155 27.1949C48.711 26.4259 48.721 25.51 49.1439 24.7464C50.4334 22.4113 49.8907 19.4903 47.8525 17.8006C47.1852 17.2475 46.8468 16.3997 46.9471 15.5328C47.2533 12.8844 45.6388 10.4016 43.1083 9.62866C42.2799 9.37558 41.6437 8.7245 41.4067 7.8873C40.6828 5.3287 38.2428 3.6617 35.6049 3.92324C34.7414 4.00893 33.9046 3.65374 33.3664 2.97305C31.7222 0.893701 28.8279 0.296577 26.4846 1.55305C25.7176 1.96425 24.8074 1.95912 24.05 1.53891C21.736 0.255476 18.8285 0.818814 17.1362 2.87882C16.5823 3.5531 15.7373 3.89864 14.876 3.80293C12.2445 3.51048 9.76554 5.14995 8.98248 7.69886C8.72667 8.53258 8.0751 9.17686 7.24086 9.4203C4.69246 10.1637 3.02058 12.6278 3.26525 15.2791C3.34523 16.1473 2.98708 16.9907 2.30713 17.5359C1.56869 18.1282 1.01549 18.8781 0.664805 19.7046C0.0289157 21.2027 0.0581652 22.9518 0.854348 24.466C1.25872 25.2349 1.24775 26.1511 0.82593 26.9145C-0.463312 29.2495 0.0790851 32.1705 2.11728 33.8602C2.78459 34.4134 3.12297 35.2612 3.02271 36.128C2.71648 38.7764 4.33097 41.2592 6.86151 42.0322C7.68995 42.2853 8.32609 42.9363 8.56306 43.7735C9.28697 46.3321 11.727 47.9991 14.3649 47.7376Z" fill="#FF5C28"/>
<path d="M40.9842 31.8703C40.2463 31.5158 39.3579 31.8214 39.0003 32.5534C36.4137 37.8471 30.9124 41.2677 24.9849 41.2677C16.4027 41.2677 9.42058 34.3429 9.42058 25.8312C9.42058 17.3196 16.4027 10.3947 24.9849 10.3947C25.805 10.3947 26.47 9.73534 26.47 8.9219C26.47 8.10845 25.805 7.44906 24.9849 7.44906C14.7652 7.44906 6.45054 15.6953 6.45054 25.8312C6.45054 35.9671 14.765 44.2134 24.9849 44.2134C28.5334 44.2134 31.9822 43.2154 34.9586 41.3274C37.8549 39.4903 40.1767 36.9005 41.673 33.838C42.0306 33.106 41.7223 32.2251 40.9842 31.8703Z" fill="#FF5C28"/>
<path d="M8.62212 20.8323C9.38029 21.1411 10.2485 20.7818 10.5607 20.0293C12.8193 14.5876 18.1015 10.8375 24.0179 10.4757C32.5841 9.95172 39.976 16.4374 40.4956 24.9332C41.0152 33.429 34.4689 40.7671 25.9026 41.291C25.0841 41.3411 24.4606 42.0399 24.5103 42.8518C24.56 43.6637 25.264 44.2813 26.0825 44.2312C36.2832 43.6073 44.0789 34.8689 43.4601 24.7519C42.8413 14.6349 34.0389 6.91156 23.8381 7.53548C20.2962 7.7521 16.9148 8.95878 14.0592 11.025C11.2805 13.0354 9.12108 15.7622 7.81452 18.9103C7.50228 19.6628 7.86378 20.5232 8.62212 20.8323Z" fill="#FF5C28"/>
<path d="M17.2672 21.0586C14.6141 21.0586 12.4556 23.1996 12.4556 25.831C12.4556 28.4625 14.6141 30.6035 17.2672 30.6035C19.9205 30.6035 22.079 28.4625 22.079 25.831C22.079 23.1996 19.9205 21.0586 17.2672 21.0586ZM17.2672 27.6577C16.2517 27.6577 15.4256 26.8383 15.4256 25.831C15.4256 24.8237 16.2517 24.0043 17.2672 24.0043C18.2828 24.0043 19.1089 24.8239 19.1089 25.831C19.1089 26.8382 18.2828 27.6577 17.2672 27.6577Z" fill="#FF5C28"/>
</svg>
