<svg width="76" height="61" viewBox="0 0 76 61" fill="none" xmlns="http://www.w3.org/2000/svg">
<path d="M32.873 31.0723L33.9131 20.6719H44.5771V22.2979H35.4219L34.6748 29.5049C35.8174 28.7236 37.1553 28.333 38.6885 28.333C40.6123 28.333 42.1455 28.958 43.2881 30.208C44.4307 31.458 45.002 33.123 45.002 35.2031C45.002 37.4492 44.4453 39.1924 43.332 40.4326C42.2188 41.6729 40.6514 42.293 38.6299 42.293C36.7744 42.293 35.2705 41.7754 34.1182 40.7402C32.9658 39.7051 32.3066 38.2549 32.1406 36.3896H33.8252C33.9912 37.8447 34.4844 38.9482 35.3047 39.7002C36.125 40.4424 37.2334 40.8135 38.6299 40.8135C40.1533 40.8135 41.3008 40.3301 42.0723 39.3633C42.8535 38.3965 43.2441 37.0195 43.2441 35.2324C43.2441 33.6699 42.8096 32.3955 41.9404 31.4092C41.0713 30.4229 39.8848 29.9297 38.3809 29.9297C37.5508 29.9297 36.8281 30.0371 36.2129 30.252C35.5977 30.457 34.9482 30.8623 34.2646 31.4678L32.873 31.0723Z" fill="#FF5C28"/>
<ellipse cx="37.978" cy="30.3609" rx="29.605" ry="28.771" stroke="#FF5C28" stroke-width="2"/>
</svg>
