<svg width="76" height="61" viewBox="0 0 76 61" fill="none" xmlns="http://www.w3.org/2000/svg">
<path d="M31.5254 41H29.7676V21.7812L23.9668 23.9346V22.2939L31.2324 19.5986H31.5254V41ZM52.8682 32.1084C52.8682 35.1162 52.3164 37.4014 51.2129 38.9639C50.1094 40.5166 48.4834 41.293 46.335 41.293C44.2256 41.293 42.6094 40.5312 41.4863 39.0078C40.3633 37.4746 39.7871 35.248 39.7578 32.3281V28.5049C39.7578 25.5068 40.3145 23.2363 41.4277 21.6934C42.541 20.1504 44.167 19.3789 46.3057 19.3789C48.415 19.3789 50.0264 20.126 51.1396 21.6201C52.2529 23.1045 52.8291 25.2969 52.8682 28.1973V32.1084ZM51.1104 28.2852C51.1104 25.8438 50.71 23.998 49.9092 22.748C49.1182 21.498 47.917 20.873 46.3057 20.873C44.7236 20.873 43.5322 21.4834 42.7314 22.7041C41.9307 23.9248 41.5205 25.7266 41.501 28.1094V32.2988C41.501 34.7305 41.9111 36.5908 42.7314 37.8799C43.5615 39.1689 44.7627 39.8135 46.335 39.8135C47.8975 39.8135 49.0791 39.1836 49.8799 37.9238C50.6904 36.6641 51.1006 34.8184 51.1104 32.3867V28.2852Z" fill="#FF5C28"/>
<ellipse cx="37.978" cy="30.4839" rx="29.605" ry="29.188" stroke="#FF5C28" stroke-width="2"/>
</svg>
