<svg width="76" height="61" viewBox="0 0 76 61" fill="none" xmlns="http://www.w3.org/2000/svg">
<path d="M35.583 30.3838H37.3994C38.4053 30.3838 39.2842 30.208 40.0361 29.8564C40.7881 29.4951 41.3594 29.0068 41.75 28.3916C42.1504 27.7666 42.3506 27.0488 42.3506 26.2383C42.3506 24.8711 41.9648 23.8018 41.1934 23.0303C40.4219 22.2588 39.3135 21.873 37.8682 21.873C36.501 21.873 35.3779 22.2783 34.499 23.0889C33.6299 23.8896 33.1953 24.9492 33.1953 26.2676H31.4375C31.4375 25.1641 31.7158 24.1582 32.2725 23.25C32.8291 22.332 33.6006 21.624 34.5869 21.126C35.5732 20.6279 36.667 20.3789 37.8682 20.3789C39.8018 20.3789 41.3252 20.9062 42.4385 21.9609C43.5518 23.0156 44.1084 24.4609 44.1084 26.2969C44.1084 27.3223 43.7812 28.2695 43.127 29.1387C42.4824 29.998 41.5938 30.6426 40.4609 31.0723C41.7891 31.4434 42.7949 32.083 43.4785 32.9912C44.1621 33.8896 44.5039 34.9639 44.5039 36.2139C44.5039 38.04 43.9082 39.5098 42.7168 40.623C41.5254 41.7363 39.9336 42.293 37.9414 42.293C36.6719 42.293 35.5049 42.0391 34.4404 41.5312C33.3857 41.0234 32.5654 40.3154 31.9795 39.4072C31.4033 38.4893 31.1152 37.4248 31.1152 36.2139H32.873C32.873 37.5713 33.3467 38.6797 34.2939 39.5391C35.2412 40.3887 36.457 40.8135 37.9414 40.8135C39.4551 40.8135 40.6318 40.4277 41.4717 39.6562C42.3213 38.875 42.7461 37.7471 42.7461 36.2725C42.7461 34.8467 42.2871 33.7578 41.3691 33.0059C40.4609 32.2539 39.1182 31.8779 37.3408 31.8779H35.583V30.3838Z" fill="#FF5C28"/>
<ellipse cx="38.0454" cy="30.3609" rx="29.188" ry="28.771" stroke="#FF5C28" stroke-width="2"/>
</svg>
