<svg width="75" height="61" viewBox="0 0 75 61" fill="none" xmlns="http://www.w3.org/2000/svg">
<path d="M41.5283 19.5107V21.0488H41.3232C38.7744 21.0488 36.7676 21.8008 35.3027 23.3047C33.8379 24.7988 33.0273 26.8789 32.8711 29.5449C33.457 28.7344 34.2041 28.1094 35.1123 27.6699C36.0205 27.2207 37.0361 26.9961 38.1592 26.9961C40.0342 26.9961 41.5234 27.6455 42.627 28.9443C43.7402 30.2334 44.2969 31.9229 44.2969 34.0127C44.2969 35.3994 44.0381 36.6494 43.5205 37.7627C43.0029 38.876 42.2607 39.7451 41.2939 40.3701C40.3271 40.9854 39.2236 41.293 37.9834 41.293C35.9424 41.293 34.2822 40.5557 33.0029 39.0811C31.7236 37.5967 31.084 35.6826 31.084 33.3389V31.5811C31.084 27.7627 31.9531 24.8086 33.6914 22.7188C35.4297 20.6191 37.8955 19.5498 41.0889 19.5107H41.5283ZM37.8809 28.5049C36.7676 28.5049 35.7275 28.8369 34.7607 29.501C33.8037 30.1553 33.1641 30.9902 32.8418 32.0059V33.5C32.8418 35.3555 33.3154 36.8691 34.2627 38.041C35.2197 39.2129 36.46 39.7988 37.9834 39.7988C39.3506 39.7988 40.4541 39.2568 41.2939 38.1729C42.1436 37.0889 42.5684 35.7217 42.5684 34.0713C42.5684 32.3916 42.1436 31.0439 41.2939 30.0283C40.4541 29.0127 39.3164 28.5049 37.8809 28.5049Z" fill="#FF5C28"/>
<ellipse cx="37.9449" cy="30.4839" rx="28.771" ry="29.188" stroke="#FF5C28" stroke-width="2"/>
</svg>
