<svg width="76" height="61" viewBox="0 0 76 61" fill="none" xmlns="http://www.w3.org/2000/svg">
<path d="M42.6289 31.127C42.0039 32.0449 41.2275 32.7578 40.2998 33.2656C39.3721 33.7637 38.3662 34.0127 37.2822 34.0127C36.0713 34.0127 35.002 33.7002 34.0742 33.0752C33.1465 32.4502 32.4287 31.5859 31.9209 30.4824C31.4131 29.3789 31.1592 28.1729 31.1592 26.8643C31.1592 25.458 31.4277 24.1787 31.9648 23.0264C32.5117 21.874 33.2686 20.9805 34.2354 20.3457C35.2119 19.7012 36.335 19.3789 37.6045 19.3789C39.7432 19.3789 41.4082 20.1309 42.5996 21.6348C43.791 23.1289 44.3867 25.2529 44.3867 28.0068V29.5889C44.3867 33.4365 43.5664 36.3271 41.9258 38.2607C40.2852 40.1943 37.7803 41.1611 34.4111 41.1611H34.0889L34.1035 39.6377H34.7188C37.2676 39.5986 39.2061 38.876 40.5342 37.4697C41.8623 36.0635 42.5605 33.9492 42.6289 31.127ZM37.502 32.5039C38.6738 32.5039 39.7236 32.1572 40.6514 31.4639C41.5889 30.7607 42.2529 29.8525 42.6436 28.7393V27.7285C42.6436 25.5605 42.1895 23.8809 41.2812 22.6895C40.3828 21.4883 39.167 20.8877 37.6338 20.8877C36.2471 20.8877 35.1094 21.4492 34.2207 22.5723C33.332 23.6855 32.8877 25.0918 32.8877 26.791C32.8877 28.4219 33.3125 29.7842 34.1621 30.8779C35.0215 31.9619 36.1348 32.5039 37.502 32.5039Z" fill="#FF5C28"/>
<ellipse cx="37.8033" cy="30.4839" rx="28.771" ry="29.188" stroke="#FF5C28" stroke-width="2"/>
</svg>
