<svg width="22" height="15" viewBox="0 0 22 15" fill="none" xmlns="http://www.w3.org/2000/svg">
<mask id="path-1-inside-1" fill="white">
<path d="M20.9781 4.73814C18.2251 2.08199 14.5996 0.619043 10.7698 0.618652H10.7684C6.93874 0.619043 3.31331 2.08193 0.560174 4.73814C0.301604 4.98753 0.294253 5.39936 0.543716 5.65793C0.671342 5.79024 0.84151 5.85678 1.01194 5.85678C1.1745 5.85678 1.33731 5.79616 1.46351 5.67439C3.97303 3.25326 7.27791 1.91983 10.7692 1.91963C14.2605 1.91983 17.5654 3.25326 20.0749 5.67439C20.3334 5.92391 20.7453 5.91656 20.9946 5.65793C21.244 5.39936 21.2367 4.98753 20.9781 4.73814Z"/>
<path d="M10.7687 5.3278C6.24985 5.3278 2.86445 8.39089 1.61869 9.7078C1.38146 9.95857 1.38146 10.351 1.61869 10.6018C2.86432 11.9188 6.24953 14.982 10.7687 14.982C15.2881 14.982 18.6732 11.9188 19.9188 10.6018C20.156 10.351 20.156 9.95857 19.9187 9.7078C18.673 8.39089 15.2878 5.3278 10.7687 5.3278ZM6.60099 7.62123C6.15748 8.38679 5.90776 9.28134 5.90776 10.2247C5.90776 11.0892 6.11598 11.9137 6.49463 12.6367C4.96839 11.8887 3.76642 10.8884 3.00664 10.1548C3.78404 9.40429 5.02407 8.3743 6.60099 7.62123ZM9.1003 13.521C7.93195 12.8826 7.20874 11.6264 7.20874 10.2247C7.20874 8.62402 8.1595 7.21721 9.57795 6.71126C9.96454 6.65857 10.3615 6.62878 10.7687 6.62878C11.0728 6.62878 11.3711 6.64588 11.6639 6.67587C13.1235 7.14052 14.1407 8.59534 14.1407 10.2247C14.1407 11.6518 13.3666 12.954 12.1617 13.5688C11.7118 13.6404 11.2473 13.681 10.7687 13.681C10.1918 13.681 9.63494 13.6229 9.1003 13.521ZM14.7802 12.7614C15.2044 12.006 15.4417 11.1335 15.4417 10.2248C15.4417 9.24492 15.1763 8.3099 14.6725 7.49926C16.3753 8.25975 17.7106 9.36285 18.5308 10.1548C17.728 10.9301 16.4315 12.0031 14.7802 12.7614Z"/>
<path d="M12.3239 10.2248C11.4135 10.2248 10.6746 9.48703 10.6746 8.57823C9.7642 8.57823 9.0255 9.31595 9.0255 10.2248C9.0255 11.1336 9.7642 11.8714 10.6746 11.8714C11.5852 11.8713 12.3239 11.1335 12.3239 10.2248Z"/>
</mask>
<path d="M20.9781 4.73814C18.2251 2.08199 14.5996 0.619043 10.7698 0.618652H10.7684C6.93874 0.619043 3.31331 2.08193 0.560174 4.73814C0.301604 4.98753 0.294253 5.39936 0.543716 5.65793C0.671342 5.79024 0.84151 5.85678 1.01194 5.85678C1.1745 5.85678 1.33731 5.79616 1.46351 5.67439C3.97303 3.25326 7.27791 1.91983 10.7692 1.91963C14.2605 1.91983 17.5654 3.25326 20.0749 5.67439C20.3334 5.92391 20.7453 5.91656 20.9946 5.65793C21.244 5.39936 21.2367 4.98753 20.9781 4.73814Z" fill="#FF5C28"/>
<path d="M10.7687 5.3278C6.24985 5.3278 2.86445 8.39089 1.61869 9.7078C1.38146 9.95857 1.38146 10.351 1.61869 10.6018C2.86432 11.9188 6.24953 14.982 10.7687 14.982C15.2881 14.982 18.6732 11.9188 19.9188 10.6018C20.156 10.351 20.156 9.95857 19.9187 9.7078C18.673 8.39089 15.2878 5.3278 10.7687 5.3278ZM6.60099 7.62123C6.15748 8.38679 5.90776 9.28134 5.90776 10.2247C5.90776 11.0892 6.11598 11.9137 6.49463 12.6367C4.96839 11.8887 3.76642 10.8884 3.00664 10.1548C3.78404 9.40429 5.02407 8.3743 6.60099 7.62123ZM9.1003 13.521C7.93195 12.8826 7.20874 11.6264 7.20874 10.2247C7.20874 8.62402 8.1595 7.21721 9.57795 6.71126C9.96454 6.65857 10.3615 6.62878 10.7687 6.62878C11.0728 6.62878 11.3711 6.64588 11.6639 6.67587C13.1235 7.14052 14.1407 8.59534 14.1407 10.2247C14.1407 11.6518 13.3666 12.954 12.1617 13.5688C11.7118 13.6404 11.2473 13.681 10.7687 13.681C10.1918 13.681 9.63494 13.6229 9.1003 13.521ZM14.7802 12.7614C15.2044 12.006 15.4417 11.1335 15.4417 10.2248C15.4417 9.24492 15.1763 8.3099 14.6725 7.49926C16.3753 8.25975 17.7106 9.36285 18.5308 10.1548C17.728 10.9301 16.4315 12.0031 14.7802 12.7614Z" fill="#FF5C28"/>
<path d="M12.3239 10.2248C11.4135 10.2248 10.6746 9.48703 10.6746 8.57823C9.7642 8.57823 9.0255 9.31595 9.0255 10.2248C9.0255 11.1336 9.7642 11.8714 10.6746 11.8714C11.5852 11.8713 12.3239 11.1335 12.3239 10.2248Z" fill="#FF5C28"/>
<path d="M20.9781 4.73814L20.631 5.09797L20.631 5.09802L20.9781 4.73814ZM10.7698 0.618652L10.7699 0.118652H10.7698V0.618652ZM10.7684 0.618652V0.118652H10.7683L10.7684 0.618652ZM0.560174 4.73814L0.907287 5.09802L0.907336 5.09797L0.560174 4.73814ZM0.543716 5.65793L0.903581 5.3108L0.903549 5.31077L0.543716 5.65793ZM1.46351 5.67439L1.11635 5.31455L1.11632 5.31458L1.46351 5.67439ZM10.7692 1.91963L10.7692 1.41963H10.7691L10.7692 1.91963ZM20.0749 5.67439L20.4221 5.31464L20.422 5.31456L20.0749 5.67439ZM20.9946 5.65793L20.6348 5.31082L20.6347 5.31086L20.9946 5.65793ZM1.61869 9.7078L1.98191 10.0514L1.98193 10.0514L1.61869 9.7078ZM1.61869 10.6018L1.25543 10.9454L1.25544 10.9454L1.61869 10.6018ZM19.9188 10.6018L20.282 10.9453L20.282 10.9453L19.9188 10.6018ZM19.9187 9.7078L19.5555 10.0514L19.5555 10.0514L19.9187 9.7078ZM6.60099 7.62123L7.03363 7.87187L7.84361 6.47371L6.38552 7.17004L6.60099 7.62123ZM6.49463 12.6367L6.27459 13.0857L7.64624 13.7579L6.93757 12.4047L6.49463 12.6367ZM3.00664 10.1548L2.65936 9.79511L2.2868 10.1548L2.65933 10.5145L3.00664 10.1548ZM9.1003 13.521L8.86055 13.9598L8.92952 13.9975L9.00672 14.0122L9.1003 13.521ZM9.57795 6.71126L9.51043 6.21584L9.45893 6.22286L9.40998 6.24032L9.57795 6.71126ZM11.6639 6.67587L11.8156 6.19943L11.7663 6.18374L11.7149 6.17847L11.6639 6.67587ZM12.1617 13.5688L12.2403 14.0626L12.3185 14.0501L12.3889 14.0142L12.1617 13.5688ZM10.7687 13.681V13.181V13.681ZM14.7802 12.7614L14.3442 12.5166L13.5912 13.8576L14.9888 13.2158L14.7802 12.7614ZM14.6725 7.49926L14.8764 7.04272L13.3867 6.3774L14.2478 7.76316L14.6725 7.49926ZM18.5308 10.1548L18.8782 10.5145L19.2506 10.1548L18.8781 9.79512L18.5308 10.1548ZM12.3239 10.2248H12.8239V9.72482H12.3239V10.2248ZM10.6746 8.57823H11.1746V8.07823H10.6746V8.57823ZM10.6746 11.8714V12.3714H10.6747L10.6746 11.8714ZM21.3253 4.37831C18.4789 1.63213 14.7289 0.119056 10.7699 0.118652L10.7698 1.11865C14.4702 1.11903 17.9712 2.53185 20.631 5.09797L21.3253 4.37831ZM10.7683 0.118652C6.80938 0.119056 3.05946 1.63207 0.213011 4.37831L0.907336 5.09797C3.56716 2.53179 7.06811 1.11903 10.7684 1.11865L10.7683 0.118652ZM0.213061 4.37826C-0.244359 4.81945 -0.257255 5.54785 0.183883 6.00509L0.903549 5.31077C0.845762 5.25087 0.847567 5.15562 0.907287 5.09802L0.213061 4.37826ZM0.183851 6.00506C0.409554 6.23904 0.711416 6.35678 1.01194 6.35678V5.35678C0.971605 5.35678 0.933131 5.34144 0.903581 5.3108L0.183851 6.00506ZM1.01194 6.35678C1.29886 6.35678 1.58765 6.24942 1.8107 6.03419L1.11632 5.31458C1.08697 5.3429 1.05014 5.35678 1.01194 5.35678V6.35678ZM1.81067 6.03422C4.22687 3.70314 7.40725 2.41982 10.7692 2.41963L10.7691 1.41963C7.14857 1.41983 3.7192 2.80339 1.11635 5.31455L1.81067 6.03422ZM10.7691 2.41963C14.1311 2.41982 17.3116 3.70314 19.7277 6.03422L20.422 5.31456C17.8192 2.80339 14.3898 1.41983 10.7692 1.41963L10.7691 2.41963ZM19.7276 6.03413C20.1848 6.47548 20.9134 6.46252 21.3546 6.005L20.6347 5.31086C20.5771 5.37061 20.4819 5.37235 20.4221 5.31464L19.7276 6.03413ZM21.3545 6.00504C21.7955 5.5478 21.7827 4.81945 21.3252 4.37826L20.631 5.09802C20.6907 5.15562 20.6925 5.25091 20.6348 5.31082L21.3545 6.00504ZM10.7687 4.8278C6.03294 4.8278 2.52171 8.02562 1.25546 9.3642L1.98193 10.0514C3.20719 8.75615 6.46677 5.8278 10.7687 5.8278V4.8278ZM1.25548 9.36419C0.835842 9.80775 0.835905 10.5018 1.25543 10.9454L1.98196 10.2583C1.92702 10.2002 1.92708 10.1094 1.98191 10.0514L1.25548 9.36419ZM1.25544 10.9454C2.52157 12.2841 6.03261 15.482 10.7687 15.482V14.482C6.46645 14.482 3.20706 11.5536 1.98195 10.2583L1.25544 10.9454ZM10.7687 15.482C15.505 15.482 19.0159 12.284 20.282 10.9453L19.5555 10.2582C18.3304 11.5535 15.0712 14.482 10.7687 14.482V15.482ZM20.282 10.9453C20.7015 10.5018 20.7015 9.80772 20.2819 9.36419L19.5555 10.0514C19.6104 10.1094 19.6104 10.2002 19.5555 10.2582L20.282 10.9453ZM20.282 9.36421C19.0158 8.02562 15.5047 4.8278 10.7687 4.8278V5.8278C15.0708 5.8278 18.3303 8.75615 19.5555 10.0514L20.282 9.36421ZM6.16834 7.37059C5.68099 8.21185 5.40776 9.1928 5.40776 10.2247H6.40776C6.40776 9.36989 6.63398 8.56173 7.03363 7.87187L6.16834 7.37059ZM5.40776 10.2247C5.40776 11.1698 5.63546 12.0739 6.0517 12.8687L6.93757 12.4047C6.5965 11.7535 6.40776 11.0087 6.40776 10.2247H5.40776ZM6.71467 12.1877C5.25014 11.47 4.09038 10.5062 3.35395 9.79513L2.65933 10.5145C3.44246 11.2707 4.68664 12.3074 6.27459 13.0857L6.71467 12.1877ZM3.35393 10.5145C4.10768 9.78683 5.30398 8.79472 6.81646 8.07242L6.38552 7.17004C4.74416 7.95388 3.4604 9.02174 2.65936 9.79511L3.35393 10.5145ZM9.34005 13.0823C8.34157 12.5367 7.70874 11.4546 7.70874 10.2247H6.70874C6.70874 11.7983 7.52234 13.2286 8.86055 13.9598L9.34005 13.0823ZM7.70874 10.2247C7.70874 8.81843 8.5421 7.61159 9.74593 7.1822L9.40998 6.24032C7.7769 6.82282 6.70874 8.42961 6.70874 10.2247H7.70874ZM9.64548 7.20668C10.0116 7.15677 10.3859 7.12878 10.7687 7.12878V6.12878C10.337 6.12878 9.91746 6.16036 9.51043 6.21584L9.64548 7.20668ZM10.7687 7.12878C11.0541 7.12878 11.3352 7.14483 11.613 7.17327L11.7149 6.17847C11.407 6.14694 11.0916 6.12878 10.7687 6.12878V7.12878ZM11.5123 7.15231C12.7475 7.54555 13.6407 8.79483 13.6407 10.2247H14.6407C14.6407 8.39584 13.4995 6.73548 11.8156 6.19943L11.5123 7.15231ZM13.6407 10.2247C13.6407 11.4754 12.9619 12.5992 11.9345 13.1234L12.3889 14.0142C13.7713 13.3089 14.6407 11.8282 14.6407 10.2247H13.6407ZM12.0831 13.075C11.6571 13.1428 11.2189 13.181 10.7687 13.181V14.181C11.2757 14.181 11.7665 14.138 12.2403 14.0626L12.0831 13.075ZM10.7687 13.181C10.2255 13.181 9.70004 13.1263 9.19388 13.0299L9.00672 14.0122C9.56983 14.1195 10.1581 14.181 10.7687 14.181V13.181ZM15.2161 13.0062C15.6817 12.1772 15.9417 11.2206 15.9417 10.2248H14.9417C14.9417 11.0465 14.7271 11.8348 14.3442 12.5166L15.2161 13.0062ZM15.9417 10.2248C15.9417 9.15344 15.6511 8.12673 15.0972 7.23536L14.2478 7.76316C14.7014 8.49307 14.9417 9.33639 14.9417 10.2248H15.9417ZM14.4686 7.9558C16.1001 8.68444 17.3878 9.74622 18.1835 10.5145L18.8781 9.79512C18.0334 8.97948 16.6505 7.83505 14.8764 7.04272L14.4686 7.9558ZM18.1835 9.79516C17.4049 10.547 16.1544 11.5801 14.5715 12.307L14.9888 13.2158C16.7086 12.426 18.0511 11.3132 18.8782 10.5145L18.1835 9.79516ZM12.3239 9.72482C11.6889 9.72482 11.1746 9.21014 11.1746 8.57823H10.1746C10.1746 9.76392 11.1381 10.7248 12.3239 10.7248V9.72482ZM10.6746 8.07823C9.48875 8.07823 8.5255 9.03911 8.5255 10.2248H9.5255C9.5255 9.59279 10.0396 9.07823 10.6746 9.07823V8.07823ZM8.5255 10.2248C8.5255 11.4104 9.48874 12.3714 10.6746 12.3714V11.3714C10.0397 11.3714 9.5255 10.8568 9.5255 10.2248H8.5255ZM10.6747 12.3714C11.8606 12.3713 12.8239 11.4104 12.8239 10.2248H11.8239C11.8239 10.8567 11.3098 11.3714 10.6746 11.3714L10.6747 12.3714ZM10.7698 0.118652H10.7684V1.11865H10.7698V0.118652Z" fill="white" mask="url(#path-1-inside-1)"/>
</svg>
