<svg width="21" height="19" viewBox="0 0 21 19" fill="none" xmlns="http://www.w3.org/2000/svg">
<path d="M20.3587 15.4947C20.0528 15.557 19.9512 15.4698 19.9173 15.4409C19.5415 15.1189 19.6044 13.7853 19.6772 12.2405C19.7132 11.4701 19.7544 10.5956 19.7544 9.66239C19.7544 6.02987 17.4478 0.42749 14.3834 0.42749C12.235 0.42749 11.1068 0.859601 10.6908 1.06536C10.2748 0.859601 9.14662 0.42749 6.99821 0.42749C3.93379 0.42749 1.62725 6.02987 1.62725 9.66239C1.62725 10.597 1.66843 11.4701 1.70439 12.2405C1.77723 13.7847 1.8387 15.1189 1.46436 15.4409C1.43087 15.4695 1.33006 15.5567 1.02288 15.4947C0.924534 15.4747 0.822192 15.4993 0.743669 15.5618C0.664991 15.6259 0.61966 15.7222 0.620121 15.8237C0.656386 16.6137 1.03456 17.3488 1.65599 17.8378C2.66957 18.625 4.26878 18.7481 6.40982 18.2023C6.5263 18.1728 6.61803 18.0832 6.6503 17.9675C6.68273 17.8516 6.65077 17.7274 6.56656 17.6417C6.54443 17.6192 4.40001 15.3631 4.31534 9.34645C5.5018 9.43543 9.14938 9.53854 11.3508 7.70161C11.9088 7.2423 12.3493 6.65652 12.6355 5.99299C12.8572 7.0327 13.4325 7.96345 14.2636 8.62637C15.076 9.20692 16.0727 9.47015 17.066 9.36658C16.9765 15.3351 14.8363 17.6206 14.8168 17.6425C14.7326 17.728 14.7006 17.8524 14.733 17.9681C14.7653 18.0838 14.857 18.1734 14.9735 18.203C15.74 18.4112 16.5292 18.524 17.3234 18.5386C18.1804 18.5821 19.0269 18.3359 19.7269 17.8398C20.3484 17.3508 20.7266 16.6157 20.7629 15.8257C20.7629 15.7248 20.7176 15.6293 20.6395 15.5655C20.5614 15.5019 20.4588 15.4765 20.36 15.4967L20.3587 15.4947ZM19.3137 17.3073C18.5598 17.8939 17.2996 18.0166 15.6466 17.67C16.3258 16.7031 17.7403 14.076 17.7403 8.97796C17.7403 8.87546 17.6936 8.77866 17.6133 8.71488C17.5331 8.65127 17.4282 8.62775 17.3284 8.65096C16.3985 8.82537 15.4373 8.62099 14.6586 8.08331C13.6925 7.35847 13.1481 6.04093 13.0404 4.16681C13.0404 3.98134 12.8901 3.83105 12.7046 3.83105C12.5193 3.83105 12.369 3.98134 12.369 4.16681C12.3417 5.33391 11.8143 6.43324 10.9212 7.18498C8.54716 9.16928 4.06225 8.65065 4.01692 8.64497C3.92165 8.63344 3.82607 8.6634 3.7543 8.72702C3.68254 8.79064 3.64136 8.88192 3.64136 8.97796C3.64136 14.076 5.05586 16.7031 5.73507 17.6703C4.09022 18.0149 2.83138 17.8945 2.07596 17.3148C1.70962 17.0319 1.45115 16.6321 1.34358 16.1819C1.54873 16.1651 1.74342 16.0843 1.90016 15.9509C2.52589 15.4154 2.46642 14.1398 2.37515 12.2103C2.33919 11.4458 2.29862 10.5812 2.29862 9.66239C2.29862 6.00236 4.62221 1.09886 6.99821 1.09886C9.51588 1.09886 10.495 1.7209 10.5021 1.72536C10.616 1.80265 10.7656 1.80265 10.8795 1.72536C10.8886 1.71921 11.8714 1.09886 14.3834 1.09886C16.7594 1.09886 19.083 6.00236 19.083 9.66239C19.083 10.5812 19.0424 11.4458 19.0065 12.209C18.9155 14.1398 18.8557 15.4154 19.4809 15.9509C19.6374 16.0843 19.832 16.1651 20.0371 16.1819C19.9303 16.6281 19.6752 17.025 19.3137 17.3078V17.3073Z" fill="#FF5C28"/>
<path d="M9.9859 3.11636C9.80196 3.1351 9.66781 3.29907 9.68579 3.48301C9.6907 3.99994 9.49616 4.4989 9.14257 4.87615C8.35611 5.79185 6.7967 6.34305 4.62862 6.46998C4.44314 6.47551 4.29731 6.6301 4.30269 6.81557C4.30822 7.00089 4.46297 7.14688 4.64829 7.14135H4.66842C7.07207 6.99997 8.75487 6.37793 9.67027 5.29197C10.1334 4.77795 10.3784 4.10366 10.353 3.41216C10.3436 3.32427 10.2995 3.24375 10.2307 3.18827C10.1618 3.1328 10.0738 3.10698 9.9859 3.11636Z" fill="#FF5C28"/>
</svg>
