<svg width="16" height="15" viewBox="0 0 16 15" fill="none" xmlns="http://www.w3.org/2000/svg">
<path d="M8.02891 14.0111C7.80547 14.0111 7.59006 13.9354 7.42219 13.7979C6.78816 13.2794 6.17689 12.7922 5.63758 12.3624L5.63483 12.3601C4.05367 11.1 2.68827 10.0118 1.73826 8.93975C0.676286 7.74132 0.181641 6.60504 0.181641 5.36372C0.181641 4.15767 0.62384 3.04502 1.42669 2.23058C2.23913 1.4065 3.35391 0.952637 4.56603 0.952637C5.47198 0.952637 6.30166 1.2205 7.03195 1.74872C7.40051 2.01535 7.73459 2.34166 8.02891 2.72229C8.32335 2.34166 8.6573 2.01535 9.02598 1.74872C9.75627 1.2205 10.5859 0.952637 11.4919 0.952637C12.7039 0.952637 13.8188 1.4065 14.6312 2.23058C15.4341 3.04502 15.8762 4.15767 15.8762 5.36372C15.8762 6.60504 15.3816 7.74132 14.3197 8.93964C13.3697 10.0118 12.0044 11.0999 10.4235 12.3599C9.8832 12.7904 9.27097 13.2784 8.63551 13.7981C8.46775 13.9354 8.25222 14.0111 8.02891 14.0111ZM4.56603 1.81243C3.61374 1.81243 2.73892 2.16787 2.10251 2.81333C1.45663 3.46854 1.10088 4.37425 1.10088 5.36372C1.10088 6.40773 1.51578 7.34143 2.44604 8.39115C3.34517 9.40582 4.68254 10.4717 6.23101 11.7058L6.23389 11.7081C6.77523 12.1395 7.3889 12.6287 8.02759 13.1509C8.67011 12.6277 9.28474 12.1377 9.82716 11.7056C11.3755 10.4714 12.7128 9.40582 13.6119 8.39115C14.542 7.34143 14.9569 6.40773 14.9569 5.36372C14.9569 4.37425 14.6012 3.46854 13.9553 2.81333C13.319 2.16787 12.4441 1.81243 11.4919 1.81243C10.7943 1.81243 10.1538 2.01983 9.58828 2.42878C9.08429 2.7934 8.73322 3.25431 8.52738 3.57682C8.42153 3.74267 8.23522 3.84166 8.02891 3.84166C7.8226 3.84166 7.63628 3.74267 7.53043 3.57682C7.32472 3.25431 6.97364 2.7934 6.46954 2.42878C5.904 2.01983 5.26352 1.81243 4.56603 1.81243Z" fill="#FF5C28"/>
</svg>
