<svg width="77" height="63" viewBox="0 0 77 63" fill="none" xmlns="http://www.w3.org/2000/svg">
<path d="M75.7147 14.6311L51.9356 5.53983C51.359 5.31948 50.7136 5.60944 50.4939 6.18707C50.2742 6.76527 50.5633 7.41251 51.1399 7.63285L72.1818 15.6776L57.6153 21.2473L39.2957 12.9293C38.7334 12.6738 38.0719 12.9241 37.8178 13.4873C37.563 14.0512 37.8126 14.7145 38.3743 14.97L54.6751 22.3715L38.835 28.4274L5.48809 15.6776L38.835 2.92786L47.0528 6.07028C47.6282 6.29005 48.2742 6.00066 48.4945 5.42246C48.7142 4.84484 48.4251 4.1976 47.8485 3.97725L39.2331 0.682945C38.9767 0.58514 38.6933 0.584564 38.4368 0.682945L1.95519 14.6311C1.52261 14.7968 1.23633 15.2133 1.23633 15.6776V20.7922C1.23633 21.2565 1.52261 21.6731 1.95519 21.8387L13.3473 26.1939V30.0751C13.3473 30.6936 13.847 31.1952 14.4638 31.1952C15.0811 31.1952 15.5808 30.6936 15.5808 30.0751V27.0483L38.4368 35.7869C38.5653 35.8358 38.7001 35.8605 38.835 35.8605C38.9698 35.8605 39.1046 35.8358 39.2331 35.7869L56.4616 29.2V46.9246C51.0527 49.7719 44.9874 51.2976 38.835 51.2976C30.4382 51.2976 22.202 48.459 15.5808 43.2931V34.5551C15.5808 33.9367 15.0811 33.435 14.4638 33.435C13.847 33.435 13.3473 33.9367 13.3473 34.5551V43.8357C13.3473 44.1757 13.5011 44.4973 13.7656 44.7096C20.8515 50.4024 29.7549 53.5374 38.835 53.5374C44.9587 53.5374 51.0011 52.1094 56.4616 49.4347V53.9677C54.6619 54.4607 53.3349 56.1137 53.3349 58.0726C53.3349 60.4188 55.2385 62.3283 57.5781 62.3283C59.9182 62.3283 61.8218 60.4188 61.8218 58.0726C61.8218 56.1137 60.4948 54.4607 58.6951 53.9677V48.2519C60.5155 47.2134 62.2595 46.0317 63.9049 44.7096C64.1694 44.4973 64.3237 44.1757 64.3237 43.8357V26.1934L75.7147 21.8382C76.1473 21.6731 76.4336 21.2565 76.4336 20.7917V15.6776C76.4336 15.2133 76.1473 14.7968 75.7147 14.6311ZM59.5883 58.0726C59.5883 59.1836 58.6865 60.088 57.5781 60.088C56.4702 60.088 55.5684 59.1836 55.5684 58.0726C55.5684 56.9611 56.4702 56.0567 57.5781 56.0567C58.6865 56.0567 59.5883 56.9611 59.5883 58.0726ZM3.46978 17.3035L37.718 30.3978V33.1145L3.46978 20.0201V17.3035ZM39.952 33.1145V30.3978L56.4616 24.0854V26.8026L39.952 33.1145ZM62.0897 43.2926C61.0002 44.1429 59.866 44.9288 58.6951 45.6502V28.3457L62.0897 27.0477V43.2926ZM58.6951 25.9483V23.2316L74.2001 17.3035V20.0201L58.6951 25.9483Z" fill="#FF5C28" stroke="#FF5C28" stroke-width="0.5"/>
</svg>
