<svg width="11" height="13" viewBox="0 0 11 13" fill="none" xmlns="http://www.w3.org/2000/svg">
<path d="M9.46639 2.32301C8.55029 0.973408 7.0984 0.199219 5.4833 0.199219C3.86819 0.199219 2.4163 0.973408 1.5002 2.32301C0.588597 3.66578 0.378105 5.36577 0.936012 6.8677C1.08524 7.27785 1.32245 7.67634 1.63937 8.04975L5.16387 12.2637C5.24358 12.3591 5.36037 12.4141 5.4833 12.4141C5.60623 12.4141 5.72301 12.3591 5.80273 12.2637L9.32623 8.0509C9.64456 7.67534 9.88147 7.27728 10.0295 6.87042C10.5885 5.36577 10.378 3.66578 9.46639 2.32301ZM9.24373 6.5713C9.12962 6.88521 8.94331 7.19557 8.6903 7.49409C8.6896 7.49481 8.6889 7.49553 8.68833 7.49638L5.4833 11.3283L2.27629 7.49398C2.02342 7.19571 1.83712 6.88538 1.72187 6.56846C1.26048 5.32634 1.43558 3.92077 2.19041 2.80876C2.94761 1.6932 4.14789 1.0534 5.4833 1.0534C6.81867 1.0534 8.01882 1.69318 8.77604 2.80876C9.53101 3.92077 9.70625 5.32634 9.24373 6.5713Z" fill="#FF5C28"/>
<path d="M5.48248 2.7334C4.18694 2.7334 3.13281 3.80625 3.13281 5.12513C3.13281 6.444 4.1868 7.51685 5.48248 7.51685C6.77816 7.51685 7.83215 6.444 7.83215 5.12513C7.83215 3.8064 6.77802 2.7334 5.48248 2.7334ZM5.48248 6.66265C4.6496 6.66265 3.97197 5.97289 3.97197 5.1251C3.97197 4.27731 4.6496 3.58756 5.48248 3.58756C6.31536 3.58756 6.99299 4.27731 6.99299 5.1251C6.99299 5.97289 6.31536 6.66265 5.48248 6.66265Z" fill="#FF5C28"/>
</svg>
