<svg width="68" height="78" viewBox="0 0 68 78" fill="none" xmlns="http://www.w3.org/2000/svg">
<path fill-rule="evenodd" clip-rule="evenodd" d="M48.6228 6.38363C49.3742 7.09498 50.1964 7.62668 50.9847 7.95183C50.5919 8.20984 50.3336 8.5752 50.1602 8.90443C49.9673 9.27076 49.8274 9.69189 49.7208 10.1262C49.5077 10.9951 49.3885 12.0858 49.3295 13.2867C49.2283 15.3464 49.298 17.8816 49.4544 20.4992C42.2898 20.3904 35.3129 24.0205 30.3669 28.997C27.609 31.7719 26.2487 33.7203 24.9436 35.6612L24.7063 36.0146C23.5084 37.8001 22.2981 39.604 19.9533 42.1719C17.4299 44.9355 12.9897 47.1445 9.01999 48.6809C7.06227 49.4385 5.26932 50.014 3.96589 50.3999C3.3148 50.5926 2.78742 50.7376 2.42462 50.834C2.24325 50.8821 2.10313 50.9181 2.00936 50.9418C1.96247 50.9537 1.92719 50.9624 1.90414 50.9681L1.87883 50.9743L1.87237 50.9759C1.31247 51.111 0.924602 51.6132 0.941967 52.1807C0.959316 52.7482 1.37718 53.2264 1.94432 53.3278L2.07963 52.5939C1.94449 53.3274 1.94553 53.328 1.94553 53.328L1.95247 53.3293L1.96936 53.3322L2.02896 53.3423C2.08005 53.3507 2.15371 53.3626 2.24902 53.3771C2.4396 53.4061 2.71678 53.4457 3.073 53.4896C3.78532 53.5774 4.81452 53.6828 6.10007 53.7563C8.66959 53.9031 12.2724 53.9229 16.4214 53.416C24.0251 52.4869 33.5222 49.78 41.8291 42.7878C41.0615 41.2744 40.0107 39.9504 38.6205 38.4946C38.1584 38.0107 38.182 37.2494 38.6732 36.7942C39.1645 36.339 39.9373 36.3622 40.3994 36.8461C42.6108 39.1618 44.2007 41.3598 45.0981 44.4895C45.7701 46.8331 46.0379 49.6449 45.9611 53.3464L45.9697 53.3463C46.5711 53.3459 47.4663 53.3453 48.6412 53.345C50.991 53.3442 54.4596 53.3442 58.9346 53.3472C59.4106 53.3475 59.7484 53.1033 59.8751 53.0046C60.0453 52.8721 60.1888 52.7153 60.3042 52.5702C60.539 52.2749 60.759 51.899 60.9363 51.49C61.2802 50.6968 61.5597 49.5514 61.2496 48.4191C60.9087 47.1747 59.9272 46.2003 58.2755 45.769C56.7072 45.3594 54.5058 45.4214 51.4792 46.0835C51.4401 46.0921 51.4095 46.0967 51.3862 46.0991C51.3816 46.0899 51.3765 46.0792 51.3711 46.0669C51.2406 45.7714 51.1614 45.1253 51.2737 44.07C51.4366 42.5389 51.952 40.5636 52.657 38.5737C53.3509 39.1423 54.4008 39.9161 55.9849 40.9315C56.738 41.4142 57.4841 41.7395 58.2113 41.8203C58.984 41.9062 59.7102 41.7088 60.2806 41.2075C60.812 40.7403 61.0987 40.1057 61.2533 39.4991C61.4103 38.8827 61.4571 38.1957 61.4327 37.5005C61.3841 36.1092 61.0445 34.5203 60.5191 33.0452C59.9961 31.5767 59.2564 30.129 58.3474 29.0641C58.3256 29.0386 58.3032 29.0135 58.2802 28.9889C58.4563 28.8811 58.6313 28.7478 58.797 28.5909C59.528 27.8989 59.8019 27.0113 59.4088 26.6083C59.0156 26.2053 58.1044 26.4396 57.3734 27.1316C57.2552 27.2434 57.149 27.3603 57.0557 27.4795C56.882 27.0369 56.5624 26.5666 56.1213 26.1479C56.1199 26.1964 56.1163 26.2488 56.1095 26.305C56.0703 26.6299 55.9194 27.0954 55.5173 27.5075C55.1153 27.9197 54.6491 28.0868 54.3211 28.1383C54.2644 28.1472 54.2113 28.1529 54.1623 28.1561C54.532 28.5052 54.9351 28.7693 55.3238 28.9361C54.8715 29.2814 54.4605 29.7463 54.0982 30.2248C53.7248 30.7178 53.3467 31.3022 52.9738 31.9501C52.6828 29.5019 52.338 26.3193 52.0844 23.1043C54.6414 23.3804 56.9715 23.7844 58.83 24.1435C59.6022 24.2928 60.2845 24.4325 60.8742 24.5533L60.8777 24.554C61.1305 24.6058 61.3662 24.6541 61.5846 24.6981C61.9433 24.7704 62.2606 24.8323 62.5197 24.8763C62.7512 24.9157 63.0244 24.9571 63.2503 24.9571C64.5596 24.9571 65.7195 24.6295 66.4894 23.7866C67.2634 22.9393 67.402 21.8366 67.2708 20.8225C67.0146 18.8429 65.6525 16.4682 63.9628 14.3614C62.2437 12.2178 60.0277 10.1555 57.8214 8.82961C57.3888 8.56958 56.9485 8.33304 56.5052 8.12849C56.9114 7.90138 57.3184 7.60373 57.7002 7.24224C59.1304 5.88836 59.6663 4.15165 58.8972 3.3632C58.128 2.57474 56.345 3.03311 54.9148 4.38699C54.6834 4.60603 54.4755 4.83508 54.2926 5.06852C53.9518 4.19941 53.3233 3.27577 52.4558 2.4545C50.4876 0.59141 48.0341 -0.0393558 46.9757 1.04564C45.9172 2.13064 46.6546 4.52054 48.6228 6.38363ZM56.4084 7.42799L56.4097 7.42318L56.4091 7.42572L56.4081 7.42972L56.4084 7.42799ZM57.8164 14.5801C57.8164 15.4085 57.3687 16.0801 56.8164 16.0801C56.2641 16.0801 55.8164 15.4085 55.8164 14.5801C55.8164 13.7517 56.2641 13.0801 56.8164 13.0801C57.3687 13.0801 57.8164 13.7517 57.8164 14.5801ZM57.8164 34.5801C57.8164 34.8562 57.3687 35.0801 56.8164 35.0801C56.2641 35.0801 55.8164 34.8562 55.8164 34.5801C55.8164 34.3039 56.2641 34.0801 56.8164 34.0801C57.3687 34.0801 57.8164 34.3039 57.8164 34.5801Z" fill="#FF5C28"/>
<path d="M56.2353 26.305C56.901 27.4904 56.7346 28.1787 56.3326 28.5909C55.9305 29.0031 54.3831 27.9448 54.3439 28.2696C54.3371 28.3258 54.248 28.2351 54.1535 28.1479C53.1509 27.1963 52.7758 25.9775 53.316 25.4237C53.8562 24.87 55.1074 25.1906 56.1126 26.1397C56.0635 26.143 56.2921 26.2961 56.2353 26.305Z" fill="#FF5C28"/>
<path d="M6.62891 60.5479V76.1096C6.62891 77.0411 7.37917 77.8082 8.32393 77.8082C9.2687 77.8082 10.019 77.0411 10.019 76.1096V60.5479C10.019 59.6164 9.2687 58.8767 8.32393 58.8767C7.37917 58.8767 6.62891 59.6164 6.62891 60.5479Z" fill="#1A1A1A"/>
<path d="M25.2138 68.6301V76.4658C25.2138 77.3151 25.8807 78 26.7421 78H27.0756C27.937 78 28.6039 77.3151 28.6039 76.4658V71.6438C28.6039 70.8219 29.2986 70.137 30.16 70.137H35.5229C36.3843 70.137 37.079 69.4521 37.079 68.6027C37.079 67.7534 36.3843 67.0959 35.5229 67.0959H34.3837L26.7421 67.1233C25.8807 67.1233 25.2138 67.8082 25.2138 68.6301ZM26.7421 62.1096H35.5507C36.4121 62.1096 37.1068 61.4247 37.1068 60.5753C37.1068 59.7534 36.4121 59.0685 35.5507 59.0685H26.7421C25.8807 59.0685 25.2138 59.7534 25.2138 60.5753C25.2138 61.4247 25.8807 62.1096 26.7421 62.1096Z" fill="#1A1A1A"/>
<path d="M60.2117 61.3151C60.962 60.5205 60.7397 59.2055 59.7394 58.7397C59.4893 58.6301 59.2392 58.5479 58.9613 58.4658C58.0166 58.137 57.044 58 56.0159 58C55.1267 58 54.2653 58.1096 53.4316 58.3562C52.5702 58.5753 51.82 58.9315 51.1531 59.3973C50.4862 59.863 49.9582 60.4658 49.5414 61.1781C49.1524 61.8904 48.9579 62.7397 48.9579 63.726C48.9579 64.8493 49.1802 65.726 49.6248 66.411C50.0694 67.0685 50.6251 67.6164 51.292 68C51.9589 68.411 52.7092 68.7397 53.4872 68.9589C54.2931 69.2055 55.0155 69.4247 55.7102 69.6986C56.3771 69.9452 56.9328 70.274 57.3774 70.6575C57.822 71.0137 58.0443 71.5616 58.0443 72.2466C58.0443 72.6849 57.961 73.0685 57.7665 73.3973C57.572 73.726 57.2941 74 56.9606 74.1918C56.655 74.411 56.2937 74.5753 55.8769 74.6849C55.4879 74.7945 55.0989 74.8493 54.6821 74.8493C53.9318 74.8493 53.2093 74.6575 52.5424 74.3288C52.2924 74.1918 52.0701 74.0548 51.8478 73.8904C51.2087 73.3973 50.2917 73.4521 49.7081 74L49.5692 74.137C48.8467 74.8219 48.9023 76.0548 49.7637 76.6027C50.2083 76.9041 50.6807 77.1233 51.1809 77.3151C52.2646 77.6986 53.4316 77.8904 54.5987 77.8904C55.5435 77.8904 56.4327 77.7534 57.2941 77.5068C58.1555 77.2603 58.878 76.9041 59.5449 76.3836C60.184 75.8904 60.6841 75.2603 61.0732 74.5205C61.4344 73.7534 61.6289 72.8767 61.6289 71.8356C61.6289 70.7123 61.4066 69.8356 60.962 69.1507C60.5174 68.4658 59.9339 67.9178 59.267 67.5069C58.6001 67.0959 57.8776 66.7945 57.0718 66.5479C56.2937 66.3288 55.5435 66.0822 54.8766 65.8356C54.2097 65.589 53.6539 65.2877 53.2093 64.9589C52.737 64.6027 52.5147 64.1096 52.5147 63.4795C52.5147 63.0411 52.6258 62.6849 52.7925 62.3836C52.987 62.0548 53.2093 61.8082 53.515 61.6164C53.8207 61.4247 54.1541 61.2603 54.5153 61.1781C54.8766 61.0959 55.2656 61.0411 55.6824 61.0411C56.3493 61.0411 56.9884 61.1781 57.5719 61.3973C57.7665 61.4795 57.9054 61.5616 58.0721 61.6438C58.739 62.0548 59.5726 61.9726 60.1006 61.4247L60.2117 61.3151Z" fill="#1A1A1A"/>
</svg>
