<svg width="18" height="14" viewBox="0 0 18 14" fill="none" xmlns="http://www.w3.org/2000/svg">
<path d="M15.4467 0.162109H2.30242C1.12908 0.162109 0.175293 1.1159 0.175293 2.28924V11.2728C0.175293 12.4462 1.12908 13.4 2.30242 13.4H15.4431C16.6164 13.4 17.5702 12.4462 17.5702 11.2728V2.29284C17.5738 1.1195 16.62 0.162109 15.4467 0.162109ZM16.602 11.2728C16.602 11.9099 16.0838 12.4282 15.4467 12.4282H2.30242C1.66536 12.4282 1.14708 11.9099 1.14708 11.2728V2.29284C1.14708 1.65578 1.66536 1.13749 2.30242 1.13749H15.4431C16.0802 1.13749 16.5984 1.65578 16.5984 2.29284V11.2728H16.602Z" fill="#FF5C28"/>
<path d="M11.1456 6.66389L15.3999 2.84873C15.5978 2.66877 15.6158 2.36284 15.4359 2.16129C15.2559 1.96333 14.95 1.94534 14.7484 2.1253L8.88173 7.39092L7.73719 6.36875C7.73359 6.36515 7.72999 6.36155 7.72999 6.35795C7.7048 6.33276 7.6796 6.31116 7.65081 6.28957L2.99344 2.1217C2.79189 1.94174 2.48596 1.95973 2.306 2.16129C2.12604 2.36284 2.14403 2.66877 2.34559 2.84873L6.65023 6.69628L2.36358 10.7094C2.16923 10.8929 2.15843 11.1989 2.34199 11.3968C2.43917 11.4976 2.56874 11.5516 2.69831 11.5516C2.81708 11.5516 2.93586 11.5084 3.02944 11.422L7.38087 7.35133L8.56141 8.4059C8.65498 8.48868 8.77016 8.52827 8.88533 8.52827C9.00051 8.52827 9.11928 8.48508 9.20926 8.4023L10.4222 7.31534L14.7484 11.4256C14.842 11.5156 14.9644 11.5588 15.0832 11.5588C15.2127 11.5588 15.3387 11.5084 15.4359 11.4076C15.6194 11.2133 15.6122 10.9037 15.4179 10.7202L11.1456 6.66389Z" fill="#FF5C28"/>
<path d="M17.5702 2.29284L17.4452 2.29245V2.29284H17.5702ZM16.602 11.2728H16.727V11.1478H16.602V11.2728ZM16.5984 11.2728H16.4734V11.3978H16.5984V11.2728ZM11.1456 6.66389L11.0622 6.57083L10.9613 6.66127L11.0596 6.75454L11.1456 6.66389ZM15.3999 2.84873L15.4833 2.9418L15.484 2.94123L15.3999 2.84873ZM15.4359 2.16129L15.5291 2.07803L15.5284 2.0772L15.4359 2.16129ZM14.7484 2.1253L14.6652 2.03205L14.6649 2.03227L14.7484 2.1253ZM8.88173 7.39092L8.79847 7.48416L8.88194 7.5587L8.96523 7.48395L8.88173 7.39092ZM7.73719 6.36875L7.64866 6.45728L7.65393 6.46198L7.73719 6.36875ZM7.72999 6.35795H7.85499V6.30618L7.81838 6.26957L7.72999 6.35795ZM7.65081 6.28957L7.56714 6.38307L7.57581 6.38957L7.65081 6.28957ZM2.99344 2.1217L3.0768 2.02855L3.0767 2.02845L2.99344 2.1217ZM2.34559 2.84873L2.42889 2.75554L2.42884 2.75549L2.34559 2.84873ZM6.65023 6.69628L6.73566 6.78753L6.83541 6.69414L6.73353 6.60308L6.65023 6.69628ZM2.36358 10.7094L2.27815 10.6181L2.27776 10.6185L2.36358 10.7094ZM2.34199 11.3968L2.25031 11.4818L2.25201 11.4836L2.34199 11.3968ZM3.02944 11.422L3.11422 11.5139L3.11483 11.5133L3.02944 11.422ZM7.38087 7.35133L7.46414 7.25811L7.37892 7.18198L7.29547 7.26005L7.38087 7.35133ZM8.56141 8.4059L8.47813 8.49912L8.47858 8.49952L8.56141 8.4059ZM9.20926 8.4023L9.12583 8.3092L9.12463 8.31031L9.20926 8.4023ZM10.4222 7.31534L10.5083 7.22472L10.4247 7.14527L10.3388 7.22225L10.4222 7.31534ZM14.7484 11.4256L14.8351 11.3355L14.8345 11.335L14.7484 11.4256ZM15.4359 11.4076L15.5259 11.4944L15.5268 11.4935L15.4359 11.4076ZM15.4179 10.7202L15.3318 10.8108L15.3321 10.8111L15.4179 10.7202ZM15.4467 0.0371094H2.30242V0.287109H15.4467V0.0371094ZM2.30242 0.0371094C1.06005 0.0371094 0.050293 1.04686 0.050293 2.28924H0.300293C0.300293 1.18493 1.19812 0.287109 2.30242 0.287109V0.0371094ZM0.050293 2.28924V11.2728H0.300293V2.28924H0.050293ZM0.050293 11.2728C0.050293 12.5152 1.06005 13.525 2.30242 13.525V13.275C1.19812 13.275 0.300293 12.3771 0.300293 11.2728H0.050293ZM2.30242 13.525H15.4431V13.275H2.30242V13.525ZM15.4431 13.525C16.6855 13.525 17.6952 12.5152 17.6952 11.2728H17.4452C17.4452 12.3771 16.5474 13.275 15.4431 13.275V13.525ZM17.6952 11.2728V2.29284H17.4452V11.2728H17.6952ZM17.6952 2.29322C17.699 1.05075 16.6893 0.0371094 15.4467 0.0371094V0.287109C16.5508 0.287109 17.4486 1.18825 17.4452 2.29245L17.6952 2.29322ZM16.477 11.2728C16.477 11.8409 16.0147 12.3032 15.4467 12.3032V12.5532C16.1528 12.5532 16.727 11.9789 16.727 11.2728H16.477ZM15.4467 12.3032H2.30242V12.5532H15.4467V12.3032ZM2.30242 12.3032C1.7344 12.3032 1.27208 11.8409 1.27208 11.2728H1.02208C1.02208 11.9789 1.59633 12.5532 2.30242 12.5532V12.3032ZM1.27208 11.2728V2.29284H1.02208V11.2728H1.27208ZM1.27208 2.29284C1.27208 1.72481 1.7344 1.26249 2.30242 1.26249V1.01249C1.59633 1.01249 1.02208 1.58674 1.02208 2.29284H1.27208ZM2.30242 1.26249H15.4431V1.01249H2.30242V1.26249ZM15.4431 1.26249C16.0111 1.26249 16.4734 1.72481 16.4734 2.29284H16.7234C16.7234 1.58674 16.1492 1.01249 15.4431 1.01249V1.26249ZM16.4734 2.29284V11.2728H16.7234V2.29284H16.4734ZM16.5984 11.3978H16.602V11.1478H16.5984V11.3978ZM11.2291 6.75695L15.4833 2.94179L15.3164 2.75567L11.0622 6.57083L11.2291 6.75695ZM15.484 2.94123C15.7323 2.71548 15.7551 2.33115 15.5291 2.07804L15.3426 2.24454C15.4766 2.39453 15.4634 2.62207 15.3158 2.75624L15.484 2.94123ZM15.5284 2.0772C15.3026 1.82888 14.9183 1.80606 14.6652 2.03205L14.8317 2.21854C14.9817 2.08461 15.2092 2.09779 15.3434 2.24537L15.5284 2.0772ZM14.6649 2.03227L8.79824 7.2979L8.96523 7.48395L14.8319 2.21832L14.6649 2.03227ZM8.965 7.29769L7.82045 6.27552L7.65393 6.46198L8.79847 7.48416L8.965 7.29769ZM7.82558 6.28036C7.82214 6.27693 7.82722 6.28166 7.83224 6.28835C7.83628 6.29373 7.85499 6.31897 7.85499 6.35795H7.60499C7.60499 6.40054 7.6255 6.42937 7.63224 6.43835C7.63996 6.44865 7.64863 6.45697 7.6488 6.45714L7.82558 6.28036ZM7.81838 6.26957C7.78866 6.23984 7.75893 6.21441 7.72581 6.18957L7.57581 6.38957C7.60028 6.40792 7.62094 6.42568 7.6416 6.44634L7.81838 6.26957ZM7.73417 6.19642L3.0768 2.02855L2.91009 2.21484L7.56745 6.38272L7.73417 6.19642ZM3.0767 2.02845C2.82341 1.8023 2.43848 1.82522 2.21275 2.07804L2.39924 2.24454C2.53343 2.09424 2.76037 2.08117 2.91019 2.21494L3.0767 2.02845ZM2.21275 2.07804C1.9866 2.33133 2.00952 2.71625 2.26234 2.94198L2.42884 2.75549C2.27854 2.6213 2.26547 2.39436 2.39924 2.24454L2.21275 2.07804ZM2.26229 2.94193L6.56693 6.78948L6.73353 6.60308L2.42889 2.75554L2.26229 2.94193ZM6.5648 6.60503L2.27816 10.6181L2.44901 10.8006L6.73566 6.78753L6.5648 6.60503ZM2.27776 10.6185C2.03344 10.8493 2.02022 11.2337 2.25033 11.4818L2.43365 11.3118C2.29664 11.1641 2.30501 10.9366 2.44941 10.8003L2.27776 10.6185ZM2.25201 11.4836C2.37224 11.6083 2.53408 11.6766 2.69831 11.6766V11.4266C2.6034 11.4266 2.50609 11.3869 2.43197 11.3101L2.25201 11.4836ZM2.69831 11.6766C2.84741 11.6766 2.99676 11.6223 3.11422 11.5139L2.94465 11.3302C2.87495 11.3945 2.78675 11.4266 2.69831 11.4266V11.6766ZM3.11483 11.5133L7.46626 7.44262L7.29547 7.26005L2.94404 11.3307L3.11483 11.5133ZM7.29759 7.44455L8.47813 8.49912L8.64468 8.31268L7.46414 7.25811L7.29759 7.44455ZM8.47858 8.49952C8.59617 8.60354 8.74123 8.65327 8.88533 8.65327V8.40327C8.79909 8.40327 8.7138 8.37382 8.64423 8.31227L8.47858 8.49952ZM8.88533 8.65327C9.03062 8.65327 9.17994 8.59913 9.29389 8.49429L9.12463 8.31031C9.05862 8.37104 8.9704 8.40327 8.88533 8.40327V8.65327ZM9.29268 8.49539L10.5056 7.40843L10.3388 7.22225L9.12584 8.30921L9.29268 8.49539ZM10.3361 7.40596L14.6623 11.5162L14.8345 11.335L10.5083 7.22472L10.3361 7.40596ZM14.6618 11.5157C14.7805 11.6299 14.9348 11.6838 15.0832 11.6838V11.4338C14.994 11.4338 14.9035 11.4013 14.8351 11.3355L14.6618 11.5157ZM15.0832 11.6838C15.2461 11.6838 15.4047 11.62 15.5259 11.4944L15.3459 11.3209C15.2727 11.3968 15.1794 11.4338 15.0832 11.4338V11.6838ZM15.5268 11.4935C15.7572 11.2495 15.7488 10.8608 15.5037 10.6293L15.3321 10.8111C15.4757 10.9467 15.4817 11.1771 15.345 11.3218L15.5268 11.4935ZM15.5039 10.6295L11.2317 6.57324L11.0596 6.75454L15.3318 10.8108L15.5039 10.6295Z" fill="white"/>
</svg>
