<svg width="12" height="17" viewBox="0 0 12 17" fill="none" xmlns="http://www.w3.org/2000/svg">
<path d="M5.62891 0.826172C3.42291 0.826172 1.62891 2.62017 1.62891 4.82617C1.62891 7.03217 3.42291 8.82617 5.62891 8.82617C7.83491 8.82617 9.62891 7.03217 9.62891 4.82617C9.62891 2.62017 7.83491 0.826172 5.62891 0.826172ZM5.62891 6.82617C4.52591 6.82617 3.62891 5.92917 3.62891 4.82617C3.62891 3.72317 4.52591 2.82617 5.62891 2.82617C6.73191 2.82617 7.62891 3.72317 7.62891 4.82617C7.62891 5.92917 6.73191 6.82617 5.62891 6.82617Z" fill="white"/>
<path d="M11.3416 9.1058C10.9573 8.73361 10.3362 8.73361 9.9519 9.1058C7.8448 11.1466 4.41486 11.1466 2.30677 9.1058C1.9225 8.73361 1.30138 8.73361 0.917109 9.1058C0.532839 9.47798 0.532839 10.0796 0.917109 10.4527C2.1397 11.6368 3.68956 12.3117 5.28758 12.4878L2.48564 15.2016C2.10137 15.5738 2.10137 16.1753 2.48564 16.5475C2.86991 16.9197 3.49104 16.9197 3.87531 16.5475L6.12885 14.3649L8.38238 16.5475C8.57403 16.7331 8.82562 16.8264 9.07722 16.8264C9.32881 16.8264 9.5804 16.7331 9.77205 16.5475C10.1563 16.1753 10.1563 15.5738 9.77205 15.2016L6.97011 12.4878C8.56813 12.3117 10.118 11.6368 11.3406 10.4527C11.7249 10.0805 11.7249 9.47798 11.3416 9.1058Z" fill="white"/>
</svg>
