<svg width="19" height="19" viewBox="0 0 19 19" fill="none" xmlns="http://www.w3.org/2000/svg">
<path d="M14.9709 18.4711C14.2219 18.4711 13.3174 18.2829 12.3227 17.9065C10.1419 17.082 7.76925 15.4524 5.64176 13.319C3.51366 11.1849 1.88868 8.80491 1.0659 6.61801C0.318192 4.62965 0.316376 2.99767 1.06166 2.2509C1.16882 2.14343 1.2778 2.02808 1.39041 1.90908C2.07031 1.19205 2.83861 0.385172 3.85694 0.4216C4.55864 0.450742 5.23854 0.887879 5.93479 1.75669C7.99205 4.32244 7.06453 5.23678 5.99109 6.29684L5.80159 6.48505C5.62602 6.66112 5.29424 7.4765 8.38074 10.5717C9.38818 11.5819 10.2473 12.3214 10.9338 12.7689C11.3661 13.0506 12.1393 13.4768 12.4565 13.1587L12.6472 12.9656C13.7031 11.8916 14.6149 10.9645 17.1716 13.0257C18.038 13.7239 18.4733 14.4051 18.5024 15.11C18.5441 16.1306 17.7335 16.9029 17.0178 17.5841C16.8998 17.697 16.7847 17.8063 16.6776 17.9131C16.3077 18.2847 15.7162 18.4711 14.9709 18.4711ZM3.78429 1.02752C3.0608 1.02752 2.40754 1.71722 1.82935 2.32739C1.71311 2.45004 1.6005 2.56903 1.4897 2.68014C0.934522 3.23627 0.990828 4.69765 1.63259 6.4043C2.4257 8.51227 4.00164 10.8157 6.07041 12.8903C8.13856 14.9637 10.4344 16.544 12.537 17.3388C14.2389 17.9836 15.6962 18.0382 16.2501 17.4827C16.3609 17.3716 16.4796 17.2586 16.6019 17.1427C17.2237 16.5501 17.929 15.8786 17.8981 15.1337C17.8769 14.6219 17.5052 14.0712 16.7932 13.4974C14.6627 11.7793 14.067 12.3858 13.0789 13.3906L12.8852 13.5867C12.4129 14.0609 11.6458 13.9558 10.6045 13.2771C9.88221 12.8059 8.9898 12.0397 7.9533 10.9997C5.39172 8.43152 4.57257 6.85965 5.37416 6.05398L5.56729 5.86274C6.5717 4.87189 7.17774 4.27387 5.46376 2.13615C4.89042 1.42276 4.3419 1.04998 3.83152 1.02813C3.81578 1.02752 3.80003 1.02752 3.78429 1.02752Z" fill="#FF5C28" stroke="white" stroke-width="0.75"/>
</svg>
