<svg width="19" height="20" viewBox="0 0 19 20" fill="none" xmlns="http://www.w3.org/2000/svg">
<path d="M15.0959 19.1884C14.3469 19.1884 13.4424 19.0002 12.4477 18.6237C10.2669 17.7993 7.89425 16.1697 5.76676 14.0362C3.63866 11.9022 2.01368 9.52219 1.1909 7.3353C0.443192 5.34693 0.441376 3.71496 1.18666 2.96818C1.29382 2.86072 1.4028 2.74536 1.51541 2.62636C2.19531 1.90934 2.96361 1.10246 3.98194 1.13889C4.68364 1.16803 5.36354 1.60516 6.05979 2.47397C8.11705 5.03972 7.18953 5.95407 6.11609 7.01412L5.92659 7.20233C5.75102 7.3784 5.41924 8.19378 8.50574 11.289C9.51318 12.2992 10.3723 13.0387 11.0588 13.4862C11.4911 13.7679 12.2643 14.1941 12.5815 13.876L12.7722 13.6829C13.8281 12.6089 14.7399 11.6818 17.2966 13.743C18.163 14.4412 18.5983 15.1224 18.6274 15.8273C18.6691 16.8479 17.8585 17.6201 17.1428 18.3014C17.0248 18.4143 16.9097 18.5236 16.8026 18.6304C16.4327 19.002 15.8412 19.1884 15.0959 19.1884ZM3.90929 1.7448C3.1858 1.7448 2.53254 2.43451 1.95435 3.04468C1.83811 3.16732 1.7255 3.28632 1.6147 3.39742C1.05952 3.95356 1.11583 5.41493 1.75759 7.12159C2.5507 9.22956 4.12664 11.533 6.19541 13.6076C8.26356 15.681 10.5594 17.2613 12.662 18.0561C14.3639 18.7008 15.8212 18.7555 16.3751 18.2C16.4859 18.0889 16.6046 17.9759 16.7269 17.86C17.3487 17.2674 18.054 16.5959 18.0231 15.851C18.0019 15.3391 17.6302 14.7885 16.9182 14.2147C14.7877 12.4965 14.192 13.1031 13.2039 14.1079L13.0102 14.304C12.5379 14.7782 11.7708 14.6731 10.7295 13.9943C10.0072 13.5232 9.1148 12.757 8.0783 11.717C5.51672 9.14881 4.69757 7.57694 5.49916 6.77127L5.69229 6.58002C6.6967 5.58918 7.30274 4.99115 5.58876 2.85343C5.01542 2.14005 4.4669 1.76727 3.95652 1.74541C3.94078 1.7448 3.92503 1.7448 3.90929 1.7448Z" fill="#FF5C28" stroke="#FF5C28" stroke-width="0.5"/>
</svg>
