<svg width="76" height="75" viewBox="0 0 76 75" fill="none" xmlns="http://www.w3.org/2000/svg">
<path d="M75.1585 5.61584C75.1718 4.37398 74.6737 3.16019 73.7916 2.2858C72.9099 1.41198 71.7348 0.930664 70.4825 0.930664C69.2227 0.930664 68.0561 1.41975 67.1975 2.30782L63.9742 5.6429L62.6477 7.03531L48.7402 2.83548C48.2269 2.68046 47.6696 2.8185 47.2904 3.19459L44.3389 6.12018C44.0232 6.4331 43.8702 6.87267 43.9244 7.31195C43.9784 7.75138 44.2332 8.14159 44.6155 8.3703L55.2165 14.7123L53.1285 16.8858C47.4687 12.566 40.4849 10.2008 33.3117 10.2008C24.632 10.2008 16.4717 13.5515 10.3341 19.6355C4.1965 25.7196 0.816406 33.8087 0.816406 42.4127C0.816406 51.0169 4.1965 59.1061 10.3341 65.1902C16.4717 71.2742 24.632 74.6249 33.3117 74.6249C41.9915 74.6249 50.1517 71.2742 56.2892 65.1902C62.4268 59.1061 65.8069 51.0169 65.8069 42.4127C65.8069 40.5288 65.6392 38.6581 65.3119 36.8212C65.3035 36.7226 65.2855 36.6259 65.2575 36.5323C64.3212 31.5436 62.2057 26.8149 59.0634 22.769L61.2561 20.6991L67.6536 31.2076C67.8843 31.5866 68.2779 31.8392 68.7212 31.8928C69.1632 31.9453 69.6077 31.7947 69.9233 31.4818L72.8749 28.5562C73.2536 28.181 73.3932 27.6296 73.2381 27.1215L69.0263 13.3271L73.7694 8.82254C74.6519 7.98441 75.1451 6.84561 75.1585 5.61584ZM24.5468 70.4325C12.496 66.7206 3.72039 55.5635 3.72039 42.4127C3.72039 38.4416 4.52218 34.6533 5.97113 31.1957C7.80442 32.4914 10.5603 32.705 13.0788 32.899C17.5445 33.243 19.023 33.6564 18.9781 35.4253C18.9374 37.0292 17.1946 38.3703 15.3493 39.7902C12.771 41.7741 9.5622 44.2431 10.5244 48.4231C11.509 52.7014 14.9519 52.8955 17.7183 53.0516C19.4172 53.1473 21.1739 53.2464 22.7736 54.0473C24.5052 54.9141 25.8152 56.5222 26.4625 58.5756C27.1865 60.8725 27.4008 64.7544 24.5468 70.4325ZM62.9028 42.4126C62.9029 52.5402 57.6983 61.4849 49.8016 66.758C47.7557 64.1196 47.9548 62.8141 48.1835 61.3277C48.3585 60.1907 48.5568 58.9017 47.9461 57.2144C47.319 55.4823 45.9307 53.6253 43.5788 51.3729L43.2611 51.0356C41.7487 49.4324 40.554 48.166 40.3221 46.9067C40.1711 46.0866 40.2754 44.6687 42.9136 41.8355C43.6004 41.0982 44.2367 40.7307 44.8591 40.7121C46.1657 40.6767 47.7213 42.1508 49.0897 43.4545C50.9103 45.189 52.9739 47.1547 55.2175 45.8406C56.7368 44.9507 57.5182 43.2878 58.2738 41.6795C59.5025 39.0648 60.267 37.7018 62.58 38.1081C62.7929 39.5268 62.9028 40.9655 62.9028 42.4126ZM61.9809 35.1626C58.1797 35.0645 56.6845 38.244 55.6414 40.4641C55.0463 41.7305 54.4844 42.9264 53.7403 43.3624C53.7227 43.3726 53.7146 43.3749 53.7146 43.3749C53.712 43.374 53.5035 43.3897 52.9549 43.0054C52.4015 42.6175 51.7702 42.016 51.1017 41.3791C49.321 39.6829 47.3085 37.7598 44.772 37.8349C43.3491 37.8771 42.0057 38.5662 40.7796 39.8831C38.0638 42.7996 37.0416 45.1253 37.4652 47.4242C37.8504 49.5151 39.3747 51.1311 41.1399 53.0022L41.4809 53.3642C41.4987 53.3829 41.5168 53.4012 41.5354 53.419C45.831 57.5253 45.5908 59.0864 45.3126 60.8941C45.044 62.6397 44.7195 64.7666 47.3071 68.2522C43.1375 70.4803 38.3711 71.7465 33.3114 71.7465C31.2938 71.7462 29.3228 71.5443 27.4174 71.161C30.4086 64.9163 30.0937 60.4424 29.2344 57.717C28.3509 54.9143 26.5212 52.6985 24.0827 51.4776C21.9429 50.4066 19.7861 50.2849 17.8833 50.1776C14.8899 50.0087 13.8303 49.8453 13.3557 47.7827C12.8424 45.5529 14.4392 44.1347 17.13 42.0643C19.3218 40.3778 21.806 38.4663 21.8814 35.4976C21.9195 33.9948 21.4108 31.985 18.7705 30.9448C17.2093 30.3299 15.2238 30.1769 13.304 30.0291C10.8112 29.8371 8.24452 29.6383 7.27662 28.481C12.2872 19.3169 22.0784 13.0795 33.3117 13.0795C39.608 13.0795 45.7441 15.0799 50.794 18.747L47.5708 18.5172C47.153 18.4887 46.738 18.6397 46.4399 18.935L43.9557 21.3976C43.6239 21.7266 43.4729 22.1942 43.5505 22.6531C43.6279 23.112 43.9244 23.5053 44.3462 23.7091L49.6124 26.2543L52.1801 31.4745C52.3857 31.8926 52.7825 32.1864 53.2454 32.2632C53.3254 32.2766 53.4054 32.2831 53.4852 32.2831C53.867 32.2831 54.2374 32.1337 54.5119 31.8615L56.9959 29.3993C57.2939 29.1039 57.4476 28.6948 57.4174 28.2783L57.1856 25.0828C59.4266 28.1157 61.0487 31.544 61.9809 35.1626ZM71.7604 6.74399L66.3739 11.8595C65.9791 12.2343 65.8303 12.7973 65.9887 13.3157L70.2066 27.1303L69.1815 28.1463L62.8077 17.6767C62.5803 17.3031 62.1939 17.0519 61.7577 16.9939C61.3201 16.9356 60.8819 17.0773 60.5632 17.3782L54.6502 22.9601C54.3362 23.2566 54.1722 23.6768 54.2033 24.1055L54.4734 27.8288L53.898 28.3992L52.0033 24.5471C51.8611 24.2584 51.6257 24.0249 51.3343 23.8843L47.4486 22.0064L48.0241 21.4359L51.7801 21.7036C52.211 21.7329 52.6365 21.5719 52.9357 21.2605L58.5664 15.3991C58.8702 15.0831 59.0126 14.6475 58.9541 14.215C58.8956 13.7825 58.6422 13.3996 58.2653 13.1742L47.7036 6.85597L48.7274 5.84124L62.6622 10.0491C63.1896 10.2085 63.7624 10.0579 64.141 9.66052L66.0783 7.62702L69.2942 4.29957C69.5997 3.98349 70.0218 3.80948 70.4825 3.80948C70.9522 3.80948 71.4099 3.99616 71.7382 4.32159C72.0715 4.65206 72.2599 5.11265 72.2548 5.58518C72.2499 6.03426 72.0743 6.44576 71.7604 6.74399Z" fill="#FF5C28"/>
<path d="M23.6451 18.4856C23.3059 17.7654 22.442 17.454 21.7153 17.7902C18.8123 19.1339 16.1919 20.9535 13.9272 23.1985C13.3602 23.7607 13.3602 24.672 13.9272 25.2342C14.2108 25.5151 14.5823 25.6558 14.9539 25.6558C15.3255 25.6558 15.6972 25.5151 15.9806 25.2342C18.0053 23.2268 20.3481 21.6001 22.9436 20.3988C23.6702 20.0624 23.9843 19.206 23.6451 18.4856Z" fill="#FF5C28"/>
<path d="M26.5164 18.7788C27.3184 18.7788 27.9684 18.1344 27.9684 17.3395C27.9684 16.5447 27.3184 15.9003 26.5164 15.9003C25.7145 15.9003 25.0645 16.5447 25.0645 17.3395C25.0645 18.1344 25.7145 18.7788 26.5164 18.7788Z" fill="#FF5C28"/>
</svg>
