<svg width="80" height="80" viewBox="0 0 80 80" fill="none" xmlns="http://www.w3.org/2000/svg">
<circle cx="39.6162" cy="40.3818" r="39.1162" stroke="#FF5C28"/>
<path d="M36.0355 41.1299L36.8675 32.8096H45.3988V34.1104H38.0745L37.4769 39.876C38.391 39.251 39.4613 38.9385 40.6878 38.9385C42.2269 38.9385 43.4535 39.4385 44.3675 40.4385C45.2816 41.4385 45.7386 42.7705 45.7386 44.4346C45.7386 46.2314 45.2933 47.626 44.4027 48.6182C43.512 49.6104 42.2581 50.1064 40.641 50.1064C39.1566 50.1064 37.9535 49.6924 37.0316 48.8643C36.1097 48.0361 35.5824 46.876 35.4495 45.3838H36.7972C36.93 46.5479 37.3245 47.4307 37.9808 48.0322C38.637 48.626 39.5238 48.9229 40.641 48.9229C41.8597 48.9229 42.7777 48.5361 43.3949 47.7627C44.0199 46.9893 44.3324 45.8877 44.3324 44.458C44.3324 43.208 43.9847 42.1885 43.2894 41.3994C42.5941 40.6104 41.6449 40.2158 40.4417 40.2158C39.7777 40.2158 39.1995 40.3018 38.7074 40.4736C38.2152 40.6377 37.6956 40.9619 37.1488 41.4463L36.0355 41.1299Z" fill="#FF5C28"/>
</svg>
