<svg width="75" height="48" viewBox="0 0 75 48" fill="none" xmlns="http://www.w3.org/2000/svg">
<path d="M72.89 12.6983C73.692 12.6983 74.342 12.0538 74.342 11.259V1.78503C74.342 0.990235 73.692 0.345703 72.89 0.345703H65.0493C63.7576 0.345703 62.6612 1.18656 62.2851 2.34479H41.8535C41.8382 2.33716 41.8238 2.32852 41.808 2.32147C37.8654 0.545769 33.5349 0.0415726 29.2852 0.864005L17.5563 3.13282H12.1921C12.1426 1.58813 10.8628 0.345703 9.29276 0.345703H1.45199C0.650057 0.345703 0 0.990235 0 1.78503V11.0382C0 11.833 0.650057 12.4775 1.45199 12.4775C2.25393 12.4775 2.90399 11.833 2.90399 11.0382V3.22436H9.29276V30.5123H2.90399V22.8407C2.90399 22.0459 2.25393 21.4014 1.45199 21.4014C0.650057 21.4014 0 22.0459 0 22.8407V31.9516C0 32.7464 0.650057 33.391 1.45199 33.391H9.29276C10.894 33.391 12.1967 32.0996 12.1967 30.5123V30.4965C12.8631 30.6819 13.4935 30.9922 14.0438 31.4148L14.7218 31.9352C14.8505 33.0775 15.4084 34.1732 16.3718 34.96C17.2305 35.6611 18.2701 36.0025 19.3042 36.0025C19.4082 36.0025 19.512 35.9977 19.6157 35.9908C19.7631 37.155 20.3427 38.2024 21.2601 38.9514C22.1188 39.6525 23.1584 39.994 24.1927 39.9939C24.2966 39.9939 24.4003 39.9893 24.504 39.9824C24.6514 41.1465 25.2311 42.1939 26.1485 42.9431C26.9834 43.6246 28.0089 43.9882 29.0767 43.9882C29.1823 43.9882 29.2884 43.9833 29.3947 43.9761C29.5373 45.0943 30.0918 46.1631 31.0366 46.9348C31.8715 47.6163 32.8971 47.9799 33.9649 47.9799C34.115 47.9799 34.2662 47.9725 34.4176 47.9581C35.6456 47.8405 36.7537 47.2559 37.5381 46.312L38.7188 44.8911C39.0663 44.4731 39.3255 44.0115 39.5 43.5287C40.1875 43.8926 40.9578 44.0859 41.757 44.0859C41.7805 44.0859 41.804 44.0856 41.8276 44.0853C43.1119 44.0672 44.3121 43.5544 45.2072 42.6412C45.6794 42.1596 46.0273 41.6033 46.2531 41.0118L46.7542 41.4945C47.6871 42.3932 48.8963 42.8406 50.1048 42.8406C51.3592 42.8406 52.6125 42.3581 53.5537 41.3982C54.0882 40.8532 54.4634 40.2125 54.6821 39.5332C55.3539 39.8633 56.087 40.0292 56.8203 40.0292C58.0746 40.0292 59.328 39.5468 60.2692 38.5868C61.1643 37.6737 61.6473 36.4698 61.6288 35.1966C61.6105 33.9235 61.0932 32.7338 60.1733 31.8477L59.1645 30.8733L62.1453 29.2784V30.5123C62.1453 32.0996 63.448 33.391 65.0493 33.391H72.89C73.692 33.391 74.342 32.7464 74.342 31.9516V22.4089C74.342 21.6141 73.692 20.9696 72.89 20.9696C72.0881 20.9696 71.4381 21.6141 71.4381 22.4089V30.5123H65.0493V26.8743C65.0493 26.8704 65.0493 26.8665 65.0493 26.8626V3.22436H71.4381V11.259C71.4381 12.0538 72.0881 12.6983 72.89 12.6983ZM21.8124 31.0857L20.6317 32.5066C20.0305 33.2302 18.9479 33.3341 18.2182 32.7379C17.4884 32.1421 17.3837 31.0688 17.9848 30.3455L19.1657 28.9246C19.4569 28.5741 19.8683 28.3571 20.3241 28.3134C20.3803 28.308 20.4364 28.3052 20.4921 28.3052C20.8884 28.3052 21.2694 28.4403 21.5791 28.6933C22.3089 29.2892 22.4134 30.3625 21.8124 31.0857ZM26.7006 35.0776L25.5198 36.4985C24.9188 37.2217 23.8359 37.3257 23.1063 36.7296C22.7527 36.441 22.5339 36.0333 22.4898 35.5813C22.4458 35.1294 22.5818 34.6877 22.8731 34.3372L24.054 32.9161C24.3451 32.5657 24.7565 32.3487 25.2124 32.3051C25.2686 32.2997 25.3246 32.2969 25.3804 32.2969C25.7766 32.2969 26.1577 32.4319 26.4674 32.685C26.8209 32.9736 27.0397 33.3815 27.0839 33.8334C27.1279 34.2852 26.9918 34.7268 26.7006 35.0776ZM31.589 39.0687L30.4081 40.4897C30.1169 40.8402 29.7056 41.0571 29.2497 41.1007C28.7933 41.1449 28.3478 41.0098 27.9946 40.721C27.641 40.4324 27.422 40.0245 27.3779 39.5726C27.3339 39.1208 27.47 38.6791 27.7612 38.3284L28.942 36.9075C29.2806 36.5002 29.7718 36.2893 30.2669 36.2893C30.6508 36.2893 31.0369 36.4161 31.3556 36.6764C32.0854 37.2723 32.1901 38.3454 31.589 39.0687ZM36.477 43.0605L35.2961 44.4814C35.0049 44.8319 34.5934 45.049 34.1377 45.0926C33.6813 45.1369 33.236 45.0013 32.8826 44.7126C32.1528 44.1167 32.0481 43.0434 32.6492 42.3201L33.8301 40.8992C34.1213 40.5487 34.5327 40.3318 34.9887 40.2882C35.0449 40.2828 35.1009 40.28 35.1567 40.28C35.5531 40.28 35.9339 40.415 36.2438 40.6681C36.5973 40.9567 36.8162 41.3644 36.8603 41.8164C36.9043 42.2683 36.7682 42.71 36.477 43.0605ZM58.1861 36.5801C57.4542 37.3268 56.2461 37.3438 55.493 36.6184L50.6789 31.9806C50.6735 31.9754 50.6677 31.9712 50.6624 31.966L45.9199 27.3973C45.3449 26.8432 44.4255 26.8564 43.8666 27.4262C43.3077 27.9964 43.3208 28.9076 43.8959 29.4616L51.4321 36.7217C52.1852 37.4473 52.2025 38.6449 51.4705 39.3915C50.7387 40.1382 49.5305 40.1552 48.7774 39.4298L41.2411 32.1697C41.226 32.155 41.2096 32.1425 41.1939 32.1287L37.5731 28.6406C36.9981 28.0866 36.0788 28.0997 35.5198 28.6695C34.9609 29.2397 34.974 30.1509 35.5491 30.7049L43.0853 37.965C43.8384 38.6906 43.8557 39.8882 43.1238 40.6348C42.7692 40.9965 42.2938 41.1996 41.7852 41.2068C41.2793 41.2159 40.7956 41.0243 40.4306 40.6728L38.32 38.6396C38.2726 38.594 38.2221 38.5537 38.1704 38.5157C38.1434 38.4927 38.1173 38.4688 38.0896 38.4462C37.144 37.6743 35.9788 37.3395 34.8436 37.4153C34.7015 36.2964 34.1468 35.2267 33.2014 34.4546C32.2566 33.6831 31.0921 33.3482 29.9577 33.4236C29.8101 32.2597 29.2307 31.2121 28.3133 30.4631C27.3959 29.7141 26.2472 29.3505 25.0671 29.4301C24.9245 28.3119 24.37 27.243 23.4251 26.4714C22.4729 25.694 21.2729 25.3312 20.0443 25.4482C18.8164 25.5658 17.7082 26.1504 16.9238 27.0943L15.7429 28.5152C15.6438 28.6346 15.552 28.7575 15.4671 28.8834C14.487 28.2111 13.3662 27.7554 12.1963 27.5476V6.01148H17.6962C17.7895 6.01148 17.8826 6.00255 17.9744 5.9847L29.8411 3.68926C31.8544 3.29992 33.8886 3.25862 35.8769 3.55382C34.3746 4.22354 32.9899 5.16098 31.7853 6.34252L20.7918 17.125C18.7982 19.0802 18.7621 22.2969 20.7112 24.2954C21.7069 25.3166 23.0515 25.8512 24.4128 25.851C25.2776 25.8509 26.1491 25.6351 26.9417 25.1913L38.462 18.7393H42.4396L58.1475 33.9107C58.5124 34.262 58.7173 34.7333 58.7246 35.2376C58.7321 35.7417 58.5407 36.2185 58.1861 36.5801ZM62.1453 26.0072L56.9845 28.768L46.601 18.7392H47.6206C48.4225 18.7392 49.0726 18.0946 49.0726 17.2998C49.0726 16.505 48.4225 15.8605 47.6206 15.8605H38.0804C37.8301 15.8605 37.5841 15.9246 37.3662 16.0468L25.5134 22.6848C24.6248 23.1827 23.5088 23.022 22.7993 22.2946C21.9502 21.424 21.966 20.0228 22.8345 19.1711L33.828 8.38867C35.9091 6.34742 38.6677 5.22344 41.5954 5.22344H62.1453V26.0072Z" fill="#FF5C28"/>
<path d="M73.9161 15.8518C73.646 15.5826 73.2714 15.4301 72.8895 15.4301C72.5076 15.4301 72.133 15.5826 71.8629 15.8518C71.5929 16.1195 71.4375 16.4895 71.4375 16.8694C71.4375 17.2479 71.5929 17.6193 71.8629 17.887C72.133 18.1546 72.5076 18.3087 72.8895 18.3087C73.2714 18.3087 73.646 18.1547 73.9161 17.887C74.1861 17.6178 74.3415 17.2479 74.3415 16.8694C74.3415 16.4894 74.1861 16.1195 73.9161 15.8518Z" fill="#FF5C28"/>
<path d="M2.47856 15.8518C2.20849 15.5826 1.83387 15.4301 1.452 15.4301C1.07012 15.4301 0.695506 15.5826 0.425435 15.8518C0.155364 16.1195 0 16.4895 0 16.8694C0 17.2479 0.155364 17.6178 0.425435 17.887C0.695506 18.1547 1.07012 18.3087 1.452 18.3087C1.83387 18.3087 2.20849 18.1547 2.47856 17.887C2.74863 17.6178 2.90399 17.2479 2.90399 16.8694C2.90399 16.4894 2.74863 16.1195 2.47856 15.8518Z" fill="#FF5C28"/>
</svg>
