<svg width="80" height="81" viewBox="0 0 80 81" fill="none" xmlns="http://www.w3.org/2000/svg">
<circle cx="39.6162" cy="40.541" r="39.1162" stroke="#FF5C28"/>
<path d="M38.2035 40.7383H39.6566C40.4613 40.7383 41.1644 40.5977 41.766 40.3164C42.3675 40.0273 42.8245 39.6367 43.137 39.1445C43.4574 38.6445 43.6175 38.0703 43.6175 37.4219C43.6175 36.3281 43.3089 35.4727 42.6917 34.8555C42.0745 34.2383 41.1878 33.9297 40.0316 33.9297C38.9378 33.9297 38.0394 34.2539 37.3363 34.9023C36.641 35.543 36.2933 36.3906 36.2933 37.4453H34.887C34.887 36.5625 35.1097 35.7578 35.555 35.0312C36.0003 34.2969 36.6175 33.7305 37.4066 33.332C38.1956 32.9336 39.0706 32.7344 40.0316 32.7344C41.5785 32.7344 42.7972 33.1562 43.6878 34C44.5785 34.8438 45.0238 36 45.0238 37.4688C45.0238 38.2891 44.762 39.0469 44.2386 39.7422C43.723 40.4297 43.012 40.9453 42.1058 41.2891C43.1683 41.5859 43.973 42.0977 44.5199 42.8242C45.0667 43.543 45.3402 44.4023 45.3402 45.4023C45.3402 46.8633 44.8636 48.0391 43.9105 48.9297C42.9574 49.8203 41.6839 50.2656 40.0902 50.2656C39.0745 50.2656 38.141 50.0625 37.2894 49.6562C36.4456 49.25 35.7894 48.6836 35.3206 47.957C34.8597 47.2227 34.6292 46.3711 34.6292 45.4023H36.0355C36.0355 46.4883 36.4144 47.375 37.1722 48.0625C37.93 48.7422 38.9027 49.082 40.0902 49.082C41.3011 49.082 42.2425 48.7734 42.9144 48.1562C43.5941 47.5312 43.9339 46.6289 43.9339 45.4492C43.9339 44.3086 43.5667 43.4375 42.8324 42.8359C42.1058 42.2344 41.0316 41.9336 39.6097 41.9336H38.2035V40.7383Z" fill="#FF5C28"/>
</svg>
