<svg width="76" height="76" viewBox="0 0 76 76" fill="none" xmlns="http://www.w3.org/2000/svg">
<path d="M73.8948 16.6072C72.5027 15.2112 70.4098 14.9376 68.7415 15.7835L59.4794 6.49546C59.7924 5.87805 59.9591 5.19157 59.9591 4.47901C59.9591 3.28809 59.4966 2.16844 58.6568 1.32613C56.9233 -0.412244 54.1025 -0.411949 52.3689 1.32613C48.2097 5.49718 45.919 11.0428 45.9188 16.9413V20.4633H42.4069C30.2643 20.4633 20.3855 30.3698 20.3855 42.5466V46.0682H16.8734C10.9913 46.0684 5.4612 48.3656 1.30215 52.5363C0.462493 53.3785 0 54.4983 0 55.6892C0 56.8801 0.462493 57.9998 1.30229 58.8421C2.16912 59.7112 3.30765 60.146 4.44619 60.146C5.58472 60.146 6.7234 59.7113 7.59023 58.8421C8.70937 57.7198 9.99595 56.8275 11.3922 56.1835L19.1915 64.0045C18.7605 64.944 18.2164 65.8327 17.5674 66.6554L15.306 64.3877C14.7323 63.8129 13.8025 63.8127 13.229 64.3877C12.6555 64.9628 12.6553 65.8954 13.229 66.4707L15.7149 68.9636C14.8764 70.6353 15.1508 72.7292 16.5406 74.1231C17.4074 74.9922 18.546 75.427 19.6845 75.427C20.823 75.427 21.9617 74.9924 22.8285 74.1231C26.9876 69.9522 29.2783 64.4066 29.2785 58.5079V54.9861H32.7904C36.4159 54.9861 40.013 54.0793 43.1929 52.3634C43.9071 51.978 44.1747 51.0847 43.7904 50.3685C43.4062 49.6522 42.5157 49.3842 41.8012 49.7693C39.0477 51.2551 35.9318 52.0404 32.7904 52.0404H29.2785V49.0139H32.7904C32.7901 49.0139 32.7906 49.0139 32.7904 49.0139C37.0753 49.0139 41.1087 47.3362 44.1461 44.2904C47.1836 41.2442 48.8565 37.1999 48.8565 32.9028V16.9413C48.8566 11.8296 50.8417 7.02362 54.4462 3.409C55.0346 2.81914 55.9917 2.81884 56.5801 3.409C56.865 3.69473 57.022 4.07487 57.022 4.47901C57.022 4.88316 56.8651 5.263 56.5801 5.54887C53.5454 8.59218 51.8744 12.6382 51.8745 16.9415L51.8744 32.9028C51.8744 36.1395 51.0501 39.3395 49.4908 42.1572C49.0972 42.8684 49.3531 43.7649 50.0623 44.1598C50.7718 44.5543 51.6657 44.2979 52.0591 43.5865C53.8599 40.3326 54.8116 36.6382 54.8116 32.9028V29.3811H58.3237C64.2058 29.381 69.7359 27.0838 73.895 22.9131C74.7348 22.0709 75.1973 20.9513 75.1973 19.7603C75.1971 18.569 74.7346 17.4493 73.8948 16.6072ZM5.51319 56.7591C4.92483 57.3489 3.96768 57.3492 3.37932 56.7591C3.0944 56.4733 2.93739 56.0932 2.93739 55.689C2.93739 55.2849 3.09425 54.9051 3.37932 54.6192C6.98365 51.0046 11.776 49.0139 16.8736 49.0138H20.3857V52.04H16.8737C12.582 52.0403 8.54752 53.7162 5.51319 56.7591ZM14.5585 55.1926C15.3154 55.0582 16.0888 54.9859 16.8737 54.9859H20.3857V58.5077C20.3857 59.2948 20.3135 60.0704 20.1796 60.8295L14.5585 55.1926ZM32.7903 46.0682H29.2783V42.5464C29.2783 41.6775 29.3626 40.8212 29.5264 39.9867L35.3429 45.8195C34.5107 45.9837 33.6568 46.0682 32.7903 46.0682ZM38.4594 44.7789L30.564 36.8613C31.0087 35.9339 31.5638 35.0565 32.2238 34.2462L41.0673 43.1146C40.259 43.7764 39.3841 44.333 38.4594 44.7789ZM43.1234 41.0106L34.3218 32.1841C35.145 31.535 36.0334 30.9917 36.9718 30.562L44.7409 38.3531C44.3126 39.2943 43.7708 40.1852 43.1234 41.0106ZM45.9188 32.9027C45.919 33.6709 45.8496 34.4282 45.7213 35.1702L40.1458 29.5789C40.8857 29.4502 41.6409 29.3808 42.4069 29.3808H45.9188V32.9027ZM45.9191 26.4353H42.4072C42.4074 26.4353 42.407 26.4353 42.4072 26.4353C38.1222 26.4353 34.0889 28.113 31.0515 31.1588C28.0139 34.2051 26.3411 38.2493 26.3411 42.5464V58.5077C26.3409 63.6196 24.3557 68.4256 20.7512 72.0401C20.1629 72.6299 19.2057 72.6298 18.6175 72.0402C18.0293 71.4501 18.0293 70.4902 18.6175 69.9004C21.6521 66.8572 23.3232 62.8112 23.3231 58.5077L23.3232 42.5466C23.3232 31.9941 31.8842 23.409 42.4072 23.409H45.9191V26.4353ZM57.6242 8.80088L66.4411 17.6425C65.6202 18.2929 64.7334 18.838 63.7959 19.2696L56.0017 11.4534C56.432 10.5135 56.9754 9.62419 57.6242 8.80088ZM54.8116 16.9413C54.8116 16.1581 54.8831 15.3863 55.0158 14.6306L60.6279 20.2584C59.8744 20.3916 59.1046 20.4632 58.3236 20.4632L54.8116 20.4633V16.9413ZM71.8178 20.8299C68.2135 24.4445 63.4211 26.4352 58.3236 26.4353H54.8115V23.409L58.3234 23.4088C58.3231 23.4088 58.3237 23.4088 58.3234 23.4088C62.6145 23.4088 66.6496 21.733 69.6838 18.6902C70.2723 18.1002 71.2294 18.1002 71.8177 18.6902C72.1026 18.9759 72.2596 19.3559 72.2596 19.7602C72.2597 20.1642 72.1029 20.544 71.8178 20.8299Z" fill="#FF5C28"/>
</svg>
