<svg width="17" height="10" viewBox="0 0 17 10" fill="none" xmlns="http://www.w3.org/2000/svg">
<path d="M15.9661 8.11581C15.4897 7.54788 14.9291 7.06318 14.3987 6.54848C13.9202 6.08455 13.89 5.81541 14.2747 5.27995C14.6945 4.69554 15.146 4.13355 15.5697 3.55177C15.9651 3.00807 16.3694 2.46585 16.5775 1.81486C16.7095 1.4007 16.5927 1.21776 16.1654 1.14525C16.0918 1.13256 16.0157 1.1319 15.9408 1.1319L13.4056 1.12893C13.0934 1.12432 12.9208 1.25962 12.8104 1.53469C12.6613 1.9065 12.5076 2.27797 12.33 2.63676C11.9271 3.45025 11.4771 4.23655 10.8461 4.90238C10.707 5.04922 10.5531 5.2348 10.3207 5.15832C10.0298 5.05285 9.94412 4.57655 9.94892 4.41553L9.94644 1.50717C9.89006 1.09168 9.79737 0.90644 9.38234 0.825684L6.74889 0.826178C6.39737 0.826178 6.22111 0.961156 6.03341 1.17969C5.92513 1.30593 5.89247 1.38784 6.11499 1.42971C6.55207 1.51211 6.79831 1.79327 6.86364 2.22886C6.96843 2.92484 6.96113 3.62363 6.90078 4.32242C6.88304 4.52645 6.84772 4.72999 6.7663 4.92051C6.63896 5.21996 6.43335 5.28094 6.16324 5.09669C5.91867 4.9299 5.74688 4.69455 5.57875 4.45822C4.94717 3.57122 4.44326 2.61468 4.03237 1.60951C3.91365 1.31912 3.70887 1.1431 3.3993 1.13832C2.63871 1.12629 1.87796 1.12432 1.11738 1.13898C0.659731 1.14755 0.523267 1.3684 0.709641 1.78075C1.53804 3.61226 2.46013 5.39285 3.66377 7.01489C4.28176 7.84733 4.99127 8.58221 5.90789 9.10301C6.94671 9.69335 8.06495 9.87101 9.24273 9.8163C9.79422 9.79059 9.95987 9.64803 9.9854 9.10169C10.0026 8.7279 10.0453 8.35626 10.2308 8.02038C10.4129 7.69077 10.6886 7.62797 11.0065 7.833C11.1655 7.93567 11.2995 8.06636 11.426 8.20414C11.7364 8.54167 12.0357 8.88941 12.3579 9.21557C12.7619 9.62429 13.2407 9.86574 13.8426 9.81646L16.1726 9.81696C16.548 9.79256 16.7426 9.33506 16.5271 8.91859C16.3757 8.62688 16.177 8.36714 15.9661 8.11581Z" fill="white"/>
</svg>
