<svg width="17" height="13" viewBox="0 0 17 13" fill="none" xmlns="http://www.w3.org/2000/svg">
<path d="M16.6317 2.43034C16.4358 1.51474 15.7399 0.839233 14.902 0.738467C12.9179 0.500147 10.9097 0.498903 8.91076 0.500147C6.91149 0.498903 4.90296 0.500147 2.91888 0.738467C2.08151 0.839233 1.38601 1.51474 1.19013 2.43034C0.911341 3.73426 0.908203 5.15761 0.908203 6.50009C0.908203 7.84257 0.908203 9.26574 1.187 10.5695C1.38255 11.4849 2.07821 12.1604 2.91607 12.2614C4.89999 12.4999 6.90835 12.5011 8.90763 12.4999C10.9072 12.5011 12.9151 12.4999 14.8989 12.2614C15.7362 12.1606 16.4324 11.4851 16.6283 10.5695C16.9072 9.26556 16.9082 7.84239 16.9082 6.50009C16.9082 5.15761 16.9105 3.73426 16.6317 2.43034ZM6.84344 9.17226C6.84344 7.26783 6.84344 5.38331 6.84344 3.4787C8.53915 4.43074 10.2236 5.37638 11.9301 6.33428C10.2289 7.28365 8.54361 8.2236 6.84344 9.17226Z" fill="white"/>
</svg>
