<svg width="77" height="61" viewBox="0 0 77 61" fill="none" xmlns="http://www.w3.org/2000/svg">
<path d="M45.5459 42H32.1865V40.6523L39.4961 32.3613C40.707 30.9648 41.5469 29.8125 42.0156 28.9043C42.4844 27.9961 42.7188 27.1123 42.7188 26.2529C42.7188 24.9053 42.3232 23.8408 41.5322 23.0596C40.7412 22.2686 39.6523 21.873 38.2656 21.873C36.8301 21.873 35.668 22.332 34.7793 23.25C33.9004 24.168 33.4609 25.3594 33.4609 26.8242H31.7178C31.7178 25.623 31.9863 24.5293 32.5234 23.543C33.0703 22.5566 33.8418 21.7852 34.8379 21.2285C35.8438 20.6621 36.9863 20.3789 38.2656 20.3789C40.2188 20.3789 41.7422 20.8916 42.8359 21.917C43.9395 22.9424 44.4912 24.3389 44.4912 26.1064C44.4912 27.1025 44.1787 28.1914 43.5537 29.373C42.9385 30.5547 41.8496 32.0293 40.2871 33.7969L34.3398 40.5205H45.5459V42Z" fill="#FF5C28"/>
<ellipse cx="38.7036" cy="30.3609" rx="29.188" ry="28.771" stroke="#FF5C28" stroke-width="2"/>
</svg>
