<svg width="76" height="61" viewBox="0 0 76 61" fill="none" xmlns="http://www.w3.org/2000/svg">
<path d="M44.2549 25.165C44.2549 26.2686 43.9326 27.2598 43.2881 28.1387C42.6436 29.0078 41.7939 29.6475 40.7393 30.0576C41.9697 30.4775 42.9561 31.1562 43.6982 32.0938C44.4404 33.0312 44.8115 34.1152 44.8115 35.3457C44.8115 37.1719 44.1914 38.6221 42.9512 39.6963C41.7109 40.7607 40.0703 41.293 38.0293 41.293C35.9688 41.293 34.3184 40.7607 33.0781 39.6963C31.8477 38.6318 31.2324 37.1816 31.2324 35.3457C31.2324 34.1348 31.5889 33.0557 32.3018 32.1084C33.0146 31.1611 33.9912 30.4775 35.2314 30.0576C34.1768 29.6475 33.3369 29.0078 32.7119 28.1387C32.0869 27.2598 31.7744 26.2686 31.7744 25.165C31.7744 23.3975 32.3408 21.9912 33.4736 20.9463C34.6162 19.9014 36.125 19.3789 38 19.3789C39.875 19.3789 41.3838 19.9062 42.5264 20.9609C43.6787 22.0156 44.2549 23.417 44.2549 25.165ZM43.0537 35.3604C43.0537 34.0322 42.5801 32.9434 41.6328 32.0938C40.6855 31.2344 39.4746 30.8047 38 30.8047C36.5254 30.8047 35.3193 31.2246 34.3818 32.0645C33.4443 32.9043 32.9756 34.0029 32.9756 35.3604C32.9756 36.7178 33.4297 37.8018 34.3379 38.6123C35.2461 39.4131 36.4766 39.8135 38.0293 39.8135C39.543 39.8135 40.7588 39.4131 41.6768 38.6123C42.5947 37.8115 43.0537 36.7275 43.0537 35.3604ZM42.4971 25.1504C42.4971 23.9297 42.0723 22.9141 41.2227 22.1035C40.3828 21.2832 39.3086 20.873 38 20.873C36.6719 20.873 35.5928 21.2686 34.7627 22.0596C33.9424 22.8408 33.5322 23.8711 33.5322 25.1504C33.5322 26.4004 33.9424 27.4062 34.7627 28.168C35.5928 28.9297 36.6768 29.3105 38.0146 29.3105C39.333 29.3105 40.4072 28.9297 41.2373 28.168C42.0771 27.3965 42.4971 26.3906 42.4971 25.1504Z" fill="#FF5C28"/>
<circle cx="38.0454" cy="30.4839" r="29.188" stroke="#FF5C28" stroke-width="2"/>
</svg>
