<svg width="55" height="69" viewBox="0 0 55 69" fill="none" xmlns="http://www.w3.org/2000/svg">
<path d="M49.4662 51.4207L47.7425 50.6762C47.7555 50.2045 47.4627 49.7602 46.9935 49.6034L46.1823 49.3322C46.1441 44.9822 45.0756 42.5344 44.1302 40.3715C43.3558 38.5998 42.687 37.0668 42.6769 34.674C42.9278 33.9132 43.1413 33.1296 43.3142 32.3259L43.5851 31.9783C45.935 28.9654 47.3534 27.1469 47.3534 22.6C47.3534 17.2614 45.2605 11.7382 41.6112 7.44677C37.743 2.89784 32.7484 0.392578 27.5471 0.392578C22.3459 0.392578 17.3512 2.89784 13.4831 7.44677C9.83374 11.7382 7.74085 17.2614 7.74085 22.6C7.74085 27.152 9.28691 29.1346 11.627 32.1353L11.7819 32.3341C12.6525 36.3729 14.5433 39.9129 17.0966 42.5194C17.0964 42.5247 17.0958 42.53 17.0958 42.5353V45.4649L15.7932 46.3357C15.3807 46.6115 15.0481 46.9656 14.7977 47.3646L8.10073 49.6032C7.63166 49.7601 7.33888 50.2042 7.35175 50.6761L5.62809 51.4206C2.64925 52.7073 0.724609 55.6401 0.724609 58.8925V64.8161C0.724609 66.7156 2.26555 68.2609 4.15965 68.2609H50.9346C52.8287 68.2609 54.3697 66.7156 54.3697 64.8161V58.8925C54.3697 55.6401 52.445 52.7073 49.4662 51.4207ZM39.4981 57.2172L41.4805 60.1992L38.4948 66.0621H34.5607C34.6749 64.3661 34.9586 62.2947 35.6234 60.5101C35.6391 60.4682 35.651 60.426 35.6614 60.3834C35.6705 60.3654 35.6794 60.3475 35.6886 60.3294L37.3906 56.9179C38.4156 54.8619 39.6459 52.393 40.469 50.7409C40.6139 50.4502 40.7138 50.1476 40.7713 49.8411L45.1623 51.3089C45.168 51.3873 45.1813 51.4646 45.2031 51.5395L44.234 54.5157L40.1445 55.5409C39.7987 55.6275 39.5164 55.8775 39.3878 56.2109C39.2591 56.5444 39.3004 56.9198 39.4981 57.2172ZM16.5994 66.0621L13.6137 60.1992L15.5961 57.2172C15.7939 56.9198 15.8351 56.5444 15.7065 56.2109C15.5779 55.8775 15.2956 55.6275 14.9498 55.5409L10.8603 54.5157L9.89046 51.5373C9.9118 51.4632 9.92481 51.3869 9.93036 51.3095L14.3228 49.8411C14.3803 50.1475 14.4803 50.4502 14.6251 50.7409C15.4482 52.393 16.6785 54.8619 17.7035 56.9179L19.4055 60.3294C19.4423 60.4029 19.4783 60.4746 19.5154 60.5437C20.1795 62.3431 20.4558 64.4333 20.5661 66.0621H16.5994ZM21.7888 60.4169C23.2155 58.9614 24.2157 57.7408 24.8986 56.8067L26.4508 61.4765V66.0621H22.7632C22.6605 64.4377 22.4026 62.3464 21.7888 60.4169ZM28.5871 60.9504L26.2484 53.9144C26.2211 53.8322 26.1841 53.756 26.1405 53.6852C26.1351 53.6765 26.1296 53.668 26.124 53.6594C26.0999 53.6224 26.0742 53.5871 26.0461 53.5538C26.044 53.5515 26.0427 53.5488 26.0407 53.5465L26.0348 53.5396C26.0331 53.5375 26.0315 53.5355 26.0296 53.5334L19.2884 45.6468V44.4074C21.7118 46.1507 24.5351 47.1528 27.5471 47.1528C30.5591 47.1528 33.3825 46.1507 35.8058 44.4074V45.6468L29.0536 53.5466C28.7783 53.8687 28.7124 54.3209 28.8842 54.7086C28.9255 54.8021 29.9012 56.9497 33.3304 60.4425C32.7311 62.3352 32.4698 64.3861 32.3642 66.0621H28.6434V61.2981C28.6434 61.18 28.6244 61.0626 28.5871 60.9504ZM13.4416 27.2907C13.4416 20.2648 19.1025 15.8683 21.4738 14.5536C23.7734 16.8473 26.9431 18.7188 30.9528 20.1434C35.0093 21.5848 38.9608 22.2003 41.0701 22.3807C41.457 24.0128 41.6527 25.6608 41.6527 27.2907C41.6527 27.3163 41.652 27.342 41.652 27.3677C41.628 27.366 41.604 27.364 41.5796 27.364H37.818C37.3593 26.0022 36.0742 25.0186 34.5634 25.0186H32.2246C30.9849 25.0186 29.8965 25.6808 29.2926 26.6708C28.7807 26.3666 28.1841 26.1913 27.5471 26.1913C26.9101 26.1913 26.3136 26.3666 25.8017 26.6708C25.1977 25.6808 24.1093 25.0186 22.8696 25.0186H20.5309C19.0201 25.0186 17.7349 26.0022 17.2762 27.364H13.5146C13.4902 27.364 13.4664 27.366 13.4423 27.3677C13.4423 27.342 13.4416 27.3163 13.4416 27.2907ZM13.5579 29.5627H17.0958V29.636C17.0958 30.2432 17.5867 30.7354 18.1921 30.7354C18.7976 30.7354 19.2884 30.2432 19.2884 29.636V28.4634C19.2884 27.7763 19.8458 27.2174 20.5309 27.2174H20.604V28.4634C20.604 29.0705 21.0948 29.5627 21.7003 29.5627C22.3057 29.5627 22.7965 29.0705 22.7965 28.4634V27.2174H22.8696C23.5547 27.2174 24.1121 27.7763 24.1121 28.4634V29.636C24.1121 30.2432 24.6029 30.7354 25.2084 30.7354C25.8138 30.7354 26.3047 30.2432 26.3047 29.636C26.3047 28.949 26.862 28.3901 27.5471 28.3901C28.2322 28.3901 28.7896 28.949 28.7896 29.636C28.7896 30.2432 29.2804 30.7354 29.8859 30.7354C30.4913 30.7354 30.9822 30.2432 30.9822 29.636V28.4634C30.9822 27.7763 31.5395 27.2174 32.2246 27.2174H32.2977V28.4634C32.2977 29.0705 32.7886 29.5627 33.394 29.5627C33.9994 29.5627 34.4903 29.0705 34.4903 28.4634V27.2174H34.5634C35.2485 27.2174 35.8058 27.7763 35.8058 28.4634V29.636C35.8058 30.2432 36.2967 30.7354 36.9021 30.7354C37.5076 30.7354 37.9984 30.2432 37.9984 29.636V29.5627H41.5364C40.6432 38.2332 34.7103 44.954 27.5471 44.954C20.384 44.954 14.451 38.2332 13.5579 29.5627ZM38.5075 49.758C36.5183 53.7505 35.0637 56.6686 34.2723 58.2546C32.5692 56.4409 31.6489 55.107 31.2141 54.3973L37.1022 47.5084L38.0848 48.1653C38.6049 48.5131 38.7867 49.1978 38.5075 49.758ZM42.1221 41.2543C42.964 43.1804 43.8315 45.1676 43.9714 48.5933L40.2965 47.3649C40.046 46.9659 39.7134 46.6118 39.3011 46.336L37.9984 45.465V42.5354C37.9984 42.53 37.9977 42.5249 37.9977 42.5196C39.157 41.3361 40.18 39.9607 41.0326 38.4328C41.3377 39.4566 41.7327 40.3633 42.1221 41.2543ZM9.93343 22.6C9.93343 17.7762 11.8353 12.773 15.1513 8.87347C18.5962 4.82234 22.9984 2.59133 27.5471 2.59133C32.0958 2.59133 36.4981 4.82234 39.9429 8.87347C43.259 12.773 45.1608 17.7762 45.1608 22.6C45.1608 25.0247 44.7362 26.4412 43.8367 27.9088C43.8418 27.7035 43.8453 27.4975 43.8453 27.2907C43.8453 25.2126 43.5581 23.111 42.9915 21.044C42.8648 20.5819 42.454 20.2553 41.9765 20.2368C40.6678 20.1865 36.268 19.6993 31.685 18.0709C24.5253 15.5269 21.5722 11.863 20.3558 9.23744C20.1006 8.68687 19.4488 8.4478 18.8996 8.70358C18.3504 8.95952 18.1122 9.61328 18.3673 10.1639C18.808 11.115 19.3527 12.0177 20.0009 12.8717C16.9883 14.6861 11.249 19.5518 11.249 27.2907C11.249 27.4898 11.252 27.6879 11.2569 27.8855C10.3755 26.4176 9.93343 24.9587 9.93343 22.6ZM17.0095 48.1654L17.992 47.5086L23.88 54.3971C23.4441 55.1091 22.5242 56.4421 20.8221 58.2548C20.0307 56.6686 18.5763 53.7505 16.5869 49.7582C16.3075 49.1978 16.4894 48.5131 17.0095 48.1654ZM2.91719 64.8161V58.8925C2.91719 56.5192 4.32175 54.3789 6.49532 53.4401L7.99315 52.7932L8.96431 55.776C9.0814 56.1356 9.37462 56.4096 9.74063 56.5013L12.9089 57.2957L11.4332 59.5157C11.213 59.8467 11.1885 60.2712 11.369 60.6255L14.1375 66.0621H11.1028V63.6435C11.1028 63.0363 10.612 62.5441 10.0065 62.5441C9.40107 62.5441 8.91023 63.0363 8.91023 63.6435V66.0621H4.15965C3.47454 66.0621 2.91719 65.5032 2.91719 64.8161ZM52.1771 64.8161C52.1771 65.5032 51.6197 66.0621 50.9346 66.0621H46.184V63.6435C46.184 63.0363 45.6932 62.5441 45.0877 62.5441C44.4823 62.5441 43.9915 63.0363 43.9915 63.6435V66.0621H40.9568L43.7253 60.6255C43.9058 60.2712 43.8812 59.8467 43.6611 59.5157L42.1852 57.2957L45.3535 56.5013C45.7195 56.4097 46.0127 56.1356 46.1298 55.776L47.101 52.7932L48.5988 53.4401C50.7725 54.3789 52.1771 56.5192 52.1771 58.8925V64.8161Z" fill="#FF5C28"/>
<path d="M22.2529 38.7212C23.5523 39.6078 25.482 40.1163 27.5471 40.1163C29.6123 40.1163 31.542 39.6078 32.8413 38.7212C33.342 38.3796 33.4716 37.6959 33.1309 37.1941C32.7902 36.6921 32.1083 36.5624 31.6078 36.9038C30.677 37.5388 29.159 37.918 27.547 37.918C25.935 37.918 24.417 37.5388 23.4862 36.9038C22.9856 36.5623 22.3038 36.6923 21.9631 37.1941C21.6226 37.6959 21.7523 38.3796 22.2529 38.7212Z" fill="#FF5C28"/>
</svg>
