<svg width="64" height="75" viewBox="0 0 64 75" fill="none" xmlns="http://www.w3.org/2000/svg">
<path d="M47.1676 0.986328H4.47903C2.07714 0.986328 0.123047 2.92339 0.123047 5.30434V19.9856C0.123047 20.7805 0.77325 21.4249 1.57504 21.4249C2.37683 21.4249 3.02703 20.7805 3.02703 19.9856V5.30434C3.02703 4.51069 3.6784 3.865 4.47903 3.865H47.1676C47.9683 3.865 48.6196 4.51069 48.6196 5.30434V58.8476C48.6196 59.6413 47.9683 60.287 47.1676 60.287H4.47903C3.6784 60.287 3.02703 59.6413 3.02703 58.8476V32.1239C3.02703 31.329 2.37683 30.6846 1.57504 30.6846C0.77325 30.6846 0.123047 31.329 0.123047 32.1239V58.8476C0.123047 61.2286 2.07714 63.1656 4.47903 63.1656H47.1676C49.5695 63.1656 51.5236 61.2286 51.5236 58.8476V5.30434C51.5236 2.92339 49.5695 0.986328 47.1676 0.986328Z" fill="#FF5C28"/>
<path d="M2.60146 25.4118C2.33153 25.144 1.95692 24.9913 1.57504 24.9913C1.19317 24.9913 0.818553 25.144 0.548482 25.4118C0.278265 25.681 0.123047 26.0525 0.123047 26.4298C0.123047 26.8099 0.27841 27.18 0.548482 27.4492C0.818553 27.717 1.19317 27.8711 1.57504 27.8711C1.95677 27.8711 2.33139 27.717 2.60146 27.4492C2.87168 27.1814 3.02704 26.8099 3.02704 26.4298C3.02704 26.0511 2.87153 25.681 2.60146 25.4118Z" fill="#FF5C28"/>
<path d="M8.41801 66.4748C8.14794 66.2069 7.77492 66.0529 7.39145 66.0529C7.00957 66.0529 6.63496 66.2069 6.36503 66.4748C6.09482 66.7426 5.93945 67.1141 5.93945 67.4928C5.93945 67.8729 6.09496 68.243 6.36503 68.5108C6.63496 68.7801 7.00957 68.9327 7.39145 68.9327C7.77492 68.9327 8.14794 68.7801 8.41801 68.5108C8.68823 68.243 8.84344 67.8729 8.84344 67.4928C8.84344 67.1141 8.68808 66.7426 8.41801 66.4748Z" fill="#FF5C28"/>
<path d="M55.8886 6.75256C55.0869 6.75256 54.4366 7.39695 54.4366 8.1919V64.6139C54.4366 65.4075 53.7853 66.0532 52.9847 66.0532H13.2C12.3982 66.0532 11.748 66.6976 11.748 67.4925C11.748 68.2875 12.3982 68.9319 13.2 68.9319H52.9847C55.3865 68.9319 57.3406 66.9948 57.3406 64.6139V8.1919C57.3406 7.39695 56.6904 6.75256 55.8886 6.75256Z" fill="#FF5C28"/>
<path d="M61.7064 12.5007C60.9046 12.5007 60.2544 13.1451 60.2544 13.9401V70.362C60.2544 71.1557 59.603 71.8014 58.8024 71.8014H13.2098C12.408 71.8014 11.7578 72.4458 11.7578 73.2407C11.7578 74.0357 12.408 74.6801 13.2098 74.6801H58.8024C61.2043 74.6801 63.1584 72.743 63.1584 70.362V13.9401C63.1584 13.1451 62.5082 12.5007 61.7064 12.5007Z" fill="#FF5C28"/>
<path d="M23.6451 11.6372H9.7059C8.90411 11.6372 8.25391 12.2816 8.25391 13.0765V26.8941C8.25391 27.689 8.90411 28.3334 9.7059 28.3334H23.6451C24.4468 28.3334 25.097 27.689 25.097 26.8941V13.0765C25.097 12.2816 24.4468 11.6372 23.6451 11.6372ZM22.1931 25.4547H11.1579V14.5159H22.1931V25.4547Z" fill="#FF5C28"/>
<path d="M18.972 34.8685C18.4049 34.3066 17.4858 34.3064 16.9185 34.8685L13.0586 38.6948L11.264 36.9156C10.697 36.3535 9.77785 36.3536 9.21041 36.9156C8.6434 37.4776 8.6434 38.3891 9.21041 38.9511L12.0319 41.7481C12.3043 42.018 12.6736 42.1697 13.0586 42.1697C13.4438 42.1697 13.8129 42.018 14.0855 41.7481L18.972 36.9041C19.539 36.342 19.539 35.4306 18.972 34.8685Z" fill="#FF5C28"/>
<path d="M42.7631 36.8258H25.8231C25.0213 36.8258 24.3711 37.4701 24.3711 38.265C24.3711 39.0599 25.0213 39.7042 25.8231 39.7042H42.7631C43.5649 39.7042 44.2151 39.0599 44.2151 38.265C44.2151 37.4701 43.5649 36.8258 42.7631 36.8258Z" fill="#FF5C28"/>
<path d="M41.9402 11.6372H31.7762C30.9744 11.6372 30.3242 12.2818 30.3242 13.0771C30.3242 13.8723 30.9744 14.517 31.7762 14.517H41.9402C42.742 14.517 43.3922 13.8723 43.3922 13.0771C43.3922 12.2818 42.742 11.6372 41.9402 11.6372Z" fill="#FF5C28"/>
<path d="M41.9402 18.5463H31.7762C30.9744 18.5463 30.3242 19.1907 30.3242 19.9856C30.3242 20.7805 30.9744 21.4249 31.7762 21.4249H41.9402C42.742 21.4249 43.3922 20.7805 43.3922 19.9856C43.3922 19.1907 42.742 18.5463 41.9402 18.5463Z" fill="#FF5C28"/>
<path d="M41.9402 25.4551H31.7762C30.9744 25.4551 30.3242 26.0994 30.3242 26.8943C30.3242 27.6893 30.9744 28.3336 31.7762 28.3336H41.9402C42.742 28.3336 43.3922 27.6893 43.3922 26.8943C43.3922 26.0994 42.742 25.4551 41.9402 25.4551Z" fill="#FF5C28"/>
<path d="M18.972 45.8602C18.4049 45.2983 17.4858 45.2982 16.9185 45.8602L13.0586 49.6864L11.264 47.9072C10.697 47.3452 9.77785 47.3453 9.21041 47.9072C8.6434 48.4693 8.6434 49.3807 9.21041 49.9427L12.0319 52.7397C12.3043 53.0095 12.6736 53.1613 13.0586 53.1613C13.4438 53.1613 13.8129 53.0095 14.0855 52.7397L18.972 47.8957C19.539 47.3337 19.539 46.4223 18.972 45.8602Z" fill="#FF5C28"/>
<path d="M42.7631 47.7644H25.8231C25.0213 47.7644 24.3711 48.409 24.3711 49.2043C24.3711 49.9995 25.0213 50.6442 25.8231 50.6442H42.7631C43.5649 50.6442 44.2151 49.9995 44.2151 49.2043C44.2151 48.409 43.5649 47.7644 42.7631 47.7644Z" fill="#FF5C28"/>
</svg>
