<svg width="48" height="75" viewBox="0 0 48 75" fill="none" xmlns="http://www.w3.org/2000/svg">
<path d="M40.0067 47.3793C40.8081 47.3793 41.4587 46.7344 41.4587 45.94C41.4587 45.1456 40.8081 44.5007 40.0067 44.5007C39.2052 44.5007 38.5547 45.1456 38.5547 45.94C38.5547 46.7344 39.2052 47.3793 40.0067 47.3793Z" fill="#FF5C28"/>
<path d="M1.07895 46.5387C1.97907 50.3294 3.40271 53.9738 5.31072 57.3703C7.21986 60.769 9.5958 63.8878 12.3727 66.6405L12.4192 66.6871V72.7115C12.4192 73.5066 13.0692 74.1509 13.8712 74.1509H40.0071C40.8091 74.1509 41.4591 73.5066 41.4591 72.7115V66.5213C45.2275 60.7662 47.2671 54.0188 47.2671 47.0757V35.8646C47.2671 32.6902 44.6614 30.1073 41.4591 30.1073C40.2641 30.1073 39.1524 30.4671 38.2279 31.0833C37.4332 28.8411 35.2774 27.2286 32.7472 27.2286C31.5521 27.2286 30.4404 27.5885 29.5159 28.2047C28.7213 25.9625 26.5654 24.35 24.0352 24.35C22.9989 24.35 22.0047 24.6187 21.1312 25.1208V11.9717C21.1312 8.7911 18.5324 6.21436 15.3232 6.21436C12.1209 6.21436 9.51526 8.79728 9.51526 11.9717V32.6953L5.54723 35.3176C1.8611 37.7537 0.0648217 42.2629 1.07895 46.5387ZM7.1586 37.7127L9.51526 36.1547V45.9399C9.51526 46.735 10.1653 47.3793 10.9673 47.3793C11.7693 47.3793 12.4192 46.735 12.4192 45.9399C12.4192 44.8908 12.4192 12.8398 12.4192 11.9717C12.4192 10.3845 13.7221 9.09302 15.3232 9.09302C16.9272 9.09302 18.2272 10.3817 18.2272 11.9717V40.1826C18.2272 40.9776 18.8772 41.6219 19.6792 41.6219C20.4812 41.6219 21.1312 40.9776 21.1312 40.1826V30.1073C21.1312 28.5173 22.4312 27.2286 24.0352 27.2286C25.6364 27.2286 26.9392 28.5201 26.9392 30.1073V40.1826C26.9392 40.9776 27.5892 41.6219 28.3912 41.6219C29.1932 41.6219 29.8432 40.9776 29.8432 40.1826V32.986C29.8432 31.3987 31.146 30.1073 32.7472 30.1073C34.3483 30.1073 35.6511 31.3987 35.6511 32.986V40.1826C35.6511 40.9776 36.3011 41.6219 37.1031 41.6219C37.9051 41.6219 38.5551 40.9776 38.5551 40.1826V35.8646C38.5551 34.2774 39.858 32.986 41.4591 32.986C43.0603 32.986 44.3631 34.2774 44.3631 35.8646V47.0757C44.3631 53.5212 42.4494 59.8644 38.799 65.2922C38.6402 65.5289 38.5551 65.8067 38.5551 66.0906V71.2722H15.3232V66.0906C15.3232 65.7088 15.1701 65.3428 14.8978 65.073C14.5904 64.7261 10.9616 61.5134 7.84773 55.9697C6.07074 52.8055 4.7441 49.4107 3.90523 45.8798C3.16789 42.7684 4.47525 39.486 7.1586 37.7127Z" fill="#FF5C28"/>
<path d="M34.3691 64.0942C35.035 64.5344 35.9368 64.3584 36.3826 63.6955C38.7926 60.114 40.3677 56.1513 41.0642 51.917C41.1929 51.1327 40.6558 50.3928 39.8646 50.2651C39.0728 50.1369 38.3269 50.6694 38.1976 51.4537C37.5686 55.2798 36.1455 58.8608 33.967 62.0982C33.5217 62.7594 33.7021 63.6528 34.3691 64.0942Z" fill="#FF5C28"/>
<path d="M5.15902 13.411C5.96102 13.411 6.61102 12.7667 6.61102 11.9717C6.61102 7.20952 10.5195 3.33569 15.323 3.33569C20.127 3.33569 24.0349 7.20952 24.0349 11.9717C24.0349 12.7667 24.6849 13.411 25.4869 13.411C26.2889 13.411 26.9389 12.7667 26.9389 11.9717C26.9389 5.62232 21.7282 0.457031 15.323 0.457031C8.91776 0.457031 3.70703 5.62232 3.70703 11.9717C3.70703 12.7667 4.35702 13.411 5.15902 13.411Z" fill="#FF5C28"/>
</svg>
